<svg xmlns="http://www.w3.org/2000/svg" width="512" height="512"><path d="m405 66 2.742 2.164C418.268 76.554 428.42 85.604 437 96l2.473 2.813c7.237 8.26 13.541 16.985 19.527 26.187l1.163 1.77c34.505 53.075 44.826 119.513 31.888 181.045C484.202 343.006 468.942 377.027 446 405l-2.164 2.742C435.446 418.268 426.396 428.42 416 437l-2.813 2.473C379.272 469.189 336.394 488.077 292 495l-2.37.39c-59.517 9.406-124.6-6.922-173.298-41.98-3.19-2.375-6.27-4.872-9.332-7.41l-1.626-1.34A553.795 553.795 0 0 1 94 435l-1.525-1.33c-5.165-4.53-10.133-9.104-14.55-14.373a230.466 230.466 0 0 0-4.632-5.344C43.131 379.9 23.987 336.802 17 292l-.39-2.37c-9.391-59.426 6.826-124.838 42.05-173.368 2.364-3.156 4.84-6.214 7.34-9.262l2.375-2.988c3.808-4.754 7.696-9.244 12.082-13.469 1.77-1.716 1.77-1.716 3.98-4.543 2.528-2.96 5.132-5.388 8.09-7.898a307.973 307.973 0 0 0 5.54-4.829C132.124 43.127 175.202 23.986 220 17l2.37-.39C285.643 6.61 355.58 25.469 405 66Z" fill="#202336"/><path d="m205.11 209.45 3.65-.03c3.287-.023 6.574-.028 9.862-.023 2.753.002 5.506-.008 8.259-.017 6.501-.023 13.002-.023 19.504-.011 6.685.012 13.37-.013 20.055-.055 5.758-.036 11.516-.048 17.275-.041 3.43.003 6.861-.002 10.292-.03 3.832-.024 7.662-.01 11.494.012l3.4-.046c7.671.102 13.114 1.88 19.099 6.791 2.585 3.163 4.29 6.514 6.043 10.184l1.02 2.129.847 1.925c1.416 2.29 2.807 3.323 5.09 4.762 2.775.664 2.775.664 5.824.914l3.365.367 3.499.344c2.295.239 4.591.48 6.886.727 1.017.1 2.034.202 3.081.307C366 238 366 238 367 239c.107 1.736.144 3.477.154 5.216l.026 3.428.013 3.795.025 3.972c.026 4.361.041 8.723.055 13.085l.017 4.506c.021 6.253.04 12.506.051 18.759.016 8.953.05 17.905.107 26.858.038 6.298.058 12.595.063 18.892.004 3.759.016 7.517.048 11.276.03 3.543.037 7.086.025 10.63 0 1.906.024 3.813.05 5.72-.066 9.1-1.994 15.868-8.196 22.676-8.619 6.256-20.318 8.936-30.313 12.187-2.54.83-5.079 1.664-7.617 2.5l-1.908.627c-5.33 1.763-10.613 3.649-15.894 5.552a999.17 999.17 0 0 1-12.448 4.329l-2.263.773c-3.069 1.048-6.138 2.094-9.207 3.14l-6.843 2.337-2.061.7-1.985.68-1.938.66c-1.372.491-2.732 1.014-4.082 1.56-6.52 2.63-6.52 2.63-10.211 1.568l-2.292-.642a356.126 356.126 0 0 1-13.063-4.596c-10.236-3.757-20.52-7.34-30.842-10.848-11.964-4.068-23.929-8.138-35.846-12.34l-2.965-1.021c-7.295-2.6-14.736-5.495-19.035-12.291l-1.398-2.114c-3.638-7.634-3.504-15.215-3.454-23.508v-3.875c-.002-3.485.01-6.97.024-10.455.013-3.65.014-7.3.016-10.95.006-6.903.023-13.805.043-20.707.022-7.862.033-15.725.043-23.587.021-16.164.056-32.328.101-48.492 2.536-1.268 4.7-1.383 7.523-1.684l3.344-.373c2.33-.253 4.661-.503 6.992-.75l3.352-.377 3.072-.33c2.661-.476 4.46-1.013 6.717-2.486a73.486 73.486 0 0 0 3.5-6.812c6.048-13.216 12.443-16.8 26.61-16.737Z" fill="#0F8EC0"/><path d="M207.465 209.61a1384.013 1384.013 0 0 1 15.22.116c3.754.04 7.508.059 11.262.079 7.352.04 14.701.119 22.053.195v56l-10 2c-5.347 3.266-10.068 7.963-12 14-1.567 7.138-1.117 13.344 2 20 2.213 3.238 4.45 6.225 8 8l.06 3.042c.076 3.737.165 7.473.257 11.21.039 1.615.073 3.23.105 4.844.046 2.327.104 4.652.164 6.978l.035 2.176c.09 5.714.09 5.714 2.379 10.75l9 3v72c-8.99-1.124-8.99-1.124-12.914-2.61l-2.746-1.017-2.965-1.123c-10.253-3.79-20.555-7.396-30.905-10.91-11.964-4.066-23.928-8.138-35.845-12.34l-2.965-1.021c-7.295-2.6-14.736-5.495-19.035-12.291l-1.398-2.114c-3.638-7.634-3.504-15.215-3.454-23.508v-3.875c-.002-3.485.01-6.97.024-10.455.013-3.65.014-7.3.016-10.95.006-6.903.023-13.805.043-20.707.022-7.862.033-15.725.043-23.587.021-16.164.056-32.328.101-48.492 2.536-1.268 4.7-1.383 7.523-1.684l3.344-.373c2.33-.253 4.661-.503 6.992-.75l3.352-.377 3.072-.33c2.661-.476 4.46-1.013 6.717-2.486a73.486 73.486 0 0 0 3.5-6.813c2.935-6.411 5.732-11.822 12.127-15.35 5.363-1.89 11.22-1.316 16.838-1.228Z" fill="#F3F4F3"/><path d="m405 66 2.742 2.164C418.268 76.554 428.42 85.604 437 96l2.473 2.813c7.237 8.26 13.541 16.985 19.527 26.187l1.163 1.77c34.505 53.075 44.826 119.513 31.888 181.045C484.202 343.006 468.942 377.027 446 405l-2.164 2.742C435.446 418.268 426.396 428.42 416 437l-2.813 2.473C379.272 469.189 336.394 488.077 292 495l-2.37.39c-59.517 9.406-124.6-6.922-173.298-41.98-3.19-2.375-6.27-4.872-9.332-7.41l-1.626-1.34A553.795 553.795 0 0 1 94 435l-1.525-1.33c-5.165-4.53-10.133-9.104-14.55-14.373a230.466 230.466 0 0 0-4.632-5.344C43.131 379.9 23.987 336.802 17 292l-.39-2.37c-9.391-59.426 6.826-124.838 42.05-173.368 2.364-3.156 4.84-6.214 7.34-9.262l2.375-2.988c3.808-4.754 7.696-9.244 12.082-13.469 1.77-1.716 1.77-1.716 3.98-4.543 2.528-2.96 5.132-5.388 8.09-7.898a307.973 307.973 0 0 0 5.54-4.829C132.124 43.127 175.202 23.986 220 17l2.37-.39C285.643 6.61 355.58 25.469 405 66ZM208.812 28.687l-2.329.51C167.426 38.085 131.831 56.258 102 83l-1.82 1.617C68.965 112.486 43.38 151.14 33 192c-.235.922-.47 1.844-.71 2.794a989.79 989.79 0 0 0-2.415 9.893l-.77 3.147c-3.646 15.7-4.517 31.473-4.48 47.541v2.617C24.665 273.61 25.94 288.652 29 304l.519 2.694C36.113 339.75 52.194 371.64 73 398l2.07 2.656C83.718 411.506 93.163 422.285 104 431l3.184 2.656c29.784 24.613 63.846 41.415 101.629 49.656l2.02.447c14.692 2.97 29.597 3.649 44.542 3.616h2.612c19.859-.039 39.946-1.604 58.965-7.72a279.25 279.25 0 0 1 4.588-1.419c33.085-9.952 62.664-26.352 88.46-49.236l1.685-1.494c29.838-26.619 52.213-61.228 64.584-99.258.627-1.929 1.289-3.845 1.958-5.76 6.837-20.382 9.14-42.403 9.034-63.796-.011-2.558 0-5.115.012-7.672.013-14.17-.893-28.335-3.96-42.208l-.51-2.329C471.924 158.677 445.68 111.12 407 80l-3.219-2.691C375.24 53.666 340.458 36.156 304 29l-2.945-.59c-15.243-2.922-30.205-3.781-45.68-3.785l-2.521-.006c-14.762.004-29.588.873-44.042 4.069Z" fill="#90B6D3"/><path d="M144 239h1v81l6 2c2.121.925 4.229 1.881 6.324 2.863l3.62 1.69 3.744 1.76a7912.809 7912.809 0 0 0 5.51 2.579c1.798.839 3.597 1.672 5.397 2.505a219.583 219.583 0 0 1 6.47 3.17c5.581 2.787 9.781 4.444 15.935 2.433 4.339-1.558 8.573-3.317 12.813-5.125 2.397-1.001 4.795-2 7.195-2.996l3.571-1.484c7.392-3.015 14.903-5.712 22.421-8.395l.06 2.032c.096 3.052.205 6.104.315 9.156.03 1.055.062 2.11.094 3.197l.117 3.095.095 2.841c.468 4.074.468 4.074 2.319 7.679l9 3v72c-8.99-1.124-8.99-1.124-12.914-2.61l-2.746-1.017-2.965-1.123c-10.253-3.79-20.555-7.396-30.905-10.91-11.964-4.066-23.928-8.138-35.845-12.34l-2.965-1.021c-7.295-2.6-14.736-5.495-19.035-12.291l-1.398-2.114c-3.638-7.634-3.504-15.215-3.454-23.508v-3.875c-.002-3.485.01-6.97.024-10.455.013-3.65.014-7.3.016-10.95.006-6.903.023-13.805.043-20.707.022-7.862.033-15.725.043-23.587.021-16.164.056-32.328.101-48.492Z" fill="#CCD0D2"/><path d="M300.191 101.168c17.056 13.402 28.299 31.288 31.43 52.814.944 8.553.581 17.24.504 25.83-.01 1.965-.02 3.929-.027 5.893-.022 4.765-.057 9.53-.098 14.295-6.729-2-13.434-4.064-20.125-6.188l-2.61-.826c-2.088-.661-4.177-1.323-6.265-1.986l-.044-3.162c-.059-3.908-.136-7.816-.218-11.724-.033-1.685-.062-3.37-.084-5.054-.1-12.832-.1-12.832-3.654-25.06l-.846-2.07c-3.968-9.508-12.2-17.139-21.154-21.93l-2.273-1.25c-9.938-4.514-22.986-4.403-33.47-1.832-11.748 4.619-21.71 13.163-27.132 24.644-3.096 7.112-4.413 13.972-4.54 21.657-.018.743-.038 1.486-.058 2.252-.059 2.343-.106 4.686-.152 7.029a4663.7 4663.7 0 0 1-.117 4.805c-.096 3.898-.18 7.796-.258 11.695l-3.614 1.008c-7.762 2.175-15.132 4.476-22.382 8.074C181 201 181 201 179 201c-.075-5.813-.13-11.625-.165-17.438-.015-1.97-.035-3.939-.061-5.908-.2-15.298-.398-31.445 6.788-45.404l1.04-2.103c9.447-18.378 24.92-31.59 44.168-39.116 23.932-7.64 48.619-3.995 69.421 10.137Z" fill="#E7E9E9"/><path d="M256 210c7.905-.126 15.806-.246 23.712-.31 3.682-.032 7.363-.074 11.044-.143 3.554-.065 7.106-.1 10.66-.116 2-.017 3.999-.063 5.998-.11 8.27-.004 14.183 1.214 20.586 6.679 2.577 3.17 4.29 6.513 6.043 10.184l1.02 2.129.847 1.925c1.416 2.29 2.807 3.323 5.09 4.762 2.775.664 2.775.664 5.824.914l3.365.367 3.498.344c2.296.239 4.592.48 6.887.727 1.017.1 2.034.202 3.081.307C366 238 366 238 367 239c1.287 4.665 1.405 8.352 0 13-3.906 4.514-9.454 7.423-14.51 10.473-4.08 2.503-7.992 5.242-11.928 7.964l-2.384 1.626c-7.866 5.365-15.573 10.94-23.262 16.553a285.945 285.945 0 0 1-4.959 3.486c-7.784 5.404-14.473 11.835-21.318 18.352-3.126 2.95-6.374 5.753-9.639 8.546-1.482 1.268-2.96 2.539-4.438 3.813l-1.996 1.707c-1.676 1.415-1.676 1.415-2.566 3.48h-2c-1.076-16.293-1.076-16.293 1.418-20.25 1.832-1.375 1.832-1.375 3.758-2.563 3.395-2.21 4.747-5.376 5.824-9.187 1.011-7.737.098-13.42-4-20l-1.023-2.152c-1.29-2.44-2.45-2.795-4.977-3.848l-2.813-1.563c-3.684-1.84-3.684-1.84-10.187-2.437v-56Z" fill="#24C2E8"/><path d="M351 302h16c.113 9.345.205 18.69.26 28.036.025 4.34.06 8.68.117 13.02.055 4.196.084 8.39.097 12.586.01 1.594.027 3.188.055 4.781.175 10.701-.568 19.132-8.091 27.39-8.619 6.256-20.318 8.936-30.313 12.187-2.54.83-5.079 1.664-7.617 2.5l-1.908.627c-5.33 1.763-10.613 3.649-15.894 5.552a999.17 999.17 0 0 1-12.448 4.329l-2.263.773c-3.069 1.048-6.138 2.094-9.207 3.14l-6.843 2.337-2.061.7-1.985.68-1.933.658a112.874 112.874 0 0 0-4.134 1.577c-5.536 2.226-5.536 2.226-8.832 1.127h2v-52c9.448-4.41 18.87-8.803 28.438-12.938l3.35-1.494c10.038-4.321 17.082-3.783 27.712-2.068l2.781.434c2.24.35 4.48.705 6.719 1.066v-3h2l.798-2.54c1.286-3.7 2.812-7.247 4.432-10.808l.95-2.1c.664-1.464 1.329-2.927 1.995-4.39.997-2.191 1.987-4.386 2.975-6.582A355.567 355.567 0 0 1 351 302Z" fill="#0C79AF"/><path d="M250 87c18.79-1.326 38.192 4.739 53 16.375 16.387 14.528 27.235 32.552 29 54.625.302 7.267.19 14.542.125 21.813-.01 1.964-.02 3.928-.027 5.892-.022 4.765-.057 9.53-.098 14.295-6.729-2-13.434-4.064-20.125-6.188A2182604912.049 2182604912.049 0 0 1 303 191l-.044-3.162c-.059-3.908-.136-7.816-.218-11.724-.033-1.685-.062-3.37-.084-5.054-.1-12.832-.1-12.832-3.654-25.06l-.846-2.07c-4.758-11.401-15.094-19.57-26.216-24.243-7.109-2.44-14.492-2.5-21.938-2.687v-1h6V88h-6v-1Z" fill="#25C2E6"/><path d="M367 321c.127 7.507.215 15.014.275 22.522.025 2.55.059 5.102.102 7.652.061 3.68.09 7.357.111 11.037l.078 3.423c.004 8.889-2.083 15.543-8.128 22.178-8.619 6.257-20.318 8.937-30.313 12.188A1043.192 1043.192 0 0 0 300 410c-4.44 1.584-8.886 3.15-13.336 4.705-1.299.454-2.596.912-3.892 1.373-1.906.676-3.815 1.342-5.725 2.008l-3.38 1.189C271 420 271 420 269 419l4.826-4.52c1.427-1.338 2.853-2.678 4.278-4.019a950.672 950.672 0 0 1 11.392-10.563c8.505-7.783 15.795-15.52 22.504-24.898 7.457-10.02 15.048-19.867 24.637-27.957 3.199-2.765 6.275-5.655 9.363-8.543 4.418-4.125 8.867-8.193 13.453-12.133 1.365-1.206 2.65-2.5 3.922-3.805C365 321 365 321 367 321Z" fill="#085B8E"/><path d="M305 211c1.918-.019 3.836-.032 5.754-.043l3.236-.024c5.21.116 8.686.959 12.697 4.317 3.905 4.643 6.748 9.395 9.188 14.918 1.433 2.333 2.802 3.371 5.125 4.832 2.775.664 2.775.664 5.824.914l3.365.367 3.498.344c2.296.239 4.592.48 6.887.727 1.017.1 2.034.202 3.081.307C366 238 366 238 367 239c1.287 4.665 1.405 8.352 0 13-3.906 4.514-9.454 7.423-14.51 10.473-4.08 2.503-7.992 5.242-11.928 7.964l-2.375 1.62c-7.174 4.89-14.214 9.958-21.234 15.068a532.856 532.856 0 0 0-5.951 4.36C306.217 295 306.217 295 304 295l.367-1.844c5.306-27.753 3.22-54.235.633-82.156Z" fill="#19B3E0"/><path d="M265.922 267.031C272.894 270.834 277.49 276.47 280 284c.871 8.288.048 14.28-5 21-1.587 1.92-3.075 3.388-5 5h-2l.08 3.118c.09 3.835.147 7.67.195 11.506.025 1.657.059 3.313.102 4.97.061 2.388.09 4.775.111 7.164l.078 2.226c.003 3.909-.51 6.443-2.909 9.469-3.72 3.567-6.577 3.846-11.66 3.762-2.986-.321-4.7-1.312-6.997-3.215-3.195-4.181-3.403-7.842-3.293-12.926l.013-2.265c.017-2.374.054-4.748.093-7.122.015-1.615.028-3.23.04-4.845.033-3.948.085-7.895.147-11.842l-1.898-.903c-4.602-2.402-7.35-6.902-9-11.718-1.38-6.316-1.731-12.367.898-18.379 7.876-11.17 18.248-16.795 31.922-11.969Z" fill="#202437"/><path d="M253 211h3v55l-10 2c-5.347 3.266-10.068 7.963-12 14-1.567 7.138-1.117 13.344 2 20 2.213 3.238 4.45 6.225 8 8v11a161.805 161.805 0 0 1-16.48 7.383l-2.352.91c-2.45.948-4.903 1.89-7.356 2.832l-4.966 1.918c-2.332.9-4.663 1.801-6.996 2.698l-2.105.81-1.967.75a110.39 110.39 0 0 0-4.596 1.956C195 341 195 341 192 340l1.079-2.294c1.705-3.63 3.408-7.261 5.108-10.894l.95-2.026c4.681-10.01 9.25-20.064 13.738-30.161 3.54-7.96 7.13-15.863 11.112-23.612 3.066-6.003 5.842-12.131 8.638-18.263 6.439-14.097 13.364-27.931 20.375-41.75Z" fill="#E4E6E5"/><path d="M256 88v28c-13 3-13 3-18 3-2.238-2.625-2.238-2.625-4.313-6l-2.113-3.375L230 107c-4.021 3.968-7.903 8.05-11.75 12.188l-1.785 1.904-1.7 1.826-1.537 1.65c-1.33 1.434-1.33 1.434-2.228 3.432h-2l-.77 1.766c-1.363 2.476-2.872 4.04-4.917 5.984-2.735 2.66-5.332 5.352-7.813 8.25-3.612 4.185-7.312 8.38-11.5 12h-2l-1 8h-1c-.778-19.744 6.07-36.99 19-52 9.726-10.245 21.766-17.256 35-22l2.035-.746C242.751 87.186 248.645 88 256 88Z" fill="#F4F5F4"/><path d="M256 373v51c-8.993-1.124-8.993-1.124-13.23-2.715l-2.893-1.066-3.065-1.156c-2.2-.812-4.4-1.622-6.601-2.43l-3.513-1.292c-6.56-2.379-13.16-4.64-19.76-6.904l-3.894-1.337A9528.517 9528.517 0 0 0 194 404l1.806-.896c2.378-1.196 4.72-2.454 7.064-3.717 13.146-7.077 26.52-13.637 40.037-19.974C246.382 377.774 252.399 373 256 373Z" fill="#B1B6B9"/><path d="M351 302h16c1.207 16.786 1.207 16.786-1.29 21.363-1.835 1.512-1.835 1.512-4.03 2.91-3.632 2.34-6.565 5.25-9.68 8.227-3.664 3.427-7.332 6.84-11.125 10.125l-1.84 1.61a417.274 417.274 0 0 1-4.726 4.03c-8.17 7.116-14.51 15.101-20.904 23.822a410.554 410.554 0 0 1-5.592 7.413l-1.543 2.031C305 385 305 385 303 386c-1.296-2.591-1.406-4.858-1.719-7.742l-.386-3.48-.395-3.653c-.258-2.373-.518-4.745-.781-7.117l-.346-3.199c-.311-2.346-.736-4.534-1.373-6.809 9.102.519 18.013 1.462 27 3v-3h2l.798-2.54c1.286-3.7 2.812-7.247 4.432-10.808l.95-2.1c.664-1.464 1.329-2.927 1.995-4.39.997-2.191 1.987-4.386 2.975-6.582A355.567 355.567 0 0 1 351 302Z" fill="#0B71A6"/><path d="M145 320c4.325 1.442 8.161 2.911 12.254 4.828l3.592 1.676 3.716 1.746A3293.912 3293.912 0 0 0 192 341c-3.8 3.177-8.118 5.194-12.527 7.379l-2.503 1.25c-1.743.87-3.487 1.739-5.232 2.605a3211.416 3211.416 0 0 0-7.986 3.983l-5.092 2.537-2.402 1.2-2.266 1.122c-.651.324-1.303.649-1.975.982-2.298 1.073-4.662 2-7.017 2.942v-45Z" fill="#DBDDDD"/><path d="M144 239h1l1 125 16-8c8-4 8-4 11-4-.094 5.16-.2 10.32-.317 15.479a1370.55 1370.55 0 0 0-.105 5.26c-.046 2.528-.104 5.054-.164 7.581l-.035 2.359c-.12 4.466-.71 8.11-2.379 12.321-10.084-2.542-16.929-5.593-22.773-14.426-3.638-7.634-3.504-15.215-3.454-23.508v-3.875c-.002-3.485.01-6.97.024-10.455.013-3.65.014-7.3.016-10.95.006-6.903.023-13.805.043-20.707.022-7.862.033-15.725.043-23.587.021-16.164.056-32.328.101-48.492Z" fill="#B4B8BB"/><path d="M331 158h1v42c-11.25-3.375-11.25-3.375-15.133-4.605l-2.262-.716-2.73-.867L303 191v-23c9.334-2.617 18.365-4.765 28-6v-4Z" fill="#158ABD"/><path d="M209 175v16l-3.402.953c-7.819 2.225-15.233 4.559-22.598 8.047h-2c2.035-4.475 5.044-7.387 8.5-10.813l1.892-1.883C203.976 175 203.976 175 209 175Z" fill="#CACCCE"/><path d="m322 165-5 19c-5.166-2.067-9.99-4.058-14-8-.802-3.014-.489-4.85 0-8 2.414-.7 4.83-1.385 7.25-2.063l2.066-.603c3.86-1.068 5.7-1.33 9.684-.334Z" fill="#179ECE"/><path d="M366 273h1v29h-16l3.563-6.625c3.956-7.389 7.73-14.858 11.437-22.375Z" fill="#1385B7"/><path d="M255 90h1v26l-15 3c1.321-3.964 2.402-7.033 4.313-10.602.435-.82.87-1.64 1.32-2.484l1.367-2.539 2.688-5.04 1.199-2.232c1.069-2.02 2.1-4.055 3.113-6.103Z" fill="#D9E0E2"/><path d="M256 210c8.042-.042 16.084-.082 24.126-.104 3.744-.01 7.49-.024 11.234-.047 3.605-.022 7.21-.034 10.815-.039a804.75 804.75 0 0 0 4.131-.021 781.33 781.33 0 0 1 5.776-.016l3.324-.014C318 210 318 210 320 212l-2.226-.02c-6.916-.06-13.832-.106-20.748-.135-3.556-.016-7.112-.037-10.668-.071-4.085-.04-8.17-.054-12.256-.067l-3.88-.047h-3.579l-3.163-.02-2.48.36-2 3-1-1-1 51h-1v-55Z" fill="#4BC2DB"/><path d="M316 185c3.01 2.852 5.256 5.244 7 9l2 1-1 2c-6.01-1.63-12.017-3.271-18-5l1.625-.688c3.16-1.746 5.643-3.952 8.375-6.312Z" fill="#147DAF"/><path d="m98 73 2 1-22 22-2-1c11.005-12.32 11.005-12.32 17.344-17.598C94.987 76.011 96.499 74.542 98 73Z" fill="#7B9AB7"/><path d="M303 296h3c1.27 3.81.52 5.816-.438 9.688l-.87 3.574L304 312h-1v-16Z" fill="#0D77A7"/><path d="m185 194 1 3c-1.375 1.5-1.375 1.5-3 3h-2c1.152-2.468 2.048-4.048 4-6Z" fill="#C3C6C6"/><path d="M257 210h7v2h-3l-2 3-2-5Z" fill="#23B7D9"/><path d="M275.688 415.75 279 416c-2.952 2.952-5.955 3.087-10 4 1.896-3.569 2.52-3.967 6.688-4.25Z" fill="#106494"/></svg>