<svg xmlns="http://www.w3.org/2000/svg" width="48" height="48"><g fill="#0FF"><path d="M23.682 10.191l-7.99 4.625V5.568zM24.006.385l.047 9.246-8.035-4.623zM24.006 10.752L24.053 20l-8.035-4.623zM24.98 10.193l7.989-4.625v9.248zM24.656 20v-9.246l8.033 4.622zM24.656 9.631L24.609.385l8.036 4.623z"/></g><g fill="#0FF"><path d="M8.325 37.026L.336 41.65v-9.247zM8.65 27.219l.046 9.248-8.035-4.625zM8.65 37.587l.046 9.247-8.035-4.623zM9.624 37.028l7.988-4.624v9.247zM9.3 46.834v-9.245l8.033 4.622zM9.3 36.467l-.047-9.248 8.035 4.625z"/></g><g fill="#0FF"><path d="M38.548 37.027l-7.989 4.623v-9.247zM38.872 27.219l.047 9.248-8.035-4.625zM38.872 37.588l.047 9.246-8.035-4.623zM39.847 37.028l7.989-4.624v9.248zM39.522 46.834v-9.245l8.034 4.622zM39.522 36.467l-.046-9.248 8.035 4.625z"/></g><path fill="#0FF" d="M39.5 26.34c-.721 0-1.5-.586-1.5-1.307V12h-2.042c-.722 0-1.307-.779-1.307-1.5 0-.722.585-1.5 1.307-1.5h4.156c.722 0 .886.23.886.953v15.08c0 .721-.777 1.307-1.5 1.307zM28.308 38h-8.075c-.721 0-1.306-.78-1.306-1.501S19.512 35 20.232 35h8.075c.722 0 1.307.778 1.307 1.499S29.029 38 28.308 38zM8.5 26.34c-.722 0-1.5-.586-1.5-1.307V9.953C7 9.23 7.705 9 8.427 9h4.156c.722 0 1.306.778 1.306 1.5 0 .721-.584 1.5-1.306 1.5H10v13.033c0 .721-.778 1.307-1.5 1.307z"/></svg>