<svg xmlns="http://www.w3.org/2000/svg" xmlns:xlink="http://www.w3.org/1999/xlink" viewBox="75 370 1850 1150" style="background:#202336"><defs><linearGradient id="linear-gradient" x1="187.45" y1="1437.43" x2="406.03" y2="1437.43" gradientUnits="userSpaceOnUse"><stop offset="0" stop-color="#a5aaca"/><stop offset=".6" stop-color="#e3e4ee"/><stop offset="1" stop-color="#d3d6e5"/></linearGradient><linearGradient id="linear-gradient-2" x1="187.09" y1="1421.79" x2="406.21" y2="1421.79" gradientUnits="userSpaceOnUse"><stop offset="0" stop-color="#029da3"/><stop offset=".6" stop-color="#70ffff"/><stop offset="1" stop-color="#01e7e8"/></linearGradient><linearGradient id="linear-gradient-3" x1="187.09" y1="1415.39" x2="406.21" y2="1415.39" xlink:href="#linear-gradient"/><linearGradient id="linear-gradient-4" x1="187.45" y1="1378.88" x2="406.03" y2="1378.88" gradientTransform="rotate(89.69 296.745 1378.87)" gradientUnits="userSpaceOnUse"><stop offset="0" stop-color="#f2f3f7"/><stop offset="1" stop-color="#e3e4ee"/></linearGradient><linearGradient id="linear-gradient-5" x1="299.68" y1="1273.07" x2="294.74" y2="1464.5" gradientUnits="userSpaceOnUse"><stop offset="0" stop-color="#70ffff" stop-opacity="0"/><stop offset="1" stop-color="#0ff" stop-opacity=".2"/></linearGradient><linearGradient id="linear-gradient-6" x1="1065.67" y1="1437.43" x2="1284.26" y2="1437.43" xlink:href="#linear-gradient"/><linearGradient id="linear-gradient-7" x1="1065.32" y1="1421.79" x2="1284.44" y2="1421.79" xlink:href="#linear-gradient-2"/><linearGradient id="linear-gradient-8" x1="1065.32" y1="1415.39" x2="1284.44" y2="1415.39" xlink:href="#linear-gradient"/><linearGradient id="linear-gradient-9" x1="1065.67" y1="1378.88" x2="1284.26" y2="1378.88" gradientTransform="rotate(89.69 1174.967 1378.86)" xlink:href="#linear-gradient-4"/><linearGradient id="linear-gradient-10" x1="1177.9" y1="1273.07" x2="1172.96" y2="1464.5" xlink:href="#linear-gradient-5"/><linearGradient id="linear-gradient-11" x1="1065.67" y1="685.26" x2="1284.26" y2="685.26" xlink:href="#linear-gradient"/><linearGradient id="linear-gradient-12" x1="1065.32" y1="669.62" x2="1284.44" y2="669.62" xlink:href="#linear-gradient-2"/><linearGradient id="linear-gradient-13" x1="1065.32" y1="663.22" x2="1284.44" y2="663.22" xlink:href="#linear-gradient"/><linearGradient id="linear-gradient-14" x1="1065.67" y1="626.71" x2="1284.26" y2="626.71" gradientTransform="rotate(89.69 1174.961 626.695)" xlink:href="#linear-gradient-4"/><linearGradient id="linear-gradient-15" x1="1177.9" y1="520.9" x2="1172.96" y2="712.33" xlink:href="#linear-gradient-5"/><linearGradient id="linear-gradient-16" x1="187.45" y1="685.26" x2="406.03" y2="685.26" xlink:href="#linear-gradient"/><linearGradient id="linear-gradient-17" x1="187.09" y1="669.62" x2="406.21" y2="669.62" xlink:href="#linear-gradient-2"/><linearGradient id="linear-gradient-18" x1="187.09" y1="663.22" x2="406.21" y2="663.22" xlink:href="#linear-gradient"/><linearGradient id="linear-gradient-19" x1="187.45" y1="626.71" x2="406.03" y2="626.71" gradientTransform="rotate(89.69 296.744 626.7)" xlink:href="#linear-gradient-4"/><linearGradient id="linear-gradient-20" x1="299.68" y1="520.9" x2="294.74" y2="712.33" xlink:href="#linear-gradient-5"/><linearGradient id="linear-gradient-21" x1="1587.92" y1="1049.76" x2="1806.5" y2="1049.76" xlink:href="#linear-gradient"/><linearGradient id="linear-gradient-22" x1="1587.56" y1="1034.12" x2="1806.68" y2="1034.12" xlink:href="#linear-gradient-2"/><linearGradient id="linear-gradient-23" x1="1587.56" y1="1027.72" x2="1806.68" y2="1027.72" xlink:href="#linear-gradient"/><linearGradient id="linear-gradient-24" x1="1587.92" y1="991.21" x2="1806.5" y2="991.21" gradientTransform="rotate(89.69 1697.205 991.193)" xlink:href="#linear-gradient-4"/><linearGradient id="linear-gradient-25" x1="1700.14" y1="885.4" x2="1695.2" y2="1076.83" xlink:href="#linear-gradient-5"/><radialGradient id="areaOfInterest" cx="50%" cy="50%" r="50%" fx="50%" fy="50%"><stop offset="0%" style="stop-color:#202336;stop-opacity:1"/><stop offset="91%" style="stop-color:#272936;stop-opacity:1"/><stop offset="100%" style="stop-color:#0ff;start-opacity:0"/></radialGradient><style>.cls-19,.cls-2{fill:#202336}.cls-21{opacity:.5;mix-blend-mode:multiply;fill:#494f78}.cls-5{fill:#02b6ba}.cls-6{fill:#ebffff}.cls-15,.cls-20,.cls-7,.cls-8{fill:#0ff}.cls-7{opacity:.2}.cls-8{opacity:.3}.cls-15{font-size:34.74px;font-family:&quot;Roboto&quot;,&quot;Helvetica&quot;,&quot;Arial&quot;,sans-serif;font-weight:700}.cls-19{fill-rule:evenodd}.cls-22{font-size:37.65px;letter-spacing:-.01em}.cls-22,.cls-36{fill:#fff}.cls-22{font-family:&quot;Roboto&quot;,&quot;Helvetica&quot;,&quot;Arial&quot;,sans-serif;font-weight:500}.cls-37{fill:#272936}</style></defs><g style="isolation:isolate"><g id="Layer_1" data-name="Layer 1"><path fill="#494f78" d="M1594.27 937.35l-240.49-154.53 22.49-11.51-59.59 2.6-11.17 33.62 22.49-11.51 240.5 154.52 25.77-13.19z" opacity=".5"/><path class="cls-5" d="M1594.27 917.35v-8l-240.49-146.53 22.49-11.51v-8l-59.59 10.6-11.17 25.62v8l22.49-11.51 240.5 154.52 25.77-13.19z"/><path class="cls-6" d="M1594.27 909.35l-240.49-154.53 22.49-11.51-59.59 2.6-11.17 33.62 22.49-11.51 240.5 154.52 25.77-13.19z"/><ellipse class="cls-7" cx="296.79" cy="1429.01" rx="90.64" ry="156.99" transform="rotate(-89.69 296.78 1429.006)"/><ellipse class="cls-8" cx="296.79" cy="1429.01" rx="74.12" ry="128.38" transform="rotate(-89.69 296.78 1429.006)"/><path d="M374.26 1465.64c-42.54 24.57-111.74 24.44-154.56-.28-22.36-12.91-33.1-30-32.2-46.84a245 245 0 00-.05-27.63l218.55 2.22s-.17 11.69 0 27.77-10.38 32.43-31.74 44.76z" fill="url(#linear-gradient)"/><path d="M374.26 1444.27c-42.54 24.56-111.74 24.44-154.56-.28-20.5-11.84-31.24-27.17-32.18-42.64-1-16.82.14-20.37.14-20.37l218.25 1.71s.6 1.74.11 18.31c-.47 15.72-11.02 31.32-31.76 43.27z" fill="url(#linear-gradient-2)"/><path d="M374.26 1437.87c-42.54 24.56-111.74 24.44-154.56-.28-20.5-11.84-31.24-27.17-32.18-42.64-1-16.82.14-20.37.14-20.37l218.25 1.71s.6 1.74.11 18.31c-.47 15.72-11.02 31.32-31.76 43.27z" fill="url(#linear-gradient-3)"/><ellipse cx="296.74" cy="1378.88" rx="63.1" ry="109.29" transform="rotate(-89.69 296.73 1378.875)" fill="url(#linear-gradient-4)"/><path class="cls-21" d="M1327.76 1353.92l247.8-195.12 24.26 10.42-16.96-33.15-59.36.36 24.26 10.42-247.8 195.12 27.8 11.95z"/><path class="cls-5" d="M1327.76 1333.92l247.8-195.12 24.26 10.42v-8l-76.32-32.79v8l24.26 10.42-247.8 187.12v8l27.8 11.95z"/><path class="cls-6" d="M1327.76 1325.92l247.8-195.12 24.26 10.42-16.96-33.15-59.36.36 24.26 10.42-247.8 195.12 27.8 11.95z"/><path d="M361.68 1416.37c-35.64 20.58-93.61 20.48-129.48-.23-12.42-7.17-20.56-15.88-24.41-25.05-7.28-17.3-138.52-121.27-138.52-121.27l461-.35s-144.13 122-146.59 126.34c-4.32 7.52-11.68 14.59-22 20.56z" fill="url(#linear-gradient-5)"/><ellipse cx="296.74" cy="1378.88" rx="52.86" ry="91.56" transform="rotate(-89.69 296.73 1378.875)" fill="url(#areaOfInterest)"/><text xmlns="http://www.w3.org/2000/svg" class="cls-15" transform="translate(133.58 1246.57)" style="fill:#fff">FLUX Liquidity Pools</text><text xmlns="http://www.w3.org/2000/svg" class="cls-15" transform="translate(163.2 1286)" style="font-size:25px;fill:#fff"><tspan xmlns="http://www.w3.org/2000/svg" style="fill:#bfbfc3">Uniswap, Balancer, etc...</tspan></text><text xmlns="http://www.w3.org/2000/svg" class="cls-15" transform="translate(1074.2 1286)" style="font-size:25px;fill:#fff"><tspan xmlns="http://www.w3.org/2000/svg" style="fill:#bfbfc3">Outside Of Pools</tspan></text><text xmlns="http://www.w3.org/2000/svg" class="cls-15" transform="translate(1087.2 530)" style="font-size:25px;fill:#fff"><tspan xmlns="http://www.w3.org/2000/svg" style="fill:#bfbfc3">&gt;70% Of Supply</tspan></text><text xmlns="http://www.w3.org/2000/svg" class="cls-15" transform="translate(1607.2 888)" style="font-size:25px;fill:#fff"><tspan xmlns="http://www.w3.org/2000/svg" style="fill:#bfbfc3">&gt;60% Of Supply</tspan></text><path class="cls-2" d="M243.94 1350c-.88-.14-.92-.16-.51-.22a13.58 13.58 0 013.95.35c3 .71 5.74 2.53 8.66 5.76l.78.86 1.11-.18a23.58 23.58 0 0113.41 1.67 18.2 18.2 0 013 1.76 4.46 4.46 0 01.28 1.18 7.22 7.22 0 01-.45 4.55 1.18 1.18 0 00-.12 1.32 1.28 1.28 0 001.14.72c1 0 2-1.59 2.55-3.8l.19-.88.39.44a16.89 16.89 0 014.09 8l.07.6-.36-.55a6.72 6.72 0 00-2-2.11c-1.43-.94-2.94-1.26-6.94-1.47a28.71 28.71 0 01-7.68-1.15c-3.45-1.12-5.18-2.61-9.28-7.95a39.34 39.34 0 00-4.06-4.74 14.54 14.54 0 00-8.22-4.16z" style="fill:#fd78b8"/><path class="cls-2" d="M275.19 1355.29a9.46 9.46 0 01.74-3.59 3.34 3.34 0 01.36-.69 2.51 2.51 0 01-.17.62 8.2 8.2 0 00-.15 3.68c.28 1.87.44 2.14 2.43 4.17a35.73 35.73 0 012.42 2.67l.72.93-.72-.67a30.36 30.36 0 00-3.34-2.64c-.3-.15-.34-.15-.53 0s-.2.42-.23 1.62a9 9 0 01-.9 4.25c-.34.64-.39.5-.09-.22.23-.55.25-.79.25-2.59 0-3.62-.44-4.49-3-6-.65-.38-1.7-.92-2.35-1.21a8.12 8.12 0 01-1.15-.56 25.21 25.21 0 013.54 1c1.48.57 1.72.64 1.9.57s.21-.31.27-1.34zm-29.55 6.19a14.74 14.74 0 01-2.65-9l.08-.86.4.07a10.17 10.17 0 012.69 1c1.69 1 2.42 2.36 3.16 5.8.22 1 .51 2.15.64 2.54a16.92 16.92 0 001.66 3c.47.68.16 1-.88.91-1.58-.1-3.74-1.57-5.1-3.46zm27.36 18.14c-8.33-3.33-11.26-6.22-11.26-11.1a8.12 8.12 0 01.05-1.3 5.43 5.43 0 01.72.52c1.69 1.35 3.58 1.92 8.81 2.68a36.57 36.57 0 016.41 1.34c5.08 1.67 8.23 5.07 9 9.7a15.7 15.7 0 01-.27 5.2 9.84 9.84 0 01-1.35 3c-.06 0-.12-.22-.14-.54a6.72 6.72 0 00-2.45-4.7c-1.68-1.42-3.95-2.58-9.52-4.8zm-5.82 1.38a13 13 0 00-.4-1.75l-.21-.63.39.44a6.89 6.89 0 011.34 2.43 8.78 8.78 0 010 4.55 7.09 7.09 0 01-1.76 2.78 10 10 0 01-6.3 2.74c-.49.07-1.92.17-3.17.23A25.28 25.28 0 00250 1393a1.82 1.82 0 01-.53.13 9.73 9.73 0 012.25-1.34 22 22 0 016.28-1.65c1.63-.27 3.32-.6 3.75-.73 4.01-1.27 6.1-4.41 5.43-8.41z" style="fill:#fd78b8"/><path class="cls-2" d="M271 1387.74a9.54 9.54 0 01-.76-6.77c.07-.23.17-.41.24-.41a2.38 2.38 0 01.58.31c.51.34 1.53.91 4.25 2.39 3.4 1.84 5.34 3.27 6.65 4.9a10.59 10.59 0 012.22 5 17.17 17.17 0 01-.21 5 12.31 12.31 0 01-6.07 8 7.89 7.89 0 01-.88.44 2.73 2.73 0 01.36-.91 8.17 8.17 0 00.36-6.47 27.29 27.29 0 00-3.38-6 39.83 39.83 0 01-3.36-5.48zm-31.27 12.76a22.47 22.47 0 0110.43-5 16.34 16.34 0 015.42.2 9.31 9.31 0 015.29 3.37c1 1.49 1.45 2.78 1.91 5.66.18 1.14.37 2.28.43 2.54a5.61 5.61 0 001.83 3.28c1.31 1 3.56 1 5.78.16a3 3 0 01.73-.23 6.62 6.62 0 01-1.83 1.21 6.18 6.18 0 01-3 .73c-2 0-3.71-1-5.12-3.11a24.3 24.3 0 01-1.38-2.75c-1.49-3.36-2.22-4.39-3.94-5.51a5.1 5.1 0 00-4.89-.44 3.14 3.14 0 00-1.08 4.9 4.23 4.23 0 002.39 1.24 2.55 2.55 0 002.89-2.54 2 2 0 00-1.38-2c-1.35-.6-2.79.1-2.78 1.36a1.11 1.11 0 00.77 1.11c.35.16.36.17.07.11-1.23-.25-1.52-1.73-.53-2.71 1.2-1.18 3.66-.66 4.5 1a4.09 4.09 0 01.09 2.83 3.94 3.94 0 01-4.77 2.26c-1.39-.36-2-.74-3.64-2.47-2.93-3-4.07-3.57-8.28-4.23l-.81-.12z" style="fill:#fd78b8"/><path class="cls-19" d="M226 1346.88c9.77 11.79 16.5 16.65 17.25 17.68.62.85.38 1.61-.68 2.21a6.41 6.41 0 01-2.4.67 1.24 1.24 0 01-.92-.27c-.4-.37-.62-.31-2.66-3.9-2.83-4.37-5.2-8-5.26-8s-.15-.14 5 9a3.24 3.24 0 01.17 2.87c0 .55-.15.84-.84 1.6-1.14 1.26-1.64 2.68-2 5.61-.41 3.29-1.57 5.62-4.78 9.6a18.45 18.45 0 00-2.66 3.69 6.78 6.78 0 00-.83 3.34 10.42 10.42 0 00.55 4.1 14.87 14.87 0 002 3.94 9.19 9.19 0 011.55 3.06c0 .35.06.35 1.58 0 3.62-.81 6.57-2.24 8.23-4a3.78 3.78 0 001.27-3.17 3.07 3.07 0 00-.3-1.74c-.43-.91-1.21-1.67-2.94-2.84-2.27-1.54-3.23-2.78-3.5-4.49-.22-1.39 0-2.38 1.29-5a14.92 14.92 0 001.83-6.58c.14-1.76.34-2.45.85-3a3.19 3.19 0 012.32-1 7.94 7.94 0 004.62-1.86 4 4 0 001.44-3l.05-1-.54-.63c-2-2.28-21-18.63-21.09-18.63s.58.76 1.4 1.74zm4.55 45.8a1.72 1.72 0 00-.54-2.28c-.7-.46-1.79-.24-1.79.36 0 .19.1.32.33.44.39.2.42.42.12.88s-.29.87.07 1.15a1.22 1.22 0 001.81-.55zm16.99-21.93a3.74 3.74 0 00-2.28 2.47 3.5 3.5 0 00.19 2.23c.45.6.88.75 2.05.75 2.29 0 4.28-1 4.51-2.22a3.24 3.24 0 00-1.89-3 4.49 4.49 0 00-2.58-.23zm2.68 2.08a.92.92 0 00-.4-1.4c-1.15-.7-2.88-.12-2.88 1 0 .53.91 1.12 1.73 1.12a2.28 2.28 0 001.55-.72z" style="fill:#fd78b8"/><circle class="cls-2" cx="336.21" cy="1380.36" r="33.7"/><ellipse class="cls-20" cx="336.21" cy="1368.8" rx="11.23" ry="4.58" style="fill:#fff"/><path class="cls-20" d="M351.84 1377.19c0 3.53-7 6.39-15.63 6.39s-15.64-2.86-15.64-6.39c0-1.75 1.72-3.34 4.51-4.47 2.67 1.65 7 2.52 11.13 2.52s8.47-.87 11.16-2.52c2.76 1.15 4.47 2.74 4.47 4.47z" style="fill:#fff"/><path class="cls-20" d="M356.79 1386.19c0 4.63-9.21 8.4-20.58 8.4s-20.58-3.77-20.58-8.4c0-2.14 2-4.11 5.2-5.59 2.89 2.82 9.29 4.32 15.38 4.32s12.48-1.5 15.38-4.32c3.23 1.48 5.2 3.45 5.2 5.59z" style="fill:#fff"/><path class="cls-21" d="M976.52 1441.61l-51.27-22.52.08 14.26-378.22-.69-.07-14.26-51.02 22.34 51.26 22.52-.08-14.26 378.22.68.08 14.26 51.02-22.33z"/><path class="cls-5" d="M976.52 1421.61v-8l-51.27-14.52.08 14.26-378.22-.69-.07-14.26-51.02 14.34v8l51.26 22.52-.08-14.26 378.22.68.08 14.26 51.02-22.33z"/><path class="cls-6" d="M976.52 1413.61l-51.27-22.52.08 14.26-378.22-.69-.07-14.26-51.02 22.34 51.26 22.52-.08-14.26 378.22.68.08 14.26 51.02-22.33z"/><path class="cls-21" d="M976.52 689.09l-51.27-22.52.08 14.26-378.22-.69-.07-14.26-51.02 22.34 51.26 22.52-.08-14.26 378.22.69.08 14.25 51.02-22.33z"/><path class="cls-5" d="M976.52 669.09v-8l-51.27-14.52.08 14.26-378.22-.69-.07-14.26-51.02 14.34v8l51.26 22.52-.08-14.26 378.22.69.08 14.25 51.02-22.33z"/><path class="cls-6" d="M976.52 661.09l-51.27-22.52.08 14.26-378.22-.69-.07-14.26-51.02 22.34 51.26 22.52-.08-14.26 378.22.69.08 14.25 51.02-22.33z"/><text class="cls-22" transform="matrix(.99 0 0 1 682.26 1490.14)" style="fill:#bfbfc3">Trade</text><text class="cls-22" transform="matrix(.99 0 0 1 691.25 735.02)" style="fill:#bfbfc3">Trade</text><text transform="matrix(.84 .56 -.85 .53 1350.16 846.27)" font-size="37.18" font-weight="500" fill="#fff" style="fill:#bfbfc3;font-family:&quot;Roboto&quot;,&quot;Helvetica&quot;,&quot;Arial&quot;,sans-serif">Benefits</text><text transform="matrix(0 -.95 1 0 1234.54 1033.98)" font-size="38.54" font-weight="500" fill="#fff" style="fill:#bfbfc3;font-family:&quot;Roboto&quot;,&quot;Helvetica&quot;,&quot;Arial&quot;,sans-serif">Mints</text><text transform="matrix(-.01 -.95 1 0 367.67 1132.98)" font-size="38.54" font-weight="500" fill="#fff" style="fill:#bfbfc3;font-family:&quot;Roboto&quot;,&quot;Helvetica&quot;,&quot;Arial&quot;,sans-serif">DAM / FLUX Pair</text><ellipse class="cls-7" cx="1175.01" cy="1429.01" rx="90.64" ry="156.99" transform="rotate(-89.69 1174.998 1429.011)"/><ellipse class="cls-8" cx="1175.01" cy="1429.01" rx="74.12" ry="128.38" transform="rotate(-89.69 1174.998 1429.011)"/><path d="M1252.49 1465.64c-42.55 24.57-111.75 24.44-154.56-.28-22.37-12.91-33.11-30-32.2-46.84a246.24 246.24 0 00-.06-27.63l218.59 2.22s-.18 11.69 0 27.77-10.41 32.43-31.77 44.76z" fill="url(#linear-gradient-6)"/><path d="M1252.49 1444.27c-42.55 24.56-111.75 24.44-154.56-.28-20.51-11.84-31.24-27.17-32.19-42.64-1-16.82.15-20.37.15-20.37l218.24 1.71s.61 1.74.11 18.31c-.47 15.72-11.05 31.32-31.75 43.27z" fill="url(#linear-gradient-7)"/><path d="M1252.49 1437.87c-42.55 24.56-111.75 24.44-154.56-.28-20.51-11.84-31.24-27.17-32.19-42.64-1-16.82.15-20.37.15-20.37l218.24 1.71s.61 1.74.11 18.31c-.47 15.72-11.05 31.32-31.75 43.27z" fill="url(#linear-gradient-8)"/><ellipse cx="1174.97" cy="1378.88" rx="63.1" ry="109.29" transform="rotate(-89.69 1174.952 1378.875)" fill="url(#linear-gradient-9)"/><path d="M1239.91 1416.37c-35.65 20.58-93.61 20.48-129.48-.23-12.42-7.17-20.56-15.88-24.42-25.05-7.28-17.3-138.52-121.27-138.52-121.27l461-.35s-144.12 122-146.59 126.34c-4.31 7.52-11.64 14.59-21.99 20.56z" fill="url(#linear-gradient-10)"/><ellipse cx="1174.97" cy="1378.88" rx="52.86" ry="91.56" transform="rotate(-89.69 1174.952 1378.875)" fill="url(#areaOfInterest)"/><path class="cls-36" d="M1168 1363.87l13.58 7.86.06-15.72zm0-17.38l13.58 7.86.06-15.72zm15 8.57l13.58 7.86.06-15.72zm-1.47 36.19l-13.58 7.86 13.64 7.86z"/><path class="cls-37" d="M1167.91 1381.49l13.65 7.86v-15.72zm15.11 9.31l13.66 7.86v-15.72zm-30.14-17.72l13.65 7.86v-15.72zm-14.62-8.88l13.65 7.86v-15.72z" style="fill:#0ff"/><path class="cls-36" d="M1167.43 1382.44v15.72l13.65-7.86zm0 17.71v15.71l13.65-7.86zm13.58-45.09l-13.58-7.86v15.72zm15.31-8.9l-13.58-7.86v15.7zm15.35 8.9l-13.57-7.86v15.72z"/><path class="cls-37" d="M1167.43 1364.82v15.72l13.58-7.86zm14.89 9.17v15.72l13.58-7.86zm15.31 9v15.72l13.58-7.86zm-44.72-26.6v15.72l13.58-7.86z" style="fill:#0ff"/><ellipse class="cls-7" cx="1175.01" cy="676.84" rx="90.64" ry="156.99" transform="rotate(-89.69 1175.003 676.846)"/><ellipse class="cls-8" cx="1175.01" cy="676.84" rx="74.12" ry="128.38" transform="rotate(-89.69 1175.003 676.846)"/><path d="M1252.49 713.47c-42.55 24.56-111.75 24.44-154.56-.28-22.37-12.91-33.11-30-32.2-46.84a246.16 246.16 0 00-.06-27.63l218.59 2.22s-.18 11.69 0 27.77-10.41 32.43-31.77 44.76z" fill="url(#linear-gradient-11)"/><path d="M1252.49 692.1c-42.55 24.56-111.75 24.44-154.56-.28-20.51-11.84-31.24-27.17-32.19-42.64-1-16.82.15-20.38.15-20.38l218.24 1.72s.61 1.74.11 18.31c-.47 15.72-11.05 31.31-31.75 43.27z" fill="url(#linear-gradient-12)"/><path d="M1252.49 685.7c-42.55 24.56-111.75 24.44-154.56-.28-20.51-11.84-31.24-27.17-32.19-42.64-1-16.82.15-20.38.15-20.38l218.24 1.72s.61 1.74.11 18.31c-.47 15.72-11.05 31.31-31.75 43.27z" fill="url(#linear-gradient-13)"/><ellipse cx="1174.97" cy="626.71" rx="63.1" ry="109.29" transform="rotate(-89.69 1174.958 626.71)" fill="url(#linear-gradient-14)"/><path d="M1239.91 664.2c-35.65 20.58-93.61 20.47-129.48-.23-12.42-7.18-20.56-15.88-24.42-25.05-7.28-17.3-138.52-121.27-138.52-121.27l461-.35s-144.12 122-146.59 126.34c-4.31 7.52-11.64 14.58-21.99 20.56z" fill="url(#linear-gradient-15)"/><ellipse cx="1174.97" cy="626.71" rx="52.86" ry="91.56" transform="rotate(-89.69 1174.958 626.71)" fill="url(#areaOfInterest)"/><text class="cls-15" transform="translate(1015.48 490)"><tspan style="fill:#fff">DAM Powering Validator</tspan></text><path class="cls-36" d="M1153.1 611.46l-11.74 6.8v-13.59zm.07 15.25l-11.81 6.8v-13.6zm-.07 15.29l-11.74 6.8v-13.6zm.48-14.42v13.6l-11.81-6.8zm0-30.49l.07 13.6-11.82-6.8zm0 15.25l.07 13.59-11.82-6.79zm0 30.49l.07 13.59-11.82-6.8zm1-32.14V597l11.74 6.8z"/><path class="cls-2" d="M1154.61 642.78l11.74 6.79-11.74 6.8z" style="fill:#0ff"/><path class="cls-36" d="M1155.09 611.46l11.74-6.79v13.59zm12.7 6.8v-13.59l11.74 6.79zm0 1.65l11.74 6.8-11.74 6.8zm0 15.24l11.74 6.8-11.74 6.8zm.48-16.06l11.75-6.8v13.59zm11.75 8.44v13.6l-11.75-6.8zm12.47-22.35v13.6l-11.74-6.8zm12.71 6.8l-11.75 6.8v-13.6zm-11.75 23.69l11.75 6.8-11.8 6.79zm11.81-8.45l-11.81 6.8v-13.59zm.42.83v13.59l-11.81-6.8zm0 15.31V657l-11.81-6.8zm-11.75-39l11.75-6.8v13.59zm11.75 8.44v13.6l-11.75-6.8z"/><ellipse class="cls-7" cx="296.79" cy="676.84" rx="90.64" ry="156.99" transform="rotate(-89.69 296.786 676.84)"/><ellipse class="cls-8" cx="296.79" cy="676.84" rx="74.12" ry="128.38" transform="rotate(-89.69 296.786 676.84)"/><path d="M374.26 713.47c-42.54 24.56-111.74 24.44-154.56-.28-22.36-12.91-33.1-30-32.2-46.84a244.89 244.89 0 00-.05-27.63L406 640.94s-.17 11.69 0 27.77-10.38 32.43-31.74 44.76z" fill="url(#linear-gradient-16)"/><path d="M374.26 692.1c-42.54 24.56-111.74 24.44-154.56-.28-20.5-11.84-31.24-27.17-32.18-42.64-1-16.82.14-20.38.14-20.38l218.25 1.72s.6 1.74.11 18.31c-.47 15.72-11.02 31.31-31.76 43.27z" fill="url(#linear-gradient-17)"/><path d="M374.26 685.7c-42.54 24.56-111.74 24.44-154.56-.28-20.5-11.84-31.24-27.17-32.18-42.64-1-16.82.14-20.38.14-20.38l218.25 1.72s.6 1.74.11 18.31c-.47 15.72-11.02 31.31-31.76 43.27z" fill="url(#linear-gradient-18)"/><ellipse cx="296.74" cy="626.71" rx="63.1" ry="109.29" transform="rotate(-89.69 296.736 626.71)" fill="url(#linear-gradient-19)"/><path xmlns="http://www.w3.org/2000/svg" d="M361.68 664.2c-35.68 20.58-93.61 20.47-129.48-.2-12.42-7.18-20.56-15.88-24.41-25.05-7.28-17.3-138.52-121.27-138.52-121.27l461-.35s-144.13 122-146.59 126.34c-4.32 7.49-11.68 14.55-22 20.53z" fill="url(#linear-gradient-20)"/><ellipse xmlns="http://www.w3.org/2000/svg" cx="296.74" cy="626.71" rx="52.86" ry="91.56" transform="rotate(-89.69 296.736 626.71)" fill="url(#areaOfInterest)"/><text xmlns="http://www.w3.org/2000/svg" class="cls-15" transform="translate(150.2 490)"><tspan xmlns="http://www.w3.org/2000/svg" style="fill:#fff">DAM Liquidity Pools</tspan></text><text xmlns="http://www.w3.org/2000/svg" class="cls-15" transform="translate(1042.2 1246.57)"><tspan xmlns="http://www.w3.org/2000/svg" style="fill:#fff">Stored FLUX (M1)</tspan></text><text xmlns="http://www.w3.org/2000/svg" class="cls-15" transform="translate(174.2 531)" style="font-size:25px;fill:#fff"><tspan xmlns="http://www.w3.org/2000/svg" style="fill:#bfbfc3">Uniswap, Balancer, etc...</tspan></text><path class="cls-2" d="M243.77 592.88c-.87-.13-.91-.15-.5-.21a13.58 13.58 0 013.95.35c3 .71 5.74 2.53 8.66 5.76l.78.86 1.11-.18a23.54 23.54 0 0113.4 1.67 18.4 18.4 0 013 1.76 4.8 4.8 0 01.28 1.17 7.25 7.25 0 01-.45 4.56 1.18 1.18 0 00-.13 1.32 1.31 1.31 0 001.15.72c1 0 2.05-1.59 2.54-3.8l.2-.88.39.44a16.89 16.89 0 014.09 8l.07.6-.36-.55a6.87 6.87 0 00-2-2.12c-1.43-.93-2.94-1.25-6.94-1.46a28.24 28.24 0 01-7.68-1.16c-3.45-1.11-5.19-2.6-9.28-7.94A38.55 38.55 0 00252 597a14.61 14.61 0 00-8.23-4.12z" style="fill:#fd78b8"/><path class="cls-2" d="M275 598.18a9.63 9.63 0 01.75-3.59 3.34 3.34 0 01.36-.69 2.51 2.51 0 01-.17.62 8.06 8.06 0 00-.15 3.68c.28 1.87.43 2.14 2.43 4.17.94 1 2 2.15 2.42 2.66l.72.94-.72-.67a31.33 31.33 0 00-3.34-2.64c-.3-.15-.35-.15-.53 0s-.21.42-.23 1.62a8.92 8.92 0 01-.91 4.24c-.33.65-.38.51-.08-.22.22-.54.25-.78.25-2.58 0-3.62-.44-4.49-3-6-.64-.38-1.7-.92-2.35-1.21a9.76 9.76 0 01-1.15-.56 24.46 24.46 0 013.54 1c1.48.57 1.73.64 1.91.57s.25-.31.25-1.34zm-29.52 6.19a14.68 14.68 0 01-2.65-9l.08-.86.4.07a10 10 0 012.69 1c1.69 1 2.42 2.36 3.16 5.8.22 1 .5 2.15.64 2.53a16.62 16.62 0 001.66 3c.47.68.15 1-.88.91-1.58-.09-3.72-1.56-5.1-3.45zm27.38 18.14c-8.32-3.33-11.25-6.22-11.25-11.1a8.3 8.3 0 01.05-1.31 7.17 7.17 0 01.72.53c1.69 1.35 3.58 1.92 8.81 2.68a36.57 36.57 0 016.41 1.34c5.08 1.67 8.23 5.07 9 9.7a16 16 0 01-.27 5.2 10.09 10.09 0 01-1.35 3c-.07 0-.13-.22-.14-.54a6.7 6.7 0 00-2.46-4.7c-1.7-1.43-3.97-2.58-9.52-4.8zM267 623.9a17 17 0 00-.4-1.75l-.22-.63.4.44a6.93 6.93 0 011.34 2.42 8.82 8.82 0 010 4.56 7.09 7.09 0 01-1.76 2.78 10 10 0 01-6.3 2.74c-.49.06-1.92.17-3.17.23a24.86 24.86 0 00-7.13 1.16 1.82 1.82 0 01-.53.13 9.36 9.36 0 012.25-1.34 21.8 21.8 0 016.32-1.64c1.63-.27 3.32-.6 3.75-.73 4.05-1.27 6.14-4.43 5.45-8.37z" style="fill:#fd78b8"/><path class="cls-2" d="M270.84 630.63a9.54 9.54 0 01-.76-6.77c.07-.23.17-.41.23-.41a2.06 2.06 0 01.58.31c.51.34 1.54.91 4.26 2.39 3.4 1.84 5.34 3.27 6.65 4.9a10.49 10.49 0 012.21 5 17.16 17.16 0 01-.2 4.95 12.31 12.31 0 01-6.07 8 6.86 6.86 0 01-.89.44 3.41 3.41 0 01.36-.91 8.13 8.13 0 00.37-6.47 27.73 27.73 0 00-3.38-6 38.75 38.75 0 01-3.36-5.43zm-31.27 12.75a22.62 22.62 0 0110.43-5 16.62 16.62 0 015.42.21 9.34 9.34 0 015.29 3.37c1 1.49 1.45 2.78 1.91 5.66.18 1.14.37 2.28.43 2.54a5.61 5.61 0 001.83 3.28c1.31 1 3.56 1 5.78.16a3 3 0 01.72-.23 6.5 6.5 0 01-1.82 1.21 6.18 6.18 0 01-3 .73c-2 0-3.72-1-5.12-3.12a23.13 23.13 0 01-1.38-2.74c-1.49-3.36-2.22-4.39-4-5.51a5.1 5.1 0 00-4.89-.44 3.14 3.14 0 00-1.07 4.9 4.23 4.23 0 002.39 1.24 2.54 2.54 0 002.88-2.54 2 2 0 00-1.37-2c-1.35-.61-2.79.1-2.79 1.36a1.13 1.13 0 00.78 1.11c.35.16.36.17.07.11-1.23-.25-1.52-1.73-.53-2.71 1.19-1.18 3.66-.66 4.5.95a4.09 4.09 0 01.09 2.83 3.94 3.94 0 01-4.77 2.25c-1.39-.35-2-.73-3.65-2.46-2.92-3-4.06-3.57-8.28-4.23l-.8-.12z" style="fill:#fd78b8"/><path class="cls-19" d="M225.84 589.77c9.77 11.79 16.5 16.65 17.25 17.68.61.85.38 1.61-.68 2.21a6.51 6.51 0 01-2.4.67 1.22 1.22 0 01-.92-.27c-.4-.37-.62-.31-2.66-3.9-2.83-4.37-5.2-8-5.27-8s-.14-.14 5 9a3.24 3.24 0 01.17 2.87c0 .55-.16.84-.84 1.6-1.14 1.26-1.65 2.68-2 5.61-.42 3.29-1.57 5.62-4.78 9.59a18.69 18.69 0 00-2.66 3.7 6.78 6.78 0 00-.83 3.34 10.42 10.42 0 00.55 4.1 15 15 0 002 3.94 9 9 0 011.54 3.06c0 .35.07.35 1.59 0 3.62-.81 6.57-2.25 8.22-4a3.77 3.77 0 001.28-3.17 3.07 3.07 0 00-.3-1.74c-.43-.91-1.21-1.67-2.94-2.84-2.27-1.54-3.23-2.78-3.5-4.49-.22-1.4 0-2.38 1.29-5a15.19 15.19 0 001.83-6.58c.14-1.76.34-2.45.85-3a3.17 3.17 0 012.32-1 7.94 7.94 0 004.62-1.86 4 4 0 001.44-3l.05-1-.54-.63c-2-2.28-21-18.63-21.09-18.63s.57.75 1.41 1.74zm4.55 45.8a1.72 1.72 0 00-.54-2.28c-.7-.46-1.79-.25-1.79.36 0 .18.1.32.33.44.39.2.42.42.11.88a.78.78 0 00.07 1.15 1.23 1.23 0 001.82-.55zm16.99-21.93a3.74 3.74 0 00-2.28 2.47 3.5 3.5 0 00.19 2.23c.45.6.88.75 2.05.74 2.29 0 4.28-1 4.51-2.21a3.25 3.25 0 00-1.89-3 4.49 4.49 0 00-2.58-.23zm2.68 2.08a.93.93 0 00-.41-1.41c-1.14-.69-2.87-.12-2.87 1 0 .53.9 1.12 1.73 1.12a2.28 2.28 0 001.55-.71z" style="fill:#fd78b8"/><circle class="cls-2" cx="336.05" cy="623.25" r="33.7" style="fill:#202336"/><ellipse class="cls-20" cx="336.05" cy="611.69" rx="11.23" ry="4.58" style="fill:#fff"/><path class="cls-20" d="M351.68 620.08c0 3.53-7 6.39-15.63 6.39s-15.64-2.86-15.64-6.39c0-1.75 1.71-3.34 4.51-4.47 2.67 1.65 7 2.52 11.13 2.52s8.47-.87 11.16-2.52c2.79 1.15 4.47 2.74 4.47 4.47z" style="fill:#fff"/><path class="cls-20" d="M356.63 629.08c0 4.63-9.21 8.4-20.58 8.4s-20.58-3.77-20.58-8.4c0-2.14 2-4.11 5.2-5.59 2.88 2.82 9.28 4.32 15.38 4.32s12.48-1.5 15.38-4.32c3.23 1.51 5.2 3.45 5.2 5.59z" style="fill:#fff"/><text transform="matrix(.7 -.56 .9 .44 1477.01 1292.89)" font-size="41.62" font-weight="500" fill="#fff" style="fill:#bfbfc3;font-family:&quot;Roboto&quot;,&quot;Helvetica&quot;,&quot;Arial&quot;,sans-serif">Burned</text><path class="cls-20" d="M1466.82 1306.06c.93 4.76-1.5 9.4-5.59 12.67a35.58 35.58 0 01-16.25 6.1c-16.48 1.77-30.2-8.86-30.41-13.17 4.3 3.85 10.84 4.11 12.32 2.93s2.69-2.35.23-3.95-12.27-2.79-12.68-9c3.67 3.39 10.35 4.74 14.34.25s-8.76-7-8.76-7c2.16-2 16.12-2.39 19.38 1.14 5 5.41 11.3 6.77 13.16 4.9s.65-5.53-3.52-9.31c11.6 3.77 16.76 9.16 17.78 14.44z"/><path d="M1466.82 1306.06c.93 4.76-1.5 9.4-5.59 12.67a35.58 35.58 0 01-16.25 6.1c-3.39-1.29-8.06-3.83-9.44-8.37 8.09 2.21 9.59-1.81 9.29-3.69s-5.25-5.36-9.89-4.81c5.74-4.77 13.62-2 17-.19s9.69-.53 5.1-4.74a32.44 32.44 0 019.78 3.03z" fill="#03858c"/><ellipse class="cls-7" cx="1697.25" cy="1041.34" rx="90.64" ry="156.99" transform="rotate(-89.69 1697.238 1041.35)"/><ellipse class="cls-8" cx="1697.25" cy="1041.34" rx="74.12" ry="128.38" transform="rotate(-89.69 1697.238 1041.35)"/><path d="M1774.73 1078c-42.55 24.57-111.75 24.44-154.56-.28-22.36-12.91-33.11-30-32.2-46.84a247.78 247.78 0 000-27.63l218.58 2.22s-.18 11.69 0 27.77-10.46 32.4-31.82 44.76z" fill="url(#linear-gradient-21)"/><path d="M1774.73 1056.6c-42.55 24.56-111.75 24.44-154.56-.28-20.51-11.84-31.24-27.17-32.19-42.64-1-16.82.15-20.37.15-20.37l218.25 1.69s.6 1.74.1 18.31c-.48 15.74-11.04 31.33-31.75 43.29z" fill="url(#linear-gradient-22)"/><path d="M1774.73 1050.2c-42.55 24.56-111.75 24.44-154.56-.28-20.51-11.84-31.24-27.17-32.19-42.64-1-16.82.15-20.37.15-20.37l218.25 1.71s.6 1.74.1 18.31c-.48 15.72-11.04 31.31-31.75 43.27z" fill="url(#linear-gradient-23)"/><ellipse cx="1697.21" cy="991.21" rx="63.1" ry="109.29" transform="rotate(-89.69 1697.193 991.215)" fill="url(#linear-gradient-24)"/><path d="M1762.15 1028.7c-35.64 20.58-93.61 20.47-129.48-.23-12.42-7.17-20.56-15.88-24.42-25.05-7.27-17.3-138.52-121.27-138.52-121.27l461-.35s-144.12 122-146.59 126.34c-4.31 7.52-11.64 14.58-21.99 20.56z" fill="url(#linear-gradient-25)"/><ellipse cx="1697.21" cy="991.21" rx="52.86" ry="91.56" transform="rotate(-89.69 1697.193 991.215)" fill="url(#areaOfInterest)"/><text class="cls-15" transform="translate(1587.06 846.75)" style="fill:#fff">Burned FLUX</text><path class="cls-36" d="M1719.52 978l13.58 7.86.06-15.72zm0-17.37l13.58 7.86.06-15.72zm15 8.56l13.58 7.86.06-15.72zm-1.47 36.2l-13.58 7.86 13.64 7.85z"/><path class="cls-37" d="M1719.45 995.61l13.65 7.86v-15.71zm15.11 9.31l13.66 7.86v-15.72zm-30.14-17.72l13.65 7.86v-15.72zm-14.62-8.88l13.65 7.86v-15.72z" style="fill:#0ff"/><path class="cls-36" d="M1719 996.57v15.71l13.65-7.85zm0 17.7V1030l13.65-7.86zm13.58-45.09l-13.58-7.86V977zm15.31-8.89l-13.58-7.86v15.72zm15.35 8.89l-13.57-7.86V977z"/><path class="cls-37" d="M1719 979v15.71l13.58-7.86zm14.89 9.17v15.71l13.58-7.86zm15.31 8.94v15.72l13.58-7.86zm-44.72-26.6v15.72l13.58-7.86z" style="fill:#0ff"/><path class="cls-2" d="M1679.85 1016.16a32 32 0 01-22.26 9.32c-9.19-.77-15.73-3.72-20.24-7.84-14.17-13-8.45-37.51-2.36-42.6-2.54 8.29 1.69 14.53 4.44 14.53s5.28-.22 5.87-4.27-4.61-14.32 4-21.72c-2.32 7.18.43 14.79 9.72 13.31s4-15.95 4-15.95c4.43-.32 14.8 11.94 12 18.91-4.31 10.68-1.83 18 2.17 17.53s8.46-5.7 11-13.78c2.75 14.82-1.43 25.64-8.34 32.56z" style="fill:#03858c"/><path d="M1679.85 1016.16a32 32 0 01-22.26 9.32c-9.19-.77-15.73-3.72-20.24-7.84a22.94 22.94 0 015.46-18.09c2.49 9.88 9.37 6.66 11.86 4.26s4.06-10.87 0-14.46c10.95-.2 12.42 10.15 12.22 15.21s7.59 8.2 10.45-.75a29 29 0 012.51 12.35z" fill="#f2f3f7" style="fill:#0ff"/><path class="cls-21" d="M302.57 810.33l-38.69 29.46 24.7.05 1.18 344.25-24.69-.05 39.01 29.6 38.68-29.46-24.7-.04-1.18-344.25 24.69.04-39-29.6z"/><path class="cls-5" d="M302.57 790.33l-38.69 21.46v8l24.7.05 1.18 344.25-24.69-8.05v8l39.01 29.6 38.68-29.46v-8l-24.7 7.96-1.18-344.25 24.69.04v-8l-39-21.6z"/><path class="cls-6" d="M302.57 782.33l-38.69 29.46 24.7.05 1.18 344.25-24.69-.05 39.01 29.6 38.68-29.46-24.7-.04-1.18-344.25 24.69.04-39-29.6z"/><path class="cls-21" d="M1161.95 839.84l1.19 344.25-24.7-.05 39.01 29.6 38.69-29.46-24.7-.04-1.19-344.25-28.3-.05z"/><path class="cls-5" d="M1161.95 819.84l1.19 344.25-24.7-8.05v8l39.01 29.6 38.69-29.46v-8l-24.7 7.96-1.19-344.25-28.3-.05z"/><path class="cls-6" d="M1161.95 811.84l1.19 344.25-24.7-.05 39.01 29.6 38.69-29.46-24.7-.04-1.19-344.25-28.3-.05z"/></g></g></svg>