<svg xmlns="http://www.w3.org/2000/svg" width="48" height="48"><path fill="#0FF" d="M36.148 19.371h-4.512V4.512H17.043v14.859h-4.51V4.326c0-1.02.027-2.237.822-3.16C14.305.06 15.775 0 16.635 0h15.307c.9 0 2.285.06 3.262 1.085.918.966.945 2.306.945 3.241v15.045h-.001z"/><g fill="#0FF"><path d="M23.078 28.283L7.607 37.234V19.328zM23.707 9.29l.09 17.907-15.559-8.955zM23.707 29.367l.09 17.906-15.559-8.951zM25.594 28.285l15.47-8.954v17.907zM24.965 47.273V29.369l15.558 8.951zM24.965 27.199L24.877 9.29l15.555 8.954z"/></g><path fill="#202336" d="M39.195 26.764c0-1.391-1.129-2.515-2.518-2.515s-2.48 1.125-2.48 2.515c0 .748.359 1.422.891 1.883v2.117c0 .895.697 1.621 1.59 1.621.896 0 1.594-.727 1.594-1.621v-2.045c.529-.463.923-1.17.923-1.955z"/></svg>