<svg xmlns="http://www.w3.org/2000/svg" xmlns:xlink="http://www.w3.org/1999/xlink" viewBox="-120 50 2200 1800" style=""><defs><style>.cls-1{isolation:isolate;}.cls-2{fill:#202336;}.cls-139,.cls-140,.cls-144,.cls-210,.cls-220,.cls-240,.cls-3{opacity:0.6;}.cls-139,.cls-3{mix-blend-mode:overlay;}.cls-3{fill:url(#radial-gradient);}.cls-154,.cls-4{opacity:0.5;}.cls-5{fill:url(#linear-gradient);}.cls-6{fill:url(#linear-gradient-2);}.cls-7{fill:url(#linear-gradient-3);}.cls-8{fill:#101423;}.cls-9{fill:url(#linear-gradient-4);}.cls-10{fill:url(#linear-gradient-5);}.cls-11{fill:url(#linear-gradient-6);}.cls-12{fill:url(#linear-gradient-7);}.cls-13{fill:url(#linear-gradient-8);}.cls-14{fill:url(#linear-gradient-9);}.cls-15{fill:url(#linear-gradient-10);}.cls-16{fill:url(#linear-gradient-11);}.cls-17{fill:url(#linear-gradient-12);}.cls-18{fill:url(#linear-gradient-13);}.cls-19{opacity:0.4;}.cls-19,.cls-210,.cls-211,.cls-219,.cls-220,.cls-224,.cls-225{mix-blend-mode:screen;}.cls-20{fill:url(#linear-gradient-14);}.cls-21{fill:url(#linear-gradient-15);}.cls-22{fill:url(#linear-gradient-16);}.cls-23{fill:url(#linear-gradient-17);}.cls-24{fill:url(#linear-gradient-18);}.cls-25{fill:url(#linear-gradient-19);}.cls-26{fill:url(#linear-gradient-20);}.cls-27{fill:url(#linear-gradient-21);}.cls-28{fill:#2c3044;}.cls-29{opacity:0.68;fill:url(#radial-gradient-2);}.cls-30{fill:url(#linear-gradient-22);}.cls-31{fill:url(#linear-gradient-23);}.cls-32{fill:url(#linear-gradient-24);}.cls-33{fill:url(#linear-gradient-25);}.cls-34{fill:url(#linear-gradient-26);}.cls-35{fill:url(#linear-gradient-27);}.cls-36{fill:url(#linear-gradient-28);}.cls-37{fill:url(#linear-gradient-29);}.cls-38{fill:url(#linear-gradient-30);}.cls-39{fill:url(#linear-gradient-31);}.cls-40{fill:url(#linear-gradient-32);}.cls-101,.cls-104,.cls-107,.cls-110,.cls-113,.cls-116,.cls-119,.cls-122,.cls-125,.cls-128,.cls-131,.cls-134,.cls-137,.cls-141,.cls-193,.cls-41,.cls-44,.cls-47,.cls-50,.cls-53,.cls-56,.cls-59,.cls-62,.cls-65,.cls-68,.cls-71,.cls-74,.cls-77,.cls-80,.cls-83,.cls-86,.cls-89,.cls-92,.cls-95,.cls-98{opacity:0.7;}.cls-41{fill:url(#linear-gradient-33);}.cls-42{fill:url(#linear-gradient-34);}.cls-43{fill:url(#linear-gradient-35);}.cls-44{fill:url(#linear-gradient-36);}.cls-45{fill:url(#linear-gradient-37);}.cls-46{fill:url(#linear-gradient-38);}.cls-47{fill:url(#linear-gradient-39);}.cls-48{fill:url(#linear-gradient-40);}.cls-49{fill:url(#linear-gradient-41);}.cls-50{fill:url(#linear-gradient-42);}.cls-51{fill:url(#linear-gradient-43);}.cls-52{fill:url(#linear-gradient-44);}.cls-53{fill:url(#linear-gradient-45);}.cls-54{fill:url(#linear-gradient-46);}.cls-55{fill:url(#linear-gradient-47);}.cls-56{fill:url(#linear-gradient-48);}.cls-57{fill:url(#linear-gradient-49);}.cls-58{fill:url(#linear-gradient-50);}.cls-59{fill:url(#linear-gradient-51);}.cls-60{fill:url(#linear-gradient-52);}.cls-61{fill:url(#linear-gradient-53);}.cls-62{fill:url(#linear-gradient-54);}.cls-63{fill:url(#linear-gradient-55);}.cls-64{fill:url(#linear-gradient-56);}.cls-65{fill:url(#linear-gradient-57);}.cls-66{fill:url(#linear-gradient-58);}.cls-67{fill:url(#linear-gradient-59);}.cls-68{fill:url(#linear-gradient-60);}.cls-69{fill:url(#linear-gradient-61);}.cls-70{fill:url(#linear-gradient-62);}.cls-71{fill:url(#linear-gradient-63);}.cls-72{fill:url(#linear-gradient-64);}.cls-73{fill:url(#linear-gradient-65);}.cls-74{fill:url(#linear-gradient-66);}.cls-75{fill:url(#linear-gradient-67);}.cls-76{fill:url(#linear-gradient-68);}.cls-77{fill:url(#linear-gradient-69);}.cls-78{fill:url(#linear-gradient-70);}.cls-79{fill:url(#linear-gradient-71);}.cls-80{fill:url(#linear-gradient-72);}.cls-81{fill:url(#linear-gradient-73);}.cls-82{fill:url(#linear-gradient-74);}.cls-83{fill:url(#linear-gradient-75);}.cls-84{fill:url(#linear-gradient-76);}.cls-85{fill:url(#linear-gradient-77);}.cls-86{fill:url(#linear-gradient-78);}.cls-87{fill:url(#linear-gradient-79);}.cls-88{fill:url(#linear-gradient-80);}.cls-89{fill:url(#linear-gradient-81);}.cls-90{fill:url(#linear-gradient-82);}.cls-91{fill:url(#linear-gradient-83);}.cls-92{fill:url(#linear-gradient-84);}.cls-93{fill:url(#linear-gradient-85);}.cls-94{fill:url(#linear-gradient-86);}.cls-95{fill:url(#linear-gradient-87);}.cls-96{fill:url(#linear-gradient-88);}.cls-97{fill:url(#linear-gradient-89);}.cls-98{fill:url(#linear-gradient-90);}.cls-99{fill:url(#linear-gradient-91);}.cls-100{fill:url(#linear-gradient-92);}.cls-101{fill:url(#linear-gradient-93);}.cls-102{fill:url(#linear-gradient-94);}.cls-103{fill:url(#linear-gradient-95);}.cls-104{fill:url(#linear-gradient-96);}.cls-105{fill:url(#linear-gradient-97);}.cls-106{fill:url(#linear-gradient-98);}.cls-107{fill:url(#linear-gradient-99);}.cls-108{fill:url(#linear-gradient-100);}.cls-109{fill:url(#linear-gradient-101);}.cls-110{fill:url(#linear-gradient-102);}.cls-111{fill:url(#linear-gradient-103);}.cls-112{fill:url(#linear-gradient-104);}.cls-113{fill:url(#linear-gradient-105);}.cls-114{fill:url(#linear-gradient-106);}.cls-115{fill:url(#linear-gradient-107);}.cls-116{fill:url(#linear-gradient-108);}.cls-117{fill:url(#linear-gradient-109);}.cls-118{fill:url(#linear-gradient-110);}.cls-119{fill:url(#linear-gradient-111);}.cls-120{fill:url(#linear-gradient-112);}.cls-121{fill:url(#linear-gradient-113);}.cls-122{fill:url(#linear-gradient-114);}.cls-123{fill:url(#linear-gradient-115);}.cls-124{fill:url(#linear-gradient-116);}.cls-125{fill:url(#linear-gradient-117);}.cls-126{fill:url(#linear-gradient-118);}.cls-127{fill:url(#linear-gradient-119);}.cls-128{fill:url(#linear-gradient-120);}.cls-129{fill:url(#linear-gradient-121);}.cls-130{fill:url(#linear-gradient-122);}.cls-131{fill:url(#linear-gradient-123);}.cls-132{fill:url(#linear-gradient-124);}.cls-133{fill:url(#linear-gradient-125);}.cls-134{fill:url(#linear-gradient-126);}.cls-135{fill:url(#linear-gradient-127);}.cls-136{fill:url(#linear-gradient-128);}.cls-137{fill:url(#linear-gradient-129);}.cls-138{fill:url(#linear-gradient-130);}.cls-139{fill:url(#radial-gradient-3);}.cls-140{fill:#2e324c;}.cls-141,.cls-143{fill:#d3d6e5;}.cls-142,.cls-149{opacity:0.8;}.cls-142{fill:url(#linear-gradient-131);}.cls-143,.cls-145{opacity:0.9;}.cls-144{fill:url(#linear-gradient-132);}.cls-146{fill:url(#linear-gradient-133);}.cls-147{fill:url(#linear-gradient-134);}.cls-148{fill:url(#linear-gradient-135);}.cls-149{fill:url(#linear-gradient-136);}.cls-150{opacity:0.92;}.cls-151{fill:url(#linear-gradient-137);}.cls-152{fill:url(#radial-gradient-4);}.cls-153{opacity:0.55;}.cls-154,.cls-221,.cls-222,.cls-223,.cls-240{mix-blend-mode:multiply;}.cls-154{fill:url(#linear-gradient-138);}.cls-155{fill:url(#radial-gradient-5);}.cls-156{fill:url(#radial-gradient-6);}.cls-157{fill:url(#radial-gradient-7);}.cls-158{fill:url(#radial-gradient-8);}.cls-159{fill:url(#radial-gradient-9);}.cls-160{fill:url(#radial-gradient-10);}.cls-161{fill:url(#radial-gradient-11);}.cls-162{fill:url(#radial-gradient-12);}.cls-163{fill:url(#radial-gradient-13);}.cls-164{fill:url(#radial-gradient-14);}.cls-165{fill:url(#radial-gradient-15);}.cls-166{fill:url(#radial-gradient-16);}.cls-167{fill:url(#radial-gradient-17);}.cls-168{fill:url(#radial-gradient-18);}.cls-169{fill:url(#radial-gradient-19);}.cls-170{fill:url(#radial-gradient-20);}.cls-171{fill:url(#radial-gradient-21);}.cls-172{fill:url(#radial-gradient-22);}.cls-173{fill:url(#radial-gradient-23);}.cls-174{fill:url(#radial-gradient-24);}.cls-175{fill:url(#radial-gradient-25);}.cls-176{fill:url(#radial-gradient-26);}.cls-177{fill:url(#radial-gradient-27);}.cls-178{fill:url(#radial-gradient-28);}.cls-179{fill:url(#radial-gradient-29);}.cls-180{fill:url(#radial-gradient-30);}.cls-181{fill:url(#radial-gradient-31);}.cls-182{fill:url(#radial-gradient-32);}.cls-183{fill:url(#radial-gradient-33);}.cls-184{fill:url(#radial-gradient-34);}.cls-185{fill:url(#radial-gradient-35);}.cls-186{fill:url(#radial-gradient-36);}.cls-187{fill:url(#radial-gradient-37);}.cls-188{fill:url(#radial-gradient-38);}.cls-189{fill:url(#radial-gradient-39);}.cls-190{fill:url(#radial-gradient-40);}.cls-191{fill:url(#radial-gradient-41);}.cls-192{fill:url(#radial-gradient-42);}.cls-194{fill:url(#radial-gradient-43);}.cls-195{fill:url(#radial-gradient-44);}.cls-196{fill:url(#radial-gradient-45);}.cls-197{fill:url(#radial-gradient-46);}.cls-198{fill:url(#radial-gradient-47);}.cls-199{fill:url(#radial-gradient-48);}.cls-200{fill:url(#radial-gradient-49);}.cls-201{fill:url(#radial-gradient-50);}.cls-202{fill:url(#radial-gradient-51);}.cls-203{fill:url(#radial-gradient-52);}.cls-204{fill:url(#radial-gradient-53);}.cls-205{fill:url(#radial-gradient-54);}.cls-206{fill:url(#radial-gradient-55);}.cls-207{fill:url(#radial-gradient-56);}.cls-208{fill:url(#radial-gradient-57);}.cls-209{fill:url(#radial-gradient-58);}.cls-211,.cls-212{fill:#fff;}.cls-213{font-size:26.8px;font-family:"Roboto", "Helvetica", "Arial", sans-serif;font-weight:700;}.cls-214,.cls-215,.cls-217,.cls-218{opacity:0.87;}.cls-214{fill:url(#linear-gradient-139);}.cls-215{fill:url(#linear-gradient-140);}.cls-216{fill:url(#linear-gradient-141);}.cls-217{fill:url(#linear-gradient-142);}.cls-218{fill:url(#linear-gradient-143);}.cls-219{opacity:0.3;fill:url(#radial-gradient-59);}.cls-220{fill:url(#radial-gradient-60);}.cls-221{fill:url(#radial-gradient-61);}.cls-222{fill:url(#radial-gradient-62);}.cls-223{fill:url(#radial-gradient-63);}.cls-224{fill:url(#radial-gradient-64);}.cls-225{fill:url(#radial-gradient-65);}.cls-226{fill:url(#linear-gradient-144);}.cls-227{fill:url(#linear-gradient-145);}.cls-228{fill:url(#linear-gradient-146);}.cls-229{fill:url(#linear-gradient-147);}.cls-230{fill:url(#linear-gradient-148);}.cls-231{fill:url(#linear-gradient-149);}.cls-232{fill:url(#linear-gradient-150);}.cls-233{fill:url(#linear-gradient-151);}.cls-234{fill:#4e5164;}.cls-235{fill:url(#linear-gradient-152);}.cls-236{fill:url(#linear-gradient-153);}.cls-237{fill:url(#linear-gradient-154);}.cls-238{fill:url(#linear-gradient-155);}.cls-239{fill:url(#linear-gradient-156);}.cls-240{fill:#62657b;}.cls-241{font-size:52px;font-family:"Roboto", "Helvetica", "Arial", sans-serif;font-weight:500;}.cls-241,.cls-247{fill:white;}.cls-242{letter-spacing:-0.01em;}.cls-243{fill:#f2f3f7;}.cls-244{fill:#454a74;}.cls-245{fill:#71799d;}.cls-246{fill:#9da8c6;}</style><radialGradient id="radial-gradient" cx="1092.01" cy="1391.55" r="761.22" gradientTransform="translate(0 630.66) scale(1 0.55)" gradientUnits="userSpaceOnUse"><stop offset="0.58" stop-color="aqua" stop-opacity="0.5"/><stop offset="0.64" stop-color="aqua" stop-opacity="0.46"/><stop offset="0.74" stop-color="aqua" stop-opacity="0.34"/><stop offset="0.88" stop-color="aqua" stop-opacity="0.14"/><stop offset="0.97" stop-color="aqua" stop-opacity="0"/></radialGradient><linearGradient id="linear-gradient" x1="1102.46" y1="1641.47" x2="1093.91" y2="1435.09" gradientUnits="userSpaceOnUse"><stop offset="0" stop-color="#272936"/><stop offset="1" stop-color="#4e5164"/></linearGradient><linearGradient id="linear-gradient-2" x1="1097.34" y1="1467.93" x2="1097.34" y2="1208.38" gradientUnits="userSpaceOnUse"><stop offset="0" stop-color="#6f7288"/><stop offset="1" stop-color="#484a5a"/></linearGradient><linearGradient id="linear-gradient-3" x1="1097.34" y1="1457.18" x2="1097.34" y2="1204.56" gradientUnits="userSpaceOnUse"><stop offset="0" stop-color="#62657b"/><stop offset="1" stop-color="#3b3d4d"/></linearGradient><linearGradient id="linear-gradient-4" x1="1013.12" y1="1521.91" x2="1133.61" y2="1521.91" gradientUnits="userSpaceOnUse"><stop offset="0" stop-color="aqua" stop-opacity="0.1"/><stop offset="0.48" stop-color="aqua" stop-opacity="0.5"/><stop offset="1" stop-color="aqua"/></linearGradient><linearGradient id="linear-gradient-5" x1="1025.42" y1="1550.36" x2="1106.92" y2="1550.36" gradientUnits="userSpaceOnUse"><stop offset="0" stop-color="#202336"/><stop offset="1" stop-color="#2e324c"/></linearGradient><linearGradient id="linear-gradient-6" x1="1025.37" y1="1560.98" x2="1106.99" y2="1560.98" gradientUnits="userSpaceOnUse"><stop offset="0" stop-color="#494f78"/><stop offset="1" stop-color="#575e8e"/></linearGradient><linearGradient id="linear-gradient-7" x1="1031.6" y1="1560.98" x2="1100.76" y2="1560.98" xlink:href="#linear-gradient-5"/><linearGradient id="linear-gradient-8" x1="1033.47" y1="1560.98" x2="1098.89" y2="1560.98" gradientUnits="userSpaceOnUse"><stop offset="0" stop-color="#2e324c"/><stop offset="1" stop-color="#494f78"/></linearGradient><linearGradient id="linear-gradient-9" x1="1035.67" y1="1560.98" x2="1096.69" y2="1560.98" gradientUnits="userSpaceOnUse"><stop offset="0" stop-color="#494f78"/><stop offset="1" stop-color="#2e324c"/></linearGradient><linearGradient id="linear-gradient-10" x1="1059.55" y1="1560.98" x2="1073.55" y2="1560.98" xlink:href="#linear-gradient-5"/><linearGradient id="linear-gradient-11" x1="1067.01" y1="1592.24" x2="1066.01" y2="1539.03" gradientUnits="userSpaceOnUse"><stop offset="0" stop-color="#565c85"/><stop offset="1" stop-color="#646b9b"/></linearGradient><linearGradient id="linear-gradient-12" x1="1166.51" y1="1514.2" x2="1164.75" y2="1565.33" gradientUnits="userSpaceOnUse"><stop offset="0" stop-color="#0847b1"/><stop offset="0.47" stop-color="#0af"/><stop offset="1" stop-color="aqua"/></linearGradient><linearGradient id="linear-gradient-13" x1="1167.38" y1="1530.26" x2="1167.17" y2="1564.36" gradientUnits="userSpaceOnUse"><stop offset="0" stop-color="aqua"/><stop offset="1" stop-color="#89ffff"/></linearGradient><linearGradient id="linear-gradient-14" x1="1319.95" y1="1599.14" x2="1315.17" y2="1483.84" gradientUnits="userSpaceOnUse"><stop offset="0" stop-color="#272936"/><stop offset="1" stop-color="#3b3d4d"/></linearGradient><linearGradient id="linear-gradient-15" x1="809.1" y1="1600.41" x2="804.22" y2="1482.46" xlink:href="#linear-gradient-14"/><linearGradient id="linear-gradient-16" x1="942.24" y1="1599.14" x2="937.46" y2="1483.84" xlink:href="#linear-gradient-14"/><linearGradient id="linear-gradient-17" x1="772.33" y1="1255.36" x2="1429.32" y2="1255.36" xlink:href="#linear-gradient-14"/><linearGradient id="linear-gradient-18" x1="772.33" y1="1248.58" x2="1429.32" y2="1248.58" gradientUnits="userSpaceOnUse"><stop offset="0" stop-color="#4e5164"/><stop offset="1" stop-color="#4e5164"/></linearGradient><linearGradient id="linear-gradient-19" x1="772.33" y1="1245.38" x2="1429.32" y2="1245.38" gradientUnits="userSpaceOnUse"><stop offset="0" stop-color="#757992"/><stop offset="1" stop-color="#62657b"/></linearGradient><linearGradient id="linear-gradient-20" x1="1102.2" y1="1095.2" x2="1099.34" y2="1408.39" xlink:href="#linear-gradient-18"/><linearGradient id="linear-gradient-21" x1="820.73" y1="1245.38" x2="1380.93" y2="1245.38" gradientUnits="userSpaceOnUse"><stop offset="0" stop-color="#202336"/><stop offset="1" stop-color="#272936"/></linearGradient><radialGradient id="radial-gradient-2" cx="1100.83" cy="1245.38" r="259.71" gradientTransform="translate(0 521.31) scale(1 0.58)" gradientUnits="userSpaceOnUse"><stop offset="0.88" stop-color="#0af"/><stop offset="0.93" stop-color="#01e7e8"/><stop offset="0.94" stop-color="#01e9ea" stop-opacity="0.92"/><stop offset="0.95" stop-color="#01eeee" stop-opacity="0.73"/><stop offset="0.97" stop-color="#00f5f6" stop-opacity="0.41"/><stop offset="1" stop-color="aqua" stop-opacity="0"/></radialGradient><linearGradient id="linear-gradient-22" x1="880.39" y1="1245.38" x2="1321.27" y2="1245.38" xlink:href="#linear-gradient-18"/><linearGradient id="linear-gradient-23" x1="880.39" y1="1243.01" x2="1321.27" y2="1243.01" xlink:href="#linear-gradient-19"/><linearGradient id="linear-gradient-24" x1="-4199.59" y1="1382.98" x2="-4171.07" y2="1327.19" gradientTransform="matrix(-1, 0, 0, 1, -2875.18, 0)" xlink:href="#linear-gradient-6"/><linearGradient id="linear-gradient-25" x1="-4185.84" y1="1337.57" x2="-4130.53" y2="1337.57" gradientTransform="matrix(-1, 0, 0, 1, -2875.18, 0)" gradientUnits="userSpaceOnUse"><stop offset="0" stop-color="#3c4162"/><stop offset="1" stop-color="#494f78"/></linearGradient><linearGradient id="linear-gradient-26" x1="-4184.42" y1="1337.58" x2="-4130.55" y2="1337.58" gradientTransform="matrix(-1, 0, 0, 1, -2875.18, 0)" gradientUnits="userSpaceOnUse"><stop offset="0" stop-color="#2e324c"/><stop offset="1" stop-color="#3c4162"/></linearGradient><linearGradient id="linear-gradient-27" x1="-4184.42" y1="1337.58" x2="-4130.55" y2="1337.58" gradientTransform="matrix(-1, 0, 0, 1, -2875.18, 0)" xlink:href="#linear-gradient-5"/><linearGradient id="linear-gradient-28" x1="73.44" y1="1381.41" x2="101.97" y2="1325.62" gradientTransform="translate(797.45)" xlink:href="#linear-gradient-6"/><linearGradient id="linear-gradient-29" x1="87.2" y1="1336.01" x2="142.51" y2="1336.01" gradientTransform="translate(797.45)" xlink:href="#linear-gradient-25"/><linearGradient id="linear-gradient-30" x1="88.62" y1="1336.02" x2="142.49" y2="1336.02" gradientTransform="translate(797.45)" xlink:href="#linear-gradient-26"/><linearGradient id="linear-gradient-31" x1="88.62" y1="1336.02" x2="142.49" y2="1336.02" gradientTransform="translate(797.45)" xlink:href="#linear-gradient-5"/><linearGradient id="linear-gradient-32" x1="1133.61" y1="1138.46" x2="1133.61" y2="1068.12" gradientUnits="userSpaceOnUse"><stop offset="0" stop-color="#0af"/><stop offset="0.38" stop-color="#0847b1" stop-opacity="0.6"/><stop offset="1" stop-color="#3a28bc"/></linearGradient><linearGradient id="linear-gradient-33" x1="1132.51" y1="1099.26" x2="1132.26" y2="1136.71" gradientUnits="userSpaceOnUse"><stop offset="0" stop-color="#d2ffff"/><stop offset="1" stop-color="aqua"/></linearGradient><linearGradient id="linear-gradient-34" x1="1132.93" y1="1108.84" x2="1132.08" y2="1133.57" gradientUnits="userSpaceOnUse"><stop offset="0" stop-color="#0af"/><stop offset="1" stop-color="aqua"/></linearGradient><linearGradient id="linear-gradient-35" x1="1098.13" y1="1141.63" x2="1098.13" y2="1071.29" xlink:href="#linear-gradient-32"/><linearGradient id="linear-gradient-36" x1="1097.03" y1="1102.43" x2="1096.78" y2="1139.88" xlink:href="#linear-gradient-33"/><linearGradient id="linear-gradient-37" x1="1097.45" y1="1112.02" x2="1096.59" y2="1136.74" xlink:href="#linear-gradient-34"/><linearGradient id="linear-gradient-38" x1="1064.94" y1="1142.45" x2="1064.94" y2="1072.11" xlink:href="#linear-gradient-32"/><linearGradient id="linear-gradient-39" x1="1063.84" y1="1103.25" x2="1063.59" y2="1140.7" xlink:href="#linear-gradient-33"/><linearGradient id="linear-gradient-40" x1="1064.26" y1="1112.84" x2="1063.4" y2="1137.56" xlink:href="#linear-gradient-34"/><linearGradient id="linear-gradient-41" x1="1032.4" y1="1150.6" x2="1032.4" y2="1080.26" xlink:href="#linear-gradient-32"/><linearGradient id="linear-gradient-42" x1="1031.3" y1="1111.4" x2="1031.05" y2="1148.86" xlink:href="#linear-gradient-33"/><linearGradient id="linear-gradient-43" x1="1031.72" y1="1120.99" x2="1030.86" y2="1145.71" xlink:href="#linear-gradient-34"/><linearGradient id="linear-gradient-44" x1="997.68" y1="1150.6" x2="997.68" y2="1080.26" xlink:href="#linear-gradient-32"/><linearGradient id="linear-gradient-45" x1="996.58" y1="1111.4" x2="996.33" y2="1148.86" xlink:href="#linear-gradient-33"/><linearGradient id="linear-gradient-46" x1="997" y1="1120.99" x2="996.14" y2="1145.71" xlink:href="#linear-gradient-34"/><linearGradient id="linear-gradient-47" x1="966.28" y1="1162.18" x2="966.28" y2="1091.85" xlink:href="#linear-gradient-32"/><linearGradient id="linear-gradient-48" x1="965.18" y1="1122.98" x2="964.93" y2="1160.44" xlink:href="#linear-gradient-33"/><linearGradient id="linear-gradient-49" x1="965.6" y1="1132.57" x2="964.75" y2="1157.29" xlink:href="#linear-gradient-34"/><linearGradient id="linear-gradient-50" x1="934.76" y1="1169.54" x2="934.76" y2="1099.2" xlink:href="#linear-gradient-32"/><linearGradient id="linear-gradient-51" x1="933.66" y1="1130.34" x2="933.41" y2="1167.79" xlink:href="#linear-gradient-33"/><linearGradient id="linear-gradient-52" x1="934.08" y1="1139.92" x2="933.22" y2="1164.65" xlink:href="#linear-gradient-34"/><linearGradient id="linear-gradient-53" x1="901.91" y1="1188.38" x2="901.91" y2="1118.04" xlink:href="#linear-gradient-32"/><linearGradient id="linear-gradient-54" x1="900.8" y1="1149.18" x2="900.55" y2="1186.63" xlink:href="#linear-gradient-33"/><linearGradient id="linear-gradient-55" x1="901.23" y1="1158.76" x2="900.37" y2="1183.49" xlink:href="#linear-gradient-34"/><linearGradient id="linear-gradient-56" x1="877.04" y1="1209.01" x2="877.04" y2="1138.67" xlink:href="#linear-gradient-32"/><linearGradient id="linear-gradient-57" x1="875.94" y1="1169.81" x2="875.68" y2="1207.27" xlink:href="#linear-gradient-33"/><linearGradient id="linear-gradient-58" x1="876.36" y1="1179.4" x2="875.5" y2="1204.12" xlink:href="#linear-gradient-34"/><linearGradient id="linear-gradient-59" x1="859.81" y1="1234.62" x2="859.81" y2="1164.28" xlink:href="#linear-gradient-32"/><linearGradient id="linear-gradient-60" x1="858.71" y1="1195.42" x2="858.45" y2="1232.87" xlink:href="#linear-gradient-33"/><linearGradient id="linear-gradient-61" x1="859.13" y1="1205.01" x2="858.27" y2="1229.73" xlink:href="#linear-gradient-34"/><linearGradient id="linear-gradient-62" x1="858.58" y1="1271.21" x2="858.58" y2="1200.87" xlink:href="#linear-gradient-32"/><linearGradient id="linear-gradient-63" x1="857.48" y1="1232.01" x2="857.23" y2="1269.46" xlink:href="#linear-gradient-33"/><linearGradient id="linear-gradient-64" x1="857.9" y1="1241.6" x2="857.04" y2="1266.32" xlink:href="#linear-gradient-34"/><linearGradient id="linear-gradient-65" x1="866.68" y1="1288.07" x2="866.68" y2="1217.73" xlink:href="#linear-gradient-32"/><linearGradient id="linear-gradient-66" x1="865.58" y1="1248.87" x2="865.33" y2="1286.33" xlink:href="#linear-gradient-33"/><linearGradient id="linear-gradient-67" x1="866" y1="1258.46" x2="865.14" y2="1283.18" xlink:href="#linear-gradient-34"/><linearGradient id="linear-gradient-68" x1="1173.33" y1="1142.45" x2="1173.33" y2="1072.11" xlink:href="#linear-gradient-32"/><linearGradient id="linear-gradient-69" x1="1172.23" y1="1103.25" x2="1171.97" y2="1140.7" xlink:href="#linear-gradient-33"/><linearGradient id="linear-gradient-70" x1="1172.65" y1="1112.84" x2="1171.79" y2="1137.56" xlink:href="#linear-gradient-34"/><linearGradient id="linear-gradient-71" x1="1207.93" y1="1150.04" x2="1207.93" y2="1079.7" xlink:href="#linear-gradient-32"/><linearGradient id="linear-gradient-72" x1="1206.83" y1="1110.84" x2="1206.58" y2="1148.29" xlink:href="#linear-gradient-33"/><linearGradient id="linear-gradient-73" x1="1207.25" y1="1120.43" x2="1206.4" y2="1145.15" xlink:href="#linear-gradient-34"/><linearGradient id="linear-gradient-74" x1="1240.64" y1="1157.39" x2="1240.64" y2="1087.05" xlink:href="#linear-gradient-32"/><linearGradient id="linear-gradient-75" x1="1239.54" y1="1118.19" x2="1239.28" y2="1155.64" xlink:href="#linear-gradient-33"/><linearGradient id="linear-gradient-76" x1="1239.96" y1="1127.78" x2="1239.1" y2="1152.5" xlink:href="#linear-gradient-34"/><linearGradient id="linear-gradient-77" x1="1277.98" y1="1175.15" x2="1277.98" y2="1104.81" xlink:href="#linear-gradient-32"/><linearGradient id="linear-gradient-78" x1="1276.88" y1="1135.95" x2="1276.62" y2="1173.4" xlink:href="#linear-gradient-33"/><linearGradient id="linear-gradient-79" x1="1277.3" y1="1145.54" x2="1276.44" y2="1170.26" xlink:href="#linear-gradient-34"/><linearGradient id="linear-gradient-80" x1="1309.43" y1="1197.88" x2="1309.43" y2="1127.54" xlink:href="#linear-gradient-32"/><linearGradient id="linear-gradient-81" x1="1308.33" y1="1158.68" x2="1308.07" y2="1196.13" xlink:href="#linear-gradient-33"/><linearGradient id="linear-gradient-82" x1="1308.75" y1="1168.27" x2="1307.89" y2="1192.99" xlink:href="#linear-gradient-34"/><linearGradient id="linear-gradient-83" x1="1331.3" y1="1224.97" x2="1331.3" y2="1154.63" xlink:href="#linear-gradient-32"/><linearGradient id="linear-gradient-84" x1="1330.2" y1="1185.77" x2="1329.95" y2="1223.22" xlink:href="#linear-gradient-33"/><linearGradient id="linear-gradient-85" x1="1330.62" y1="1195.35" x2="1329.76" y2="1220.08" xlink:href="#linear-gradient-34"/><linearGradient id="linear-gradient-86" x1="1342.56" y1="1262.05" x2="1342.56" y2="1191.71" xlink:href="#linear-gradient-32"/><linearGradient id="linear-gradient-87" x1="1341.46" y1="1222.85" x2="1341.21" y2="1260.3" xlink:href="#linear-gradient-33"/><linearGradient id="linear-gradient-88" x1="1341.88" y1="1232.44" x2="1341.02" y2="1257.16" xlink:href="#linear-gradient-34"/><linearGradient id="linear-gradient-89" x1="1331.3" y1="1286.73" x2="1331.3" y2="1216.39" xlink:href="#linear-gradient-32"/><linearGradient id="linear-gradient-90" x1="1330.2" y1="1247.53" x2="1329.95" y2="1284.98" xlink:href="#linear-gradient-33"/><linearGradient id="linear-gradient-91" x1="1330.62" y1="1257.11" x2="1329.76" y2="1281.84" xlink:href="#linear-gradient-34"/><linearGradient id="linear-gradient-92" x1="880.39" y1="1306.61" x2="880.39" y2="1236.27" xlink:href="#linear-gradient-32"/><linearGradient id="linear-gradient-93" x1="879.29" y1="1267.41" x2="879.04" y2="1304.87" xlink:href="#linear-gradient-33"/><linearGradient id="linear-gradient-94" x1="879.71" y1="1277" x2="878.85" y2="1301.72" xlink:href="#linear-gradient-34"/><linearGradient id="linear-gradient-95" x1="1277.98" y1="1336.81" x2="1277.98" y2="1266.47" xlink:href="#linear-gradient-32"/><linearGradient id="linear-gradient-96" x1="1276.88" y1="1297.61" x2="1276.62" y2="1335.06" xlink:href="#linear-gradient-33"/><linearGradient id="linear-gradient-97" x1="1277.3" y1="1307.19" x2="1276.44" y2="1331.92" xlink:href="#linear-gradient-34"/><linearGradient id="linear-gradient-98" x1="1310.65" y1="1310.66" x2="1310.65" y2="1240.32" xlink:href="#linear-gradient-32"/><linearGradient id="linear-gradient-99" x1="1309.55" y1="1271.46" x2="1309.3" y2="1308.92" xlink:href="#linear-gradient-33"/><linearGradient id="linear-gradient-100" x1="1309.97" y1="1281.05" x2="1309.11" y2="1305.77" xlink:href="#linear-gradient-34"/><linearGradient id="linear-gradient-101" x1="912.3" y1="1331.22" x2="912.3" y2="1260.88" xlink:href="#linear-gradient-32"/><linearGradient id="linear-gradient-102" x1="911.2" y1="1292.02" x2="910.95" y2="1329.47" xlink:href="#linear-gradient-33"/><linearGradient id="linear-gradient-103" x1="911.62" y1="1301.61" x2="910.76" y2="1326.33" xlink:href="#linear-gradient-34"/><linearGradient id="linear-gradient-104" x1="940.54" y1="1347.25" x2="940.54" y2="1276.91" xlink:href="#linear-gradient-32"/><linearGradient id="linear-gradient-105" x1="939.44" y1="1308.05" x2="939.19" y2="1345.51" xlink:href="#linear-gradient-33"/><linearGradient id="linear-gradient-106" x1="939.86" y1="1317.64" x2="939" y2="1342.36" xlink:href="#linear-gradient-34"/><linearGradient id="linear-gradient-107" x1="1246.16" y1="1351.77" x2="1246.16" y2="1281.44" xlink:href="#linear-gradient-32"/><linearGradient id="linear-gradient-108" x1="1245.06" y1="1312.57" x2="1244.81" y2="1350.03" xlink:href="#linear-gradient-33"/><linearGradient id="linear-gradient-109" x1="1245.48" y1="1322.16" x2="1244.62" y2="1346.88" xlink:href="#linear-gradient-34"/><linearGradient id="linear-gradient-110" x1="1209.16" y1="1366.47" x2="1209.16" y2="1296.13" xlink:href="#linear-gradient-32"/><linearGradient id="linear-gradient-111" x1="1208.06" y1="1327.27" x2="1207.81" y2="1364.72" xlink:href="#linear-gradient-33"/><linearGradient id="linear-gradient-112" x1="1208.48" y1="1336.86" x2="1207.62" y2="1361.58" xlink:href="#linear-gradient-34"/><linearGradient id="linear-gradient-113" x1="1174.55" y1="1379.08" x2="1174.55" y2="1308.74" xlink:href="#linear-gradient-32"/><linearGradient id="linear-gradient-114" x1="1173.45" y1="1339.88" x2="1173.2" y2="1377.33" xlink:href="#linear-gradient-33"/><linearGradient id="linear-gradient-115" x1="1173.87" y1="1349.46" x2="1173.02" y2="1374.19" xlink:href="#linear-gradient-34"/><linearGradient id="linear-gradient-116" x1="1133.61" y1="1386.3" x2="1133.61" y2="1315.96" xlink:href="#linear-gradient-32"/><linearGradient id="linear-gradient-117" x1="1132.51" y1="1347.1" x2="1132.26" y2="1384.56" xlink:href="#linear-gradient-33"/><linearGradient id="linear-gradient-118" x1="1132.93" y1="1356.69" x2="1132.08" y2="1381.41" xlink:href="#linear-gradient-34"/><linearGradient id="linear-gradient-119" x1="1090.75" y1="1382.89" x2="1090.75" y2="1312.56" xlink:href="#linear-gradient-32"/><linearGradient id="linear-gradient-120" x1="1089.65" y1="1343.69" x2="1089.4" y2="1381.15" xlink:href="#linear-gradient-33"/><linearGradient id="linear-gradient-121" x1="1090.07" y1="1353.28" x2="1089.22" y2="1378" xlink:href="#linear-gradient-34"/><linearGradient id="linear-gradient-122" x1="1052.62" y1="1382.07" x2="1052.62" y2="1311.73" xlink:href="#linear-gradient-32"/><linearGradient id="linear-gradient-123" x1="1051.52" y1="1342.87" x2="1051.27" y2="1380.32" xlink:href="#linear-gradient-33"/><linearGradient id="linear-gradient-124" x1="1051.94" y1="1352.46" x2="1051.08" y2="1377.18" xlink:href="#linear-gradient-34"/><linearGradient id="linear-gradient-125" x1="1010.21" y1="1372.69" x2="1010.21" y2="1302.35" xlink:href="#linear-gradient-32"/><linearGradient id="linear-gradient-126" x1="1009.11" y1="1333.49" x2="1008.86" y2="1370.94" xlink:href="#linear-gradient-33"/><linearGradient id="linear-gradient-127" x1="1009.53" y1="1343.08" x2="1008.67" y2="1367.8" xlink:href="#linear-gradient-34"/><linearGradient id="linear-gradient-128" x1="972.69" y1="1362.36" x2="972.69" y2="1292.02" xlink:href="#linear-gradient-32"/><linearGradient id="linear-gradient-129" x1="971.59" y1="1323.16" x2="971.34" y2="1360.61" xlink:href="#linear-gradient-33"/><linearGradient id="linear-gradient-130" x1="972.01" y1="1332.74" x2="971.15" y2="1357.47" xlink:href="#linear-gradient-34"/><radialGradient id="radial-gradient-3" cx="1098.67" cy="1258.77" r="409.21" gradientTransform="translate(0 570.49) scale(1 0.55)" gradientUnits="userSpaceOnUse"><stop offset="0.81" stop-color="aqua" stop-opacity="0.5"/><stop offset="0.84" stop-color="aqua" stop-opacity="0.46"/><stop offset="0.88" stop-color="aqua" stop-opacity="0.34"/><stop offset="0.94" stop-color="aqua" stop-opacity="0.14"/><stop offset="0.97" stop-color="aqua" stop-opacity="0"/></radialGradient><linearGradient id="linear-gradient-131" x1="822.31" y1="1176.69" x2="1394.51" y2="1176.69" gradientUnits="userSpaceOnUse"><stop offset="0" stop-color="#3c4e8e"/><stop offset="0.17" stop-color="#687db7"/><stop offset="0.34" stop-color="#788dc5"/><stop offset="0.47" stop-color="#7e94cb"/><stop offset="0.61" stop-color="#7b91c8"/><stop offset="0.73" stop-color="#7287c0"/><stop offset="0.79" stop-color="#687db7"/><stop offset="0.94" stop-color="#263679"/><stop offset="1" stop-color="#3c4e8e"/></linearGradient><linearGradient id="linear-gradient-132" x1="823.26" y1="816.96" x2="1371.43" y2="816.96" gradientUnits="userSpaceOnUse"><stop offset="0" stop-color="#8c91b1"/><stop offset="0.49" stop-color="#9ba0ba" stop-opacity="0"/><stop offset="1" stop-color="#8c91b1"/></linearGradient><linearGradient id="linear-gradient-133" x1="884.04" y1="916.99" x2="1310.65" y2="916.99" gradientUnits="userSpaceOnUse"><stop offset="0" stop-color="#baffff"/><stop offset="1" stop-color="#89ffff"/></linearGradient><linearGradient id="linear-gradient-134" x1="823.26" y1="1052.04" x2="1371.43" y2="1052.04" gradientUnits="userSpaceOnUse"><stop offset="0" stop-color="#8791b2"/><stop offset="1" stop-color="#71799d"/></linearGradient><linearGradient id="linear-gradient-135" x1="884.04" y1="916.99" x2="1310.65" y2="916.99" gradientUnits="userSpaceOnUse"><stop offset="0" stop-color="#71799d"/><stop offset="1" stop-color="#5b6289"/></linearGradient><linearGradient id="linear-gradient-136" x1="823.26" y1="1029.56" x2="1371.43" y2="1029.56" gradientUnits="userSpaceOnUse"><stop offset="0" stop-color="#01ced1"/><stop offset="0.17" stop-color="aqua"/><stop offset="0.19" stop-color="#10ffff"/><stop offset="0.28" stop-color="#39ffff"/><stop offset="0.36" stop-color="#57ffff"/><stop offset="0.42" stop-color="#69ffff"/><stop offset="0.47" stop-color="#70ffff"/><stop offset="0.54" stop-color="#6dffff"/><stop offset="0.6" stop-color="#63ffff"/><stop offset="0.66" stop-color="#53ffff"/><stop offset="0.71" stop-color="#3bffff"/><stop offset="0.76" stop-color="#1dffff"/><stop offset="0.79" stop-color="aqua"/><stop offset="0.93" stop-color="#01ced1"/><stop offset="0.98" stop-color="aqua"/></linearGradient><linearGradient id="linear-gradient-137" x1="825.64" y1="859.06" x2="1369.05" y2="859.06" gradientUnits="userSpaceOnUse"><stop offset="0" stop-color="#70ffff"/><stop offset="1" stop-color="aqua"/></linearGradient><radialGradient id="radial-gradient-4" cx="1097.34" cy="859.06" r="284.3" gradientTransform="translate(0 354.05) scale(1 0.59)" gradientUnits="userSpaceOnUse"><stop offset="0.73" stop-color="#03858c" stop-opacity="0"/><stop offset="0.97" stop-color="#029da3" stop-opacity="0.8"/></radialGradient><linearGradient id="linear-gradient-138" x1="823.26" y1="1109.59" x2="1371.43" y2="1109.59" gradientUnits="userSpaceOnUse"><stop offset="0" stop-color="#3b3d4d"/><stop offset="0.03" stop-color="#3f4152" stop-opacity="0.78"/><stop offset="0.08" stop-color="#46485a" stop-opacity="0.44"/><stop offset="0.13" stop-color="#4a4d60" stop-opacity="0.19"/><stop offset="0.18" stop-color="#4d5063" stop-opacity="0.05"/><stop offset="0.24" stop-color="#4e5164" stop-opacity="0"/><stop offset="0.73" stop-color="#4e5164" stop-opacity="0"/><stop offset="0.82" stop-color="#4e5164" stop-opacity="0"/><stop offset="0.85" stop-color="#4d5062" stop-opacity="0.07"/><stop offset="0.9" stop-color="#494c5e" stop-opacity="0.26"/><stop offset="0.95" stop-color="#434657" stop-opacity="0.57"/><stop offset="1" stop-color="#3b3d4d"/></linearGradient><radialGradient id="radial-gradient-5" cx="1231.59" cy="1007.08" r="27.41" gradientUnits="userSpaceOnUse"><stop offset="0.47" stop-color="#baffff" stop-opacity="0"/><stop offset="1" stop-color="#ebffff"/></radialGradient><radialGradient id="radial-gradient-6" cx="-2878.26" cy="-336.54" r="48.23" gradientTransform="translate(-1065 2799.91) rotate(135)" gradientUnits="userSpaceOnUse"><stop offset="0.57" stop-color="#baffff" stop-opacity="0"/><stop offset="0.85" stop-color="#ebffff"/></radialGradient><radialGradient id="radial-gradient-7" cx="868.58" cy="990.31" r="19.08" xlink:href="#radial-gradient-5"/><radialGradient id="radial-gradient-8" cx="-2637.49" cy="-73.96" r="33.58" xlink:href="#radial-gradient-6"/><radialGradient id="radial-gradient-9" cx="1336.13" cy="979.81" r="14.21" xlink:href="#radial-gradient-5"/><radialGradient id="radial-gradient-10" cx="-2977.92" cy="-400.65" r="25" xlink:href="#radial-gradient-6"/><radialGradient id="radial-gradient-11" cx="1061.3" cy="857.5" r="1.08" xlink:href="#radial-gradient-5"/><radialGradient id="radial-gradient-12" cx="1043.69" cy="847.78" r="26.84" xlink:href="#radial-gradient-5"/><radialGradient id="radial-gradient-13" cx="1029.03" cy="833.21" r="48.67" gradientTransform="matrix(1, 0, 0, 1, 0, 0)" xlink:href="#radial-gradient-6"/><radialGradient id="radial-gradient-14" cx="1123.91" cy="796.8" r="0.51" xlink:href="#radial-gradient-5"/><radialGradient id="radial-gradient-15" cx="1115.64" cy="792.24" r="12.6" xlink:href="#radial-gradient-5"/><radialGradient id="radial-gradient-16" cx="1108.76" cy="785.4" r="22.85" gradientTransform="matrix(1, 0, 0, 1, 0, 0)" xlink:href="#radial-gradient-6"/><radialGradient id="radial-gradient-17" cx="969.41" cy="1127.79" r="19.08" xlink:href="#radial-gradient-5"/><radialGradient id="radial-gradient-18" cx="-2611.58" cy="-242.47" r="33.58" xlink:href="#radial-gradient-6"/><radialGradient id="radial-gradient-19" cx="1193.49" cy="1050.8" r="15.54" xlink:href="#radial-gradient-5"/><radialGradient id="radial-gradient-20" cx="-2826.21" cy="-349.02" r="27.35" xlink:href="#radial-gradient-6"/><radialGradient id="radial-gradient-21" cx="926.1" cy="1086.65" r="15.54" xlink:href="#radial-gradient-5"/><radialGradient id="radial-gradient-22" cx="-2611.78" cy="-185.31" r="27.35" xlink:href="#radial-gradient-6"/><radialGradient id="radial-gradient-23" cx="852.39" cy="1060.49" r="11.19" xlink:href="#radial-gradient-5"/><radialGradient id="radial-gradient-24" cx="-2580.29" cy="-117.81" r="19.7" xlink:href="#radial-gradient-6"/><radialGradient id="radial-gradient-25" cx="1015.73" cy="1111.17" r="15.54" xlink:href="#radial-gradient-5"/><radialGradient id="radial-gradient-26" cx="-2657.82" cy="-266.02" r="27.35" xlink:href="#radial-gradient-6"/><radialGradient id="radial-gradient-27" cx="1240.05" cy="1130.18" r="11.05" xlink:href="#radial-gradient-5"/><radialGradient id="radial-gradient-28" cx="-2805.19" cy="-441.3" r="19.45" xlink:href="#radial-gradient-6"/><radialGradient id="radial-gradient-29" cx="1303.31" cy="1059.28" r="11.05" xlink:href="#radial-gradient-5"/><radialGradient id="radial-gradient-30" cx="-2900.06" cy="-435.9" r="19.45" xlink:href="#radial-gradient-6"/><radialGradient id="radial-gradient-31" cx="1340.72" cy="1061.93" r="15.54" xlink:href="#radial-gradient-5"/><radialGradient id="radial-gradient-32" cx="-2922.44" cy="-461" r="27.35" xlink:href="#radial-gradient-6"/><radialGradient id="radial-gradient-33" cx="1191.83" cy="1122.69" r="9.59" xlink:href="#radial-gradient-5"/><radialGradient id="radial-gradient-34" cx="-2777.11" cy="-402.96" r="16.88" xlink:href="#radial-gradient-6"/><radialGradient id="radial-gradient-35" cx="1161.54" cy="1083" r="11.75" xlink:href="#radial-gradient-5"/><radialGradient id="radial-gradient-36" cx="-2782.69" cy="-351.92" r="20.69" xlink:href="#radial-gradient-6"/><radialGradient id="radial-gradient-37" cx="944.87" cy="1020.04" r="11.75" xlink:href="#radial-gradient-5"/><radialGradient id="radial-gradient-38" cx="-2674" cy="-154.2" r="20.69" xlink:href="#radial-gradient-6"/><radialGradient id="radial-gradient-39" cx="1066.86" cy="1138.18" r="11.75" xlink:href="#radial-gradient-5"/><radialGradient id="radial-gradient-40" cx="-2676.73" cy="-323.99" r="20.69" xlink:href="#radial-gradient-6"/><radialGradient id="radial-gradient-41" cx="898.48" cy="1083.69" r="7.51" xlink:href="#radial-gradient-5"/><radialGradient id="radial-gradient-42" cx="-2598.27" cy="-169.45" r="13.21" xlink:href="#radial-gradient-6"/><radialGradient id="radial-gradient-43" cx="1160.47" cy="930.76" r="28.16" xlink:href="#radial-gradient-5"/><radialGradient id="radial-gradient-44" cx="-3224.58" cy="167.93" r="49.55" gradientTransform="translate(-1503.75 2779.97) rotate(147.85)" xlink:href="#radial-gradient-6"/><radialGradient id="radial-gradient-45" cx="965.39" cy="925.12" r="14.6" xlink:href="#radial-gradient-5"/><radialGradient id="radial-gradient-46" cx="-3069.7" cy="266.9" r="25.7" gradientTransform="translate(-1503.75 2779.97) rotate(147.85)" xlink:href="#radial-gradient-6"/><radialGradient id="radial-gradient-47" cx="1206.16" cy="846.43" r="33.54" xlink:href="#radial-gradient-5"/><radialGradient id="radial-gradient-48" cx="1155.05" cy="816.54" r="112.34" gradientTransform="matrix(1, 0, 0, 1, 0, 0)" xlink:href="#radial-gradient-6"/><radialGradient id="radial-gradient-49" cx="1248.29" cy="776.64" r="21.89" xlink:href="#radial-gradient-5"/><radialGradient id="radial-gradient-50" cx="1214.95" cy="757.14" r="73.3" gradientTransform="matrix(1, 0, 0, 1, 0, 0)" xlink:href="#radial-gradient-6"/><radialGradient id="radial-gradient-51" cx="-1356.43" cy="-1633.2" r="10.39" gradientTransform="translate(-566.75 1998.49) rotate(99.26)" xlink:href="#radial-gradient-5"/><radialGradient id="radial-gradient-52" cx="-2467.52" cy="3665.45" r="18.29" gradientTransform="translate(-3068.68 67.21) rotate(-112.89)" xlink:href="#radial-gradient-6"/><radialGradient id="radial-gradient-53" cx="-1514.6" cy="-1524.06" r="21.03" gradientTransform="translate(-566.75 1998.49) rotate(99.26)" xlink:href="#radial-gradient-5"/><radialGradient id="radial-gradient-54" cx="-2269.81" cy="3664.76" r="37.01" gradientTransform="translate(-3068.68 67.21) rotate(-112.89)" xlink:href="#radial-gradient-6"/><radialGradient id="radial-gradient-55" cx="-1487.12" cy="-1349.63" r="16.8" gradientTransform="translate(-566.75 1998.49) rotate(99.26)" xlink:href="#radial-gradient-5"/><radialGradient id="radial-gradient-56" cx="-2202.52" cy="3499.45" r="29.56" gradientTransform="translate(-3068.68 67.21) rotate(-112.89)" xlink:href="#radial-gradient-6"/><radialGradient id="radial-gradient-57" cx="-1341.09" cy="-1462.24" r="9.42" gradientTransform="translate(-566.75 1998.49) rotate(99.26)" xlink:href="#radial-gradient-5"/><radialGradient id="radial-gradient-58" cx="-2390.05" cy="3511.85" r="16.57" gradientTransform="translate(-3068.68 67.21) rotate(-112.89)" xlink:href="#radial-gradient-6"/><linearGradient id="linear-gradient-139" x1="1285.52" y1="402.72" x2="1285.52" y2="757.6" gradientUnits="userSpaceOnUse"><stop offset="0" stop-color="#272936" stop-opacity="0"/><stop offset="0.74" stop-color="aqua"/><stop offset="1" stop-color="aqua" stop-opacity="0.7"/></linearGradient><linearGradient id="linear-gradient-140" x1="1115.38" y1="163.07" x2="1115.38" y2="715.17" gradientUnits="userSpaceOnUse"><stop offset="0" stop-color="#70ffff" stop-opacity="0"/><stop offset="0.64" stop-color="aqua"/><stop offset="1" stop-color="aqua" stop-opacity="0.51"/></linearGradient><linearGradient id="linear-gradient-141" x1="1047.08" y1="753.11" x2="1047.08" y2="842.57" xlink:href="#linear-gradient-140"/><linearGradient id="linear-gradient-142" x1="1045.58" y1="586.49" x2="1045.58" y2="740.05" xlink:href="#linear-gradient-140"/><linearGradient id="linear-gradient-143" x1="1228.9" y1="469.58" x2="1228.9" y2="648.73" xlink:href="#linear-gradient-140"/><radialGradient id="radial-gradient-59" cx="960.11" cy="876.36" r="83.93" gradientTransform="translate(0 397.17) scale(1 0.55)" gradientUnits="userSpaceOnUse"><stop offset="0.73" stop-color="#f2f3f7" stop-opacity="0"/><stop offset="0.88" stop-color="#f2f3f7" stop-opacity="0.5"/><stop offset="0.9" stop-color="#f2f3f7" stop-opacity="0.45"/><stop offset="0.92" stop-color="#f2f3f7" stop-opacity="0.33"/><stop offset="0.96" stop-color="#f2f3f7" stop-opacity="0.13"/><stop offset="0.97" stop-color="#f2f3f7" stop-opacity="0"/></radialGradient><radialGradient id="radial-gradient-60" cx="960.11" cy="876.36" r="72.47" xlink:href="#radial-gradient-59"/><radialGradient id="radial-gradient-61" cx="960.11" cy="876.36" r="85.53" gradientTransform="translate(0 397.17) scale(1 0.55)" gradientUnits="userSpaceOnUse"><stop offset="0.73" stop-color="aqua" stop-opacity="0"/><stop offset="0.88" stop-color="aqua" stop-opacity="0.5"/><stop offset="0.9" stop-color="aqua" stop-opacity="0.46"/><stop offset="0.92" stop-color="aqua" stop-opacity="0.34"/><stop offset="0.95" stop-color="aqua" stop-opacity="0.14"/><stop offset="0.97" stop-color="aqua" stop-opacity="0"/></radialGradient><radialGradient id="radial-gradient-62" cx="960.11" cy="876.36" r="56.41" xlink:href="#radial-gradient-61"/><radialGradient id="radial-gradient-63" cx="960.11" cy="876.36" r="43.21" xlink:href="#radial-gradient-61"/><radialGradient id="radial-gradient-64" cx="960.11" cy="876.36" r="52.2" xlink:href="#radial-gradient-59"/><radialGradient id="radial-gradient-65" cx="960.11" cy="876.36" r="33.53" xlink:href="#radial-gradient-59"/><linearGradient id="linear-gradient-144" x1="937.87" y1="834.86" x2="985.59" y2="834.86" gradientUnits="userSpaceOnUse"><stop offset="0" stop-color="#89ffff"/><stop offset="0.5" stop-color="aqua"/><stop offset="1" stop-color="#a1ffff"/></linearGradient><linearGradient id="linear-gradient-145" x1="538.82" y1="1275.14" x2="587.34" y2="1275.14" gradientUnits="userSpaceOnUse"><stop offset="0" stop-color="#62657b"/><stop offset="0.08" stop-color="#4e5164"/><stop offset="0.52" stop-color="#898da9"/><stop offset="0.9" stop-color="#3b3d4d"/><stop offset="1" stop-color="#4e5164"/></linearGradient><linearGradient id="linear-gradient-146" x1="538.82" y1="1258.5" x2="587.34" y2="1258.5" xlink:href="#linear-gradient-19"/><linearGradient id="linear-gradient-147" x1="937.87" y1="787.29" x2="979.66" y2="787.29" xlink:href="#linear-gradient-145"/><linearGradient id="linear-gradient-148" x1="937.87" y1="777.79" x2="979.66" y2="777.79" xlink:href="#linear-gradient-19"/><linearGradient id="linear-gradient-149" x1="542.18" y1="1193.67" x2="583.98" y2="1193.67" xlink:href="#linear-gradient-145"/><linearGradient id="linear-gradient-150" x1="542.18" y1="1118.85" x2="583.98" y2="1118.85" xlink:href="#linear-gradient-19"/><linearGradient id="linear-gradient-151" x1="523" y1="1149.51" x2="523" y2="1189.86" xlink:href="#linear-gradient-145"/><linearGradient id="linear-gradient-152" x1="473.18" y1="1147.92" x2="480.99" y2="1193.06" xlink:href="#linear-gradient-145"/><linearGradient id="linear-gradient-153" x1="451.93" y1="1176.65" x2="464.41" y2="1176.65" gradientTransform="translate(317.94 -78.24) rotate(14.9)" gradientUnits="userSpaceOnUse"><stop offset="0" stop-color="#9da8c6"/><stop offset="1" stop-color="#4e5164"/></linearGradient><linearGradient id="linear-gradient-154" x1="454.81" y1="1142.54" x2="466.42" y2="1140.05" xlink:href="#linear-gradient-145"/><linearGradient id="linear-gradient-155" x1="455.2" y1="1126.1" x2="456.82" y2="1114.49" gradientTransform="translate(224.81 -66.89) rotate(11.12)" xlink:href="#linear-gradient-153"/><linearGradient id="linear-gradient-156" x1="545.72" y1="836.43" x2="976.2" y2="836.43" gradientUnits="userSpaceOnUse"><stop offset="0" stop-color="#969ab6"/><stop offset="0.48" stop-color="#babcd1"/><stop offset="1" stop-color="#969ab6"/></linearGradient></defs><g class="cls-1"><g id="Layer_1" data-name="Layer 1"><path class="cls-3" d="M1866,1391.72a245,245,0,0,1-14,82c-68,201.72-382.75,353.75-760.18,353.75-383.09,0-701.17-156.7-762.85-362.75a245.44,245.44,0,0,1-11-73c0-37.34,8.33-73.35,24-108,85-188.38,388.43-328.08,749.85-328.08,374.76,0,687.5,150.37,758.85,349.41A256.78,256.78,0,0,1,1866,1391.72Z"/><path class="cls-4" d="M1561.2,1604.13c0,14.26-12.34,25.82-27.59,25.82H661.07c-15.24,0-27.59-11.56-27.59-25.82l44.38-402.26a24.94,24.94,0,0,1,24.95-24.95h789.06a25,25,0,0,1,25,24.95Z"/><path class="cls-5" d="M1524.85,1458.87v117.65c0,13.14-11.38,23.79-25.43,23.79H695.27a26.63,26.63,0,0,1-11.16-2.41c-8.45-3.86-14.27-12-14.27-21.38V1458.87l40.9-253.08a23,23,0,0,1,23-23H1461a23,23,0,0,1,23,23Z"/><path class="cls-6" d="M1524.85,1458.87c0,13.14-11.38,23.79-25.43,23.79H695.27c-14,0-25.43-10.65-25.43-23.79l.64-5.83,40.26-364.9a23,23,0,0,1,23-23H1461a23,23,0,0,1,23,23l40.26,364.9Z"/><path class="cls-7" d="M1524.21,1453c-2.57,10.58-12.69,18.48-24.79,18.48H695.27c-12.1,0-22.22-7.9-24.79-18.48l40.26-364.9a23,23,0,0,1,23-23H1461a23,23,0,0,1,23,23Z"/><ellipse class="cls-8" cx="1066.18" cy="1550.36" rx="45.78" ry="42.34"/><path class="cls-9" d="M1013.16,1545.29a51,51,0,0,1,3.72-21.26,52.58,52.58,0,0,1,12.34-18.12A56.46,56.46,0,0,1,1048,1494a63.16,63.16,0,0,1,22-4.14,74.59,74.59,0,0,1,22.24,2.92,59.8,59.8,0,0,1,20.57,10.62,54.09,54.09,0,0,1,14.82,18.61,63.55,63.55,0,0,1,6,22.93v0a8.31,8.31,0,0,1-16.56,1.29c0-.21,0-.44,0-.65a48,48,0,0,0-3.08-17.52,40,40,0,0,0-9.85-14.6,47.36,47.36,0,0,0-15.59-9.62,63.51,63.51,0,0,0-18.73-4,54,54,0,0,0-19,2,49,49,0,0,0-17.06,9,46.63,46.63,0,0,0-17.21,34.4,1.64,1.64,0,0,1-3.27,0Z"/><path class="cls-10" d="M1106.92,1558.81s-22.84,29.29-40.74,29.29c-22.54,0-40.75-25-40.75-25s0-14.21,0-15c1.26-19.79,19-35.48,40.74-35.48,20.7,0,37.8,14.25,40.45,32.73C1106.87,1547,1106.92,1558.81,1106.92,1558.81Z"/><ellipse class="cls-11" cx="1066.18" cy="1560.98" rx="40.81" ry="37.74"/><ellipse class="cls-12" cx="1066.18" cy="1560.98" rx="34.58" ry="31.98"/><ellipse class="cls-13" cx="1066.18" cy="1560.98" rx="32.71" ry="30.25"/><ellipse class="cls-14" cx="1066.18" cy="1560.98" rx="30.51" ry="28.22"/><rect class="cls-15" x="1059.55" y="1532.76" width="14" height="56.43" rx="7"/><rect class="cls-16" x="1059.55" y="1539.36" width="14" height="56.43" rx="7"/><path class="cls-17" d="M1155.14,1547.2s-5.44-1.54-4.56-10.92c-9.19,10.26-2.83,27.57,11.64,31.87,14.93,4.44,25.51-13,21.41-31,.09,7.92-2.55,8.5-5.38,8.41s-3.13-5.19,1.17-9.78-.19-10.66-2.64-12.52c1.37,6.46-6.25,10.66-7.92,11.74,6.85-6.26,1.19-19.27-2.93-25.13,1.27,4.11.88,15.84-4.69,20.92a9.55,9.55,0,0,0-1.42,1.63c-.73,1-3.71-6.81,1.12-15.12C1147.75,1536,1155.14,1547.2,1155.14,1547.2Z"/><path class="cls-18" d="M1167.49,1528.36c-2,2.54-2.93,13.2.2,16,.53-3.13,7.33-7.07,8.31-13.78.88,5.51-2.18,15.73-2.93,18.38-1.57,5.47,6,9.82,7.82,3.13-.49,6.25-3.42,10.65-13.3,11.92s-13.49-6.74-14-13.39c5.67,5.26,6.75,2.25,6.75,2.25a29.52,29.52,0,0,1-1.08-13.54c1.86,4.35,2.94,3.08,2.94,3.08S1162.36,1533.53,1167.49,1528.36Z"/><g class="cls-19"><polygon class="cls-20" points="1409.23 1482.66 1291.58 1600.31 1225.9 1600.31 1343.55 1482.66 1409.23 1482.66"/><path class="cls-21" d="M929.12,1482.66,811.48,1600.31H695.27a26.63,26.63,0,0,1-11.16-2.41l115.24-115.24Z"/><polygon class="cls-22" points="1031.52 1482.66 913.86 1600.31 848.18 1600.31 965.84 1482.66 1031.52 1482.66"/></g><path class="cls-23" d="M1429.32,1255.36c0,3.26-.14,6.51-.42,9.73-1.92,22.3-10.43,43.58-24.43,63.23-49.31,69.24-166.69,118-303.65,118s-254.34-48.71-303.64-118c-14.62-20.52-23.25-42.84-24.64-66.24q-.21-3.35-.21-6.72c0-2.31.07-4.63.22-6.92,6.26-102.23,150.84-184,328.27-184C1282.25,1064.46,1429.32,1149.93,1429.32,1255.36Z"/><path class="cls-24" d="M1429.32,1248.58c0,3.26-.14,6.51-.42,9.73-1.92,22.3-10.43,43.58-24.43,63.22-49.31,69.25-166.69,118-303.65,118s-254.34-48.71-303.64-118c-14.62-20.51-23.25-42.84-24.64-66.23q-.21-3.35-.21-6.72c0-2.31.07-4.63.22-6.92,6.26-102.23,150.84-184,328.27-184C1282.25,1057.68,1429.32,1143.15,1429.32,1248.58Z"/><path class="cls-25" d="M1429.32,1245.38c0,3.26-.14,6.51-.42,9.73-1.92,22.3-10.43,43.58-24.43,63.22-49.31,69.25-166.69,118-303.65,118s-254.34-48.71-303.64-118c-14.62-20.51-23.25-42.84-24.64-66.23q-.21-3.35-.21-6.72c0-2.31.07-4.63.22-6.92,6.26-102.23,150.84-184,328.27-184C1282.25,1054.48,1429.32,1140,1429.32,1245.38Z"/><path class="cls-26" d="M1387.26,1245.38q0,4.26-.36,8.48c-1.68,19.45-9.1,38-21.3,55.13-43,60.38-145.36,102.86-264.78,102.86S879.05,1369.37,836.06,1309c-12.75-17.89-20.28-37.35-21.48-57.75-.13-1.94-.19-3.9-.19-5.86s.06-4,.2-6c5.45-89.15,131.52-160.43,286.23-160.43C1259,1078.92,1387.26,1153.45,1387.26,1245.38Z"/><path class="cls-27" d="M1380.93,1245.38q0,4.17-.36,8.3c-1.64,19-8.9,37.16-20.83,53.91-42,59-142.14,100.57-258.92,100.57S884,1366.63,841.91,1307.59c-12.46-17.5-19.82-36.53-21-56.48-.13-1.9-.18-3.81-.18-5.73s0-4,.18-5.9c5.34-87.17,128.62-156.88,279.91-156.88C1255.52,1082.6,1380.93,1155.48,1380.93,1245.38Z"/><path class="cls-28" d="M1359.29,1245.38q0,3.86-.33,7.66c-1.51,17.54-8.21,34.29-19.22,49.74-38.8,54.48-131.16,92.81-238.92,92.81s-200.12-38.33-238.9-92.81c-11.51-16.14-18.3-33.71-19.39-52.11-.11-1.76-.17-3.52-.17-5.29s.06-3.64.18-5.45c4.92-80.43,118.68-144.75,258.28-144.75C1243.57,1095.18,1359.29,1162.43,1359.29,1245.38Z"/><path class="cls-29" d="M1359.29,1245.38q0,3.86-.33,7.66c-1.51,17.54-8.21,34.29-19.22,49.74-38.8,54.48-131.16,92.81-238.92,92.81s-200.12-38.33-238.9-92.81c-11.51-16.14-18.3-33.71-19.39-52.11-.11-1.76-.17-3.52-.17-5.29s.06-3.64.18-5.45c4.92-80.43,118.68-144.75,258.28-144.75C1243.57,1095.18,1359.29,1162.43,1359.29,1245.38Z"/><path class="cls-30" d="M1321.27,1245.38q0,3.28-.29,6.53c-1.29,15-7,29.25-16.39,42.43-33.09,46.46-111.86,79.15-203.77,79.15s-170.67-32.69-203.75-79.15c-9.82-13.77-15.61-28.75-16.54-44.45-.1-1.5-.14-3-.14-4.51s0-3.1.15-4.64c4.2-68.61,101.22-123.47,220.28-123.47C1222.57,1117.27,1321.27,1174.63,1321.27,1245.38Z"/><path class="cls-31" d="M1321.27,1243c0,2.18-.1,4.36-.29,6.52-1.29,15-7,29.25-16.39,42.43-33.09,46.47-111.86,79.15-203.77,79.15S930.15,1338.43,897.07,1292c-9.82-13.77-15.61-28.75-16.54-44.45-.1-1.49-.14-3-.14-4.5s0-3.11.15-4.65c4.2-68.6,101.22-123.46,220.28-123.46C1222.57,1114.9,1321.27,1172.25,1321.27,1243Z"/><path class="cls-32" d="M1310.66,1390.61l7.6-4.48v-45.82a24.89,24.89,0,0,0-8.38-18.63L1263,1280l-7.61,4.48,42.6,50.62a6.93,6.93,0,0,1,2.32,5.17Z"/><path class="cls-33" d="M1255.34,1284.53l0,1.28,45.49,40.35a24.94,24.94,0,0,1,8.38,18.63v44.56l1.42,1.26v-45.82a24.93,24.93,0,0,0-8.37-18.63Z"/><path class="cls-34" d="M1255.36,1285.81l.28,23,34.69,30.78a6.89,6.89,0,0,1,2.32,5.16v29.9l16.58,14.66v-44.56a24.94,24.94,0,0,0-8.38-18.63Z"/><path class="cls-35" d="M1255.36,1285.81l.28,23,34.69,30.78a6.89,6.89,0,0,1,2.32,5.16v29.9l16.58,14.66v-44.56a24.94,24.94,0,0,0-8.38-18.63Z"/><path class="cls-36" d="M884.64,1389.05l-7.6-4.49v-45.82a24.92,24.92,0,0,1,8.37-18.63l46.94-41.64L940,1283l-42.59,50.62a6.89,6.89,0,0,0-2.32,5.16Z"/><path class="cls-37" d="M940,1283l0,1.28-45.49,40.35a24.94,24.94,0,0,0-8.38,18.63v44.57l-1.42,1.26v-45.83a24.93,24.93,0,0,1,8.37-18.63Z"/><path class="cls-38" d="M939.93,1284.24l-.28,23L905,1338.06a6.89,6.89,0,0,0-2.32,5.16v29.91l-16.58,14.66v-44.57a24.94,24.94,0,0,1,8.38-18.63Z"/><path class="cls-39" d="M939.93,1284.24l-.28,23L905,1338.06a6.89,6.89,0,0,0-2.32,5.16v29.91l-16.58,14.66v-44.57a24.94,24.94,0,0,1,8.38-18.63Z"/><path class="cls-40" d="M1134.66,1142.29c-14.76.8-21.86-8.63-21.23-35.06,9.25,7.25,6.47-.72,6.35-11.47-.22-20.18,21.91-26.6,21.91-26.6s-8.54,24.52,1.32,31.77a36.65,36.65,0,0,0,1.86-15s8.19,20.35,2.64,28.44c5.53-1.35,5.53-13.72,5.53-13.72S1159.66,1140.93,1134.66,1142.29Z"/><ellipse class="cls-41" cx="1132.39" cy="1117.89" rx="12.48" ry="20.56"/><ellipse class="cls-42" cx="1132.39" cy="1124.59" rx="11.3" ry="15.43"/><path class="cls-43" d="M1099.18,1145.46c-14.76.81-21.86-8.63-21.23-35.06,9.25,7.26,6.47-.72,6.35-11.47-.22-20.18,21.91-26.6,21.91-26.6s-8.54,24.52,1.32,31.78a36.66,36.66,0,0,0,1.86-15s8.19,20.34,2.64,28.43c5.52-1.35,5.52-13.71,5.52-13.71S1124.18,1144.1,1099.18,1145.46Z"/><ellipse class="cls-44" cx="1096.9" cy="1121.07" rx="12.48" ry="20.56"/><ellipse class="cls-45" cx="1096.9" cy="1127.76" rx="11.3" ry="15.43"/><path class="cls-46" d="M1066,1146.28c-14.76.81-21.86-8.63-21.23-35.06,9.25,7.26,6.47-.72,6.35-11.47-.22-20.18,21.91-26.6,21.91-26.6s-8.54,24.52,1.32,31.78a36.66,36.66,0,0,0,1.86-15s8.19,20.34,2.64,28.43c5.52-1.35,5.52-13.71,5.52-13.71S1091,1144.92,1066,1146.28Z"/><ellipse class="cls-47" cx="1063.71" cy="1121.89" rx="12.48" ry="20.56"/><ellipse class="cls-48" cx="1063.71" cy="1128.58" rx="11.3" ry="15.43"/><path class="cls-49" d="M1033.45,1154.44c-14.76.8-21.86-8.63-21.23-35.07,9.25,7.26,6.47-.71,6.35-11.46-.22-20.19,21.91-26.61,21.91-26.61s-8.54,24.52,1.32,31.78a36.66,36.66,0,0,0,1.86-15s8.19,20.34,2.64,28.44c5.52-1.35,5.52-13.72,5.52-13.72S1058.45,1153.08,1033.45,1154.44Z"/><ellipse class="cls-50" cx="1031.17" cy="1130.04" rx="12.48" ry="20.56"/><ellipse class="cls-51" cx="1031.17" cy="1136.73" rx="11.3" ry="15.43"/><path class="cls-52" d="M998.73,1154.44c-14.76.8-21.86-8.63-21.23-35.07,9.25,7.26,6.47-.71,6.35-11.46-.22-20.19,21.91-26.61,21.91-26.61s-8.54,24.52,1.32,31.78a36.66,36.66,0,0,0,1.86-15s8.19,20.34,2.64,28.44c5.53-1.35,5.53-13.72,5.53-13.72S1023.73,1153.08,998.73,1154.44Z"/><ellipse class="cls-53" cx="996.46" cy="1130.04" rx="12.48" ry="20.56"/><ellipse class="cls-54" cx="996.46" cy="1136.73" rx="11.3" ry="15.43"/><path class="cls-55" d="M967.33,1166c-14.76.8-21.86-8.63-21.23-35.07,9.25,7.26,6.47-.71,6.35-11.46-.22-20.19,21.91-26.6,21.91-26.6s-8.54,24.51,1.32,31.77a36.65,36.65,0,0,0,1.86-15s8.19,20.34,2.64,28.44c5.53-1.35,5.53-13.72,5.53-13.72S992.33,1164.66,967.33,1166Z"/><ellipse class="cls-56" cx="965.06" cy="1141.62" rx="12.48" ry="20.56"/><ellipse class="cls-57" cx="965.06" cy="1148.32" rx="11.3" ry="15.43"/><path class="cls-58" d="M935.81,1173.37c-14.76.8-21.86-8.63-21.23-35.06,9.25,7.25,6.47-.72,6.35-11.47-.22-20.19,21.91-26.6,21.91-26.6s-8.54,24.51,1.32,31.77a36.65,36.65,0,0,0,1.86-15s8.19,20.35,2.64,28.44c5.53-1.35,5.53-13.72,5.53-13.72S960.81,1172,935.81,1173.37Z"/><ellipse class="cls-59" cx="933.54" cy="1148.97" rx="12.48" ry="20.56"/><ellipse class="cls-60" cx="933.54" cy="1155.67" rx="11.3" ry="15.43"/><path class="cls-61" d="M903,1192.21c-14.75.8-21.86-8.63-21.22-35.06,9.24,7.25,6.47-.72,6.35-11.47-.23-20.18,21.9-26.6,21.9-26.6s-8.54,24.52,1.32,31.77a36.65,36.65,0,0,0,1.86-15s8.19,20.35,2.65,28.44c5.52-1.35,5.52-13.72,5.52-13.72S928,1190.85,903,1192.21Z"/><ellipse class="cls-62" cx="900.68" cy="1167.81" rx="12.48" ry="20.56"/><ellipse class="cls-63" cx="900.68" cy="1174.51" rx="11.3" ry="15.43"/><path class="cls-64" d="M878.08,1212.85c-14.75.8-21.85-8.63-21.22-35.07,9.24,7.26,6.47-.71,6.35-11.46-.23-20.19,21.9-26.61,21.9-26.61s-8.54,24.52,1.33,31.78a36.74,36.74,0,0,0,1.85-15s8.19,20.34,2.65,28.44c5.52-1.35,5.52-13.72,5.52-13.72S903.08,1211.49,878.08,1212.85Z"/><ellipse class="cls-65" cx="875.81" cy="1188.45" rx="12.48" ry="20.56"/><ellipse class="cls-66" cx="875.81" cy="1195.14" rx="11.3" ry="15.43"/><path class="cls-67" d="M860.85,1238.45c-14.75.81-21.85-8.63-21.22-35.06,9.24,7.26,6.47-.72,6.35-11.47-.22-20.18,21.9-26.6,21.9-26.6s-8.54,24.52,1.33,31.77a36.81,36.81,0,0,0,1.86-15s8.19,20.34,2.64,28.43c5.52-1.35,5.52-13.72,5.52-13.72S885.86,1237.09,860.85,1238.45Z"/><ellipse class="cls-68" cx="858.58" cy="1214.06" rx="12.48" ry="20.56"/><ellipse class="cls-69" cx="858.58" cy="1220.75" rx="11.3" ry="15.43"/><path class="cls-70" d="M859.63,1275c-14.76.81-21.86-8.63-21.23-35.06,9.25,7.26,6.47-.72,6.35-11.47-.22-20.18,21.91-26.6,21.91-26.6s-8.54,24.52,1.32,31.77a36.6,36.6,0,0,0,1.86-15s8.19,20.34,2.64,28.43c5.52-1.35,5.52-13.72,5.52-13.72S884.63,1273.68,859.63,1275Z"/><ellipse class="cls-71" cx="857.35" cy="1250.65" rx="12.48" ry="20.56"/><ellipse class="cls-72" cx="857.35" cy="1257.34" rx="11.3" ry="15.43"/><path class="cls-73" d="M867.72,1291.91c-14.75.8-21.85-8.63-21.22-35.07,9.25,7.26,6.47-.71,6.35-11.46-.22-20.19,21.91-26.61,21.91-26.61s-8.54,24.52,1.32,31.78a36.87,36.87,0,0,0,1.86-15s8.19,20.34,2.64,28.44c5.52-1.35,5.52-13.72,5.52-13.72S892.73,1290.55,867.72,1291.91Z"/><ellipse class="cls-74" cx="865.45" cy="1267.51" rx="12.48" ry="20.56"/><ellipse class="cls-75" cx="865.45" cy="1274.2" rx="11.3" ry="15.43"/><path class="cls-76" d="M1174.37,1146.28c-14.75.81-21.85-8.63-21.22-35.06,9.24,7.26,6.47-.72,6.35-11.47-.22-20.18,21.9-26.6,21.9-26.6s-8.54,24.52,1.33,31.78a36.87,36.87,0,0,0,1.86-15s8.19,20.34,2.64,28.43c5.52-1.35,5.52-13.71,5.52-13.71S1199.38,1144.92,1174.37,1146.28Z"/><ellipse class="cls-77" cx="1172.1" cy="1121.89" rx="12.48" ry="20.56"/><ellipse class="cls-78" cx="1172.1" cy="1128.58" rx="11.3" ry="15.43"/><path class="cls-79" d="M1209,1153.87c-14.76.81-21.86-8.63-21.23-35.06,9.25,7.26,6.47-.72,6.36-11.47-.23-20.18,21.9-26.6,21.9-26.6s-8.54,24.52,1.32,31.77a36.6,36.6,0,0,0,1.86-15s8.19,20.34,2.65,28.43c5.52-1.35,5.52-13.72,5.52-13.72S1234,1152.51,1209,1153.87Z"/><ellipse class="cls-80" cx="1206.71" cy="1129.48" rx="12.48" ry="20.56"/><ellipse class="cls-81" cx="1206.71" cy="1136.17" rx="11.3" ry="15.43"/><path class="cls-82" d="M1241.68,1161.22c-14.75.81-21.85-8.62-21.22-35.06,9.24,7.26,6.47-.71,6.35-11.47-.22-20.18,21.9-26.6,21.9-26.6s-8.54,24.52,1.33,31.78a36.74,36.74,0,0,0,1.85-15s8.2,20.34,2.65,28.43c5.52-1.34,5.52-13.71,5.52-13.71S1266.69,1159.86,1241.68,1161.22Z"/><ellipse class="cls-83" cx="1239.41" cy="1136.83" rx="12.48" ry="20.56"/><ellipse class="cls-84" cx="1239.41" cy="1143.52" rx="11.3" ry="15.43"/><path class="cls-85" d="M1279,1179c-14.75.81-21.85-8.62-21.22-35.06,9.24,7.26,6.47-.71,6.35-11.47-.22-20.18,21.9-26.6,21.9-26.6s-8.54,24.52,1.33,31.78a36.74,36.74,0,0,0,1.85-15s8.2,20.34,2.65,28.44c5.52-1.35,5.52-13.72,5.52-13.72S1304,1177.62,1279,1179Z"/><ellipse class="cls-86" cx="1276.75" cy="1154.59" rx="12.48" ry="20.56"/><ellipse class="cls-87" cx="1276.75" cy="1161.28" rx="11.3" ry="15.43"/><path class="cls-88" d="M1310.47,1201.71c-14.75.81-21.85-8.62-21.22-35.06,9.24,7.26,6.47-.72,6.35-11.47-.23-20.18,21.9-26.6,21.9-26.6s-8.54,24.52,1.33,31.78a36.74,36.74,0,0,0,1.85-15s8.19,20.34,2.65,28.43c5.52-1.35,5.52-13.71,5.52-13.71S1335.47,1200.35,1310.47,1201.71Z"/><ellipse class="cls-89" cx="1308.2" cy="1177.32" rx="12.48" ry="20.56"/><ellipse class="cls-90" cx="1308.2" cy="1184.01" rx="11.3" ry="15.43"/><path class="cls-91" d="M1332.35,1228.8c-14.76.8-21.86-8.63-21.23-35.06,9.25,7.25,6.47-.72,6.35-11.47-.22-20.18,21.91-26.6,21.91-26.6s-8.54,24.52,1.32,31.77a36.65,36.65,0,0,0,1.86-15s8.19,20.35,2.64,28.44c5.53-1.35,5.53-13.72,5.53-13.72S1357.35,1227.44,1332.35,1228.8Z"/><ellipse class="cls-92" cx="1330.08" cy="1204.4" rx="12.48" ry="20.56"/><ellipse class="cls-93" cx="1330.08" cy="1211.1" rx="11.3" ry="15.43"/><path class="cls-94" d="M1343.61,1265.88c-14.76.81-21.86-8.63-21.23-35.06,9.25,7.26,6.47-.72,6.35-11.47-.22-20.18,21.91-26.6,21.91-26.6s-8.54,24.52,1.32,31.77a36.6,36.6,0,0,0,1.86-15s8.19,20.34,2.64,28.43c5.52-1.35,5.52-13.72,5.52-13.72S1368.61,1264.52,1343.61,1265.88Z"/><ellipse class="cls-95" cx="1341.33" cy="1241.49" rx="12.48" ry="20.56"/><ellipse class="cls-96" cx="1341.33" cy="1248.18" rx="11.3" ry="15.43"/><path class="cls-97" d="M1332.35,1290.56c-14.76.8-21.86-8.63-21.23-35.06,9.25,7.25,6.47-.72,6.35-11.47-.22-20.18,21.91-26.6,21.91-26.6s-8.54,24.52,1.32,31.77a36.6,36.6,0,0,0,1.86-15s8.19,20.34,2.64,28.43c5.53-1.35,5.53-13.72,5.53-13.72S1357.35,1289.2,1332.35,1290.56Z"/><ellipse class="cls-98" cx="1330.08" cy="1266.16" rx="12.48" ry="20.56"/><ellipse class="cls-99" cx="1330.08" cy="1272.86" rx="11.3" ry="15.43"/><path class="cls-100" d="M881.44,1310.45c-14.76.8-21.86-8.63-21.23-35.07,9.25,7.26,6.47-.71,6.35-11.46-.22-20.19,21.91-26.61,21.91-26.61s-8.54,24.52,1.32,31.78a36.66,36.66,0,0,0,1.86-15s8.19,20.34,2.64,28.44c5.52-1.35,5.52-13.72,5.52-13.72S906.44,1309.09,881.44,1310.45Z"/><ellipse class="cls-101" cx="879.16" cy="1286.05" rx="12.48" ry="20.56"/><ellipse class="cls-102" cx="879.16" cy="1292.74" rx="11.3" ry="15.43"/><path class="cls-103" d="M1279,1340.64c-14.75.8-21.85-8.63-21.22-35.06,9.24,7.25,6.47-.72,6.35-11.47-.22-20.18,21.9-26.6,21.9-26.6s-8.54,24.52,1.33,31.77a36.73,36.73,0,0,0,1.85-15s8.2,20.35,2.65,28.44c5.52-1.35,5.52-13.72,5.52-13.72S1304,1339.28,1279,1340.64Z"/><ellipse class="cls-104" cx="1276.75" cy="1316.24" rx="12.48" ry="20.56"/><ellipse class="cls-105" cx="1276.75" cy="1322.94" rx="11.3" ry="15.43"/><path class="cls-106" d="M1311.7,1314.5c-14.76.8-21.86-8.63-21.23-35.07,9.25,7.26,6.47-.71,6.35-11.46-.22-20.19,21.91-26.61,21.91-26.61s-8.54,24.52,1.32,31.78a36.66,36.66,0,0,0,1.86-15s8.19,20.34,2.64,28.44c5.53-1.35,5.53-13.72,5.53-13.72S1336.7,1313.14,1311.7,1314.5Z"/><ellipse class="cls-107" cx="1309.43" cy="1290.1" rx="12.48" ry="20.56"/><ellipse class="cls-108" cx="1309.43" cy="1296.79" rx="11.3" ry="15.43"/><path class="cls-109" d="M913.34,1335.05c-14.75.8-21.85-8.63-21.22-35.06,9.24,7.26,6.47-.72,6.35-11.47-.22-20.18,21.9-26.6,21.9-26.6s-8.54,24.52,1.33,31.77a36.81,36.81,0,0,0,1.86-15s8.19,20.34,2.64,28.43c5.52-1.35,5.52-13.72,5.52-13.72S938.35,1333.69,913.34,1335.05Z"/><ellipse class="cls-110" cx="911.07" cy="1310.66" rx="12.48" ry="20.56"/><ellipse class="cls-111" cx="911.07" cy="1317.35" rx="11.3" ry="15.43"/><path class="cls-112" d="M941.59,1351.09c-14.76.8-21.86-8.63-21.23-35.07,9.25,7.26,6.47-.71,6.35-11.46-.22-20.19,21.91-26.61,21.91-26.61s-8.54,24.52,1.32,31.78a36.66,36.66,0,0,0,1.86-15s8.19,20.34,2.64,28.44c5.52-1.35,5.52-13.72,5.52-13.72S966.59,1349.73,941.59,1351.09Z"/><ellipse class="cls-113" cx="939.32" cy="1326.69" rx="12.48" ry="20.56"/><ellipse class="cls-114" cx="939.32" cy="1333.38" rx="11.3" ry="15.43"/><path class="cls-115" d="M1247.21,1355.61c-14.76.8-21.86-8.63-21.23-35.07,9.25,7.26,6.47-.71,6.35-11.46-.22-20.19,21.91-26.61,21.91-26.61s-8.54,24.52,1.32,31.78a36.66,36.66,0,0,0,1.86-15s8.19,20.34,2.64,28.44c5.52-1.35,5.52-13.72,5.52-13.72S1272.21,1354.25,1247.21,1355.61Z"/><ellipse class="cls-116" cx="1244.93" cy="1331.21" rx="12.48" ry="20.56"/><ellipse class="cls-117" cx="1244.93" cy="1337.91" rx="11.3" ry="15.43"/><path class="cls-118" d="M1210.21,1370.3c-14.76.81-21.86-8.63-21.23-35.06,9.25,7.26,6.47-.72,6.35-11.47-.22-20.18,21.91-26.6,21.91-26.6s-8.54,24.52,1.32,31.78a36.66,36.66,0,0,0,1.86-15s8.19,20.34,2.64,28.43c5.52-1.35,5.52-13.71,5.52-13.71S1235.21,1368.94,1210.21,1370.3Z"/><ellipse class="cls-119" cx="1207.93" cy="1345.91" rx="12.48" ry="20.56"/><ellipse class="cls-120" cx="1207.93" cy="1352.6" rx="11.3" ry="15.43"/><path class="cls-121" d="M1175.6,1382.91c-14.76.8-21.86-8.63-21.23-35.06,9.25,7.25,6.47-.72,6.36-11.47-.23-20.19,21.9-26.6,21.9-26.6s-8.54,24.51,1.32,31.77a36.65,36.65,0,0,0,1.86-15s8.19,20.35,2.65,28.44c5.52-1.35,5.52-13.72,5.52-13.72S1200.6,1381.55,1175.6,1382.91Z"/><ellipse class="cls-122" cx="1173.33" cy="1358.51" rx="12.48" ry="20.56"/><ellipse class="cls-123" cx="1173.33" cy="1365.21" rx="11.3" ry="15.43"/><path class="cls-124" d="M1134.66,1390.14c-14.76.8-21.86-8.63-21.23-35.07,9.25,7.26,6.47-.71,6.35-11.46-.22-20.19,21.91-26.61,21.91-26.61s-8.54,24.52,1.32,31.78a36.66,36.66,0,0,0,1.86-15s8.19,20.34,2.64,28.44c5.53-1.35,5.53-13.72,5.53-13.72S1159.66,1388.78,1134.66,1390.14Z"/><ellipse class="cls-125" cx="1132.39" cy="1365.74" rx="12.48" ry="20.56"/><ellipse class="cls-126" cx="1132.39" cy="1372.43" rx="11.3" ry="15.43"/><path class="cls-127" d="M1091.8,1386.73c-14.76.8-21.86-8.63-21.23-35.07,9.25,7.26,6.47-.71,6.35-11.46-.22-20.19,21.91-26.6,21.91-26.6s-8.54,24.51,1.32,31.77a36.65,36.65,0,0,0,1.86-15s8.19,20.34,2.64,28.44c5.53-1.35,5.53-13.72,5.53-13.72S1116.8,1385.37,1091.8,1386.73Z"/><ellipse class="cls-128" cx="1089.53" cy="1362.33" rx="12.48" ry="20.56"/><ellipse class="cls-129" cx="1089.53" cy="1369.03" rx="11.3" ry="15.43"/><path class="cls-130" d="M1053.66,1385.9c-14.75.81-21.85-8.62-21.22-35.06,9.24,7.26,6.47-.71,6.35-11.47-.22-20.18,21.9-26.6,21.9-26.6s-8.54,24.52,1.33,31.78a36.87,36.87,0,0,0,1.86-15s8.19,20.34,2.64,28.43c5.52-1.34,5.52-13.71,5.52-13.71S1078.67,1384.54,1053.66,1385.9Z"/><ellipse class="cls-131" cx="1051.39" cy="1361.51" rx="12.48" ry="20.56"/><ellipse class="cls-132" cx="1051.39" cy="1368.2" rx="11.3" ry="15.43"/><path class="cls-133" d="M1011.25,1376.52c-14.75.81-21.85-8.62-21.22-35.06,9.25,7.26,6.47-.71,6.35-11.47-.22-20.18,21.91-26.6,21.91-26.6s-8.54,24.52,1.32,31.78a36.87,36.87,0,0,0,1.86-15s8.19,20.34,2.64,28.43c5.52-1.34,5.52-13.71,5.52-13.71S1036.26,1375.16,1011.25,1376.52Z"/><ellipse class="cls-134" cx="1008.98" cy="1352.13" rx="12.48" ry="20.56"/><ellipse class="cls-135" cx="1008.98" cy="1358.82" rx="11.3" ry="15.43"/><path class="cls-136" d="M973.73,1366.19c-14.75.8-21.85-8.63-21.22-35.06,9.25,7.25,6.47-.72,6.35-11.47-.22-20.19,21.91-26.6,21.91-26.6s-8.54,24.52,1.32,31.77a36.86,36.86,0,0,0,1.86-15s8.19,20.35,2.64,28.44c5.52-1.35,5.52-13.72,5.52-13.72S998.74,1364.83,973.73,1366.19Z"/><ellipse class="cls-137" cx="971.46" cy="1341.79" rx="12.48" ry="20.56"/><ellipse class="cls-138" cx="971.46" cy="1348.49" rx="11.3" ry="15.43"/><path class="cls-139" d="M1514.77,1258.86a131.72,131.72,0,0,1-7.53,44.09c-36.57,108.44-205.76,190.17-408.66,190.17-205.94,0-376.92-84.24-410.08-195a131.62,131.62,0,0,1-5.92-39.25,139.73,139.73,0,0,1,12.91-58.07c45.7-101.27,208.81-176.37,403.09-176.37,201.46,0,369.58,80.84,407.94,187.84A137.93,137.93,0,0,1,1514.77,1258.86Z"/><path class="cls-140" d="M1371.43,1177.31c0,2.18-.08,4.36-.23,6.52-5.88,85-126.24,152.76-273.86,152.76-47.39,0-92-7-130.86-19.29a320.44,320.44,0,0,1-57.09-24.06c-7.25-4-14.14-8.17-20.61-12.6h0a202.57,202.57,0,0,1-21.76-17,164,164,0,0,1-17.57-18.36,131.28,131.28,0,0,1-11.33-16.17c-8.47-14.3-13.53-29.53-14.62-45.35-.16-2.15-.23-4.31-.23-6.48,0-35.5,20-68.29,53.78-94.77,25.78-20.22,59.61-36.76,98.73-48,36.64-10.56,77.91-16.49,121.57-16.49C1248.72,1018,1371.43,1089.34,1371.43,1177.31Z"/><path class="cls-141" d="M1393.86,1177.08c0,89.8-118.21,163.56-269.14,171.59q-13.52.72-27.38.73-12.37,0-24.5-.58-4.38-.21-8.73-.49-12.88-.84-25.43-2.3c-135.66-15.82-237.85-85.45-237.85-169,0-83,.15-300,.19-354.06,1.25,21.12,9,41.27,22.24,59.79v294.27c0,76.27,92.23,140,215.42,155.62q12.51,1.59,25.43,2.5,4.35.3,8.73.53,12.11.63,24.5.63,13.86,0,27.38-.78c138.52-8,246.71-75.9,246.71-158.5V882.81c12.63-17.73,20.31-36.94,22-57.07C1393.48,825.74,1393.86,1167.77,1393.86,1177.08Z"/><path class="cls-142" d="M1371.43,1017v160.06c0,88-122.71,159.28-274.09,159.28s-274.08-71.31-274.08-159.28V1017c0,31.83,16.07,61.48,43.75,86.36,24.86,22.35,59.09,40.85,99.47,53.63,38.89,12.3,83.47,19.29,130.86,19.29C1248.72,1176.3,1371.43,1105,1371.43,1017Z"/><path class="cls-143" d="M1097.34,644.64c-160.16,0-290.66,73.79-296.31,166.07-.14,2.07-.2,4.16-.2,6.25s.06,4,.19,6.06c1.25,21.12,9,41.27,22.24,59.79q2.37,3.33,5,6.58h0c11.1,13.9,25.29,26.79,42.06,38.39a298.5,298.5,0,0,0,58.33,30.88l2,.8a389,389,0,0,0,42.46,14c.86.23,1.72.46,2.58.67l.94.24a455.72,455.72,0,0,0,62.09,11.54q12.54,1.46,25.43,2.3,4.35.28,8.73.49,12.12.57,24.5.58,13.85,0,27.38-.73c80-4.25,150.81-27,199.69-60.77,16.77-11.59,31-24.49,42-38.38h0q2.6-3.25,5-6.58c12.63-17.73,20.31-36.94,22-57.07q.38-4.37.38-8.78C1393.86,721.79,1261.1,644.64,1097.34,644.64ZM1371.2,823.48a94.83,94.83,0,0,1-2.15,14.53c-.11.46-.21.93-.33,1.39s-.17.71-.26,1.07c-.38,1.49-.8,3-1.25,4.45-.11.39-.24.79-.36,1.18s-.24.75-.37,1.13c-.2.6-.4,1.19-.61,1.78-.32.91-.65,1.81-1,2.72-.16.43-.33.87-.5,1.3q-1.89,4.74-4.26,9.36c-.21.42-.42.84-.65,1.25l-.08.17c-.21.4-.43.8-.65,1.2-.59,1.1-1.21,2.19-1.85,3.27-.22.39-.45.78-.68,1.16q-1.46,2.43-3.06,4.83c-.22.34-.44.68-.68,1-.85,1.27-1.74,2.52-2.65,3.77-.3.42-.61.83-.92,1.25-.48.64-1,1.28-1.46,1.92-1.44,1.86-2.93,3.7-4.49,5.52-.67.78-1.34,1.55-2,2.32s-1.42,1.59-2.16,2.38-1.67,1.77-2.53,2.66c-.62.65-1.26,1.29-1.91,1.94-1,1-2,2-3.1,3q-2.1,2-4.29,3.94-2.52,2.25-5.18,4.44-1.1.91-2.22,1.8-1.79,1.44-3.61,2.84c-.79.61-1.59,1.21-2.4,1.81s-1.64,1.22-2.47,1.81l-.39.29q-3,2.19-6.2,4.3l-1.89,1.25c-.81.53-1.62,1.06-2.44,1.58-1.09.7-2.18,1.38-3.29,2.06-.82.52-1.65,1-2.49,1.52-.68.41-1.36.82-2,1.22q-4.23,2.49-8.64,4.86c-.73.4-1.47.79-2.21,1.18-3.38,1.78-6.83,3.52-10.35,5.19-.94.45-1.89.9-2.85,1.34q-5,2.32-10.15,4.49c-.81.35-1.63.69-2.45,1q-3.67,1.53-7.46,3l-2.53,1-2.55.94q-4,1.47-8.09,2.85l-2.28.76c-1.13.38-2.26.75-3.41,1.11-1.51.49-3,1-4.57,1.43l-2.69.81q-5.4,1.6-10.94,3.08l-1.93.51-2,.52c-1.16.3-2.32.59-3.49.87l-2.25.55-1.5.35-3.3.76-3.57.79-3.58.76c-1.2.25-2.4.5-3.61.73q-4.74.94-9.57,1.78c-.73.14-1.47.26-2.22.38-2.31.4-4.63.77-7,1.13l-3.37.5c-1.25.18-2.5.36-3.76.52-2.4.33-4.82.64-7.24.93l-.37,0c-2.53.3-5.08.58-7.63.84-1.28.13-2.57.26-3.85.37s-2.59.24-3.88.35q-4,.33-8,.6c-1.42.1-2.84.19-4.27.27l-3.38.18h0l-4,.18q-4.35.18-8.73.29l-3.24.06-4,.05-4,0q-6.19,0-12.32-.16L1082,976q-3.06-.09-6.09-.24l-3-.15-3.9-.21c-1.74-.1-3.47-.21-5.2-.34l-2.85-.21-2.81-.22-3.6-.32c-1.79-.16-3.58-.33-5.36-.52l-2.38-.25-1.78-.2c-2.1-.23-4.2-.48-6.28-.75-1.6-.2-3.19-.41-4.78-.63l-4.75-.68c-3.15-.47-6.29-1-9.4-1.51-1.55-.26-3.1-.54-4.65-.82s-3.08-.57-4.61-.87c-1.3-.25-2.61-.51-3.9-.78-1.74-.34-3.48-.71-5.21-1.09l-3.54-.79q-3-.66-5.9-1.38-4.08-1-8.08-2l-.7-.19-3.9-1.06c-.89-.24-1.77-.5-2.64-.75l-.6-.17-.5-.15c-.52-.14-1-.29-1.56-.45-1.1-.31-2.19-.64-3.27-1-1.41-.42-2.81-.86-4.21-1.3l-3.65-1.18c-1.36-.44-2.72-.9-4.07-1.36L955,953.09l-3.76-1.36-3.71-1.39h0l-3.68-1.43c-2.44-1-4.85-1.95-7.23-2.95L933,944.44l-2.25-1-2-.91c-1.89-.85-3.77-1.72-5.62-2.61l-1.71-.82c-1.6-.78-3.19-1.57-4.75-2.37l-2.23-1.15a254.54,254.54,0,0,1-23.22-13.65l-2.45-1.65h0c-1-.67-2-1.34-2.93-2s-1.72-1.22-2.57-1.84c-.67-.48-1.33-1-2-1.47s-1.14-.84-1.7-1.27l-.1-.07L877.37,912c-1.06-.82-2.1-1.65-3.13-2.49-.6-.48-1.19-1-1.77-1.46l-1.91-1.61c-.51-.43-1-.86-1.5-1.3-.69-.6-1.38-1.2-2-1.81-1.38-1.24-2.73-2.49-4-3.77-.5-.46-1-.94-1.48-1.43q-1.93-1.87-3.76-3.8c-.69-.71-1.37-1.44-2-2.16l-.36-.39c-.63-.69-1.25-1.39-1.87-2.08s-1.37-1.57-2-2.36-1.32-1.57-2-2.37-1.16-1.42-1.71-2.14-.94-1.21-1.4-1.82c-.33-.43-.65-.86-1-1.3l-.92-1.26q-1.56-2.15-3-4.33c-.39-.58-.77-1.17-1.13-1.75q-1.17-1.82-2.25-3.66l-.73-1.25c-.52-.9-1-1.8-1.51-2.71-.24-.45-.49-.9-.72-1.36a109.65,109.65,0,0,1-4.63-10c-.28-.68-.55-1.36-.8-2s-.57-1.53-.84-2.3c-.51-1.45-1-2.91-1.43-4.39s-.86-2.95-1.23-4.43c-.18-.71-.35-1.42-.51-2.12a.36.36,0,0,0,0-.1h0a95,95,0,0,1-2.15-14.54c-.16-2.15-.23-4.31-.23-6.48,0-35.5,20-68.29,53.78-94.77,25.78-20.22,59.61-36.76,98.73-48,36.64-10.56,77.91-16.49,121.57-16.49,151.38,0,274.09,71.32,274.09,159.29C1371.43,819.14,1371.35,821.32,1371.2,823.48Z"/><path class="cls-144" d="M1371.43,817c0,2.18-.08,4.36-.23,6.52-5.88,84.95-126.24,152.76-273.86,152.76-47.39,0-92-7-130.86-19.29a320.44,320.44,0,0,1-57.09-24.06c-7.25-4-14.14-8.17-20.61-12.6h0a202.57,202.57,0,0,1-21.76-17A164,164,0,0,1,849.44,885a131.28,131.28,0,0,1-11.33-16.17c-8.47-14.3-13.53-29.53-14.62-45.35-.16-2.15-.23-4.31-.23-6.48,0-35.5,20-68.29,53.78-94.77,25.78-20.22,59.61-36.76,98.73-48,36.64-10.56,77.91-16.49,121.57-16.49C1248.72,657.67,1371.43,729,1371.43,817Z"/><g class="cls-145"><path class="cls-146" d="M1310.65,917c-50.24,36.14-127.13,59.25-213.31,59.25-47.39,0-92-7-130.86-19.29-31.83-10.07-59.83-23.7-82.44-40,24.78-17.83,56.06-32.49,91.73-42.77,36.64-10.56,77.91-16.49,121.57-16.49C1183.52,857.73,1260.41,880.84,1310.65,917Z"/><path class="cls-147" d="M1371.43,1017c0,88-122.71,159.28-274.09,159.28-47.39,0-92-7-130.86-19.29-40.38-12.78-74.61-31.28-99.47-53.63-27.68-24.88-43.75-54.53-43.75-86.36,0-33.07,17.34-63.78,47-89.23,54.39,37.6,135.92,61.49,227,61.49s172.68-23.9,227.07-61.5C1354.09,953.24,1371.43,984,1371.43,1017Z"/></g><g class="cls-145"><path class="cls-148" d="M1310.65,917c-50.24,36.14-127.13,59.25-213.31,59.25-47.39,0-92-7-130.86-19.29-31.83-10.07-59.83-23.7-82.44-40,24.78-17.83,56.06-32.49,91.73-42.77,36.64-10.56,77.91-16.49,121.57-16.49C1183.52,857.73,1260.41,880.84,1310.65,917Z"/></g><path class="cls-149" d="M1371.43,882.81V1017c0,88-122.71,159.28-274.09,159.28-47.39,0-92-7-130.86-19.29-40.38-12.78-74.61-31.28-99.47-53.63-27.68-24.88-43.75-54.53-43.75-86.36V882.81q2.37,3.33,5,6.59a111.34,111.34,0,0,0,9.88,21.49,131.28,131.28,0,0,0,11.33,16.17A164,164,0,0,0,867,945.42a202.57,202.57,0,0,0,21.76,17h0c6.47,4.43,13.36,8.63,20.61,12.6a320.44,320.44,0,0,0,57.09,24.06c38.89,12.3,83.47,19.29,130.86,19.29,133.53,0,244.76-55.48,269.12-129C1368.2,887.22,1369.85,885,1371.43,882.81Z"/><g class="cls-150"><path class="cls-151" d="M1324.41,927.78c-48.88,33.79-119.69,56.52-199.69,60.77q-13.53.72-27.38.73-12.37,0-24.5-.58-4.38-.21-8.73-.49-12.88-.84-25.43-2.3c-67.09-7.83-126-28.81-168.39-58.12-16.77-11.6-31-24.49-42.06-38.39a111.34,111.34,0,0,0,9.88,21.49,131.28,131.28,0,0,0,11.33,16.17A164,164,0,0,0,867,945.42a202.57,202.57,0,0,0,21.76,17h0c6.47,4.43,13.36,8.63,20.61,12.6a320.44,320.44,0,0,0,57.09,24.06c38.89,12.3,83.47,19.29,130.86,19.29,133.52,0,244.75-55.47,269.12-128.94C1355.37,903.29,1341.18,916.19,1324.41,927.78Zm-227.07-228c-43.66,0-84.93,5.93-121.57,16.49-39.12,11.27-72.95,27.81-98.73,48-27,21.15-45.17,46.33-51.4,73.69.17.74.35,1.49.53,2.23q.84,3.35,1.92,6.63c.24.73.48,1.46.74,2.19s.47,1.32.72,2l.12.32c.26.68.52,1.37.8,2s.53,1.31.81,2l.14.33c.28.65.56,1.29.86,1.94a.49.49,0,0,0,.06.13c.29.65.59,1.3.91,2l.09.21c.33.68.66,1.36,1,2s.72,1.41,1.09,2.11.7,1.29,1,1.94l.28.49c.33.58.66,1.17,1,1.75s.82,1.38,1.24,2.07c1.26,2.07,2.59,4.11,4,6.14.47.67.94,1.34,1.43,2s1,1.34,1.47,2l1.39,1.83.16.2c.5.65,1,1.29,1.53,1.93s.88,1.09,1.33,1.63l.46.56,1,1.19c.33.38.65.76,1,1.14l.59.67c.44.5.89,1,1.35,1.51s.88,1,1.34,1.45.83.9,1.26,1.35l.4.42c.52.54,1,1.08,1.57,1.61s1.24,1.25,1.87,1.87,1.26,1.24,1.91,1.85c1.28,1.24,2.6,2.45,3.94,3.66A199.92,199.92,0,0,0,884,917c22.61,16.26,50.61,29.89,82.44,40,38.89,12.3,83.47,19.29,130.86,19.29,86.18,0,163.07-23.11,213.31-59.25,1.36-1,2.71-2,4-3,.66-.49,1.31-1,2-1.49.95-.73,1.89-1.47,2.82-2.21l.48-.4c.75-.6,1.49-1.21,2.23-1.83.27-.21.53-.43.8-.67.65-.53,1.28-1.08,1.91-1.63q.35-.27.69-.6c.63-.53,1.25-1.09,1.87-1.64.39-.34.78-.7,1.17-1.06l1.33-1.22q.54-.5,1.08-1l1.38-1.31c.38-.36.75-.72,1.12-1.1.53-.51,1-1,1.57-1.56l.56-.57c.65-.66,1.29-1.32,1.91-2l.44-.46c.72-.77,1.43-1.54,2.13-2.32s1.21-1.34,1.78-2c.24-.25.46-.51.68-.76.62-.73,1.24-1.46,1.84-2.19l.16-.18c.69-.84,1.38-1.69,2.05-2.55s1.26-1.61,1.87-2.42l.39-.52c.46-.61.91-1.23,1.35-1.85a124.34,124.34,0,0,0,7-10.85c.21-.35.41-.71.62-1.07.56-1,1.1-2,1.62-3l.6-1.17q1.7-3.3,3.13-6.66c.19-.43.38-.87.56-1.31l.63-1.54c.15-.38.3-.77.44-1.15a102.33,102.33,0,0,0,3.31-10.18c.11-.43.23-.86.33-1.29q.29-1.12.54-2.25C1351.33,760,1236.44,699.77,1097.34,699.77Z"/></g><path class="cls-152" d="M1324.41,927.78c-48.88,33.79-119.69,56.52-199.69,60.77q-13.53.72-27.38.73-12.37,0-24.5-.58-4.38-.21-8.73-.49-12.88-.84-25.43-2.3c-67.09-7.83-126-28.81-168.39-58.12-16.77-11.6-31-24.49-42.06-38.39a111.34,111.34,0,0,0,9.88,21.49,131.28,131.28,0,0,0,11.33,16.17A164,164,0,0,0,867,945.42a202.57,202.57,0,0,0,21.76,17h0c6.47,4.43,13.36,8.63,20.61,12.6a320.44,320.44,0,0,0,57.09,24.06c38.89,12.3,83.47,19.29,130.86,19.29,133.52,0,244.75-55.47,269.12-128.94C1355.37,903.29,1341.18,916.19,1324.41,927.78Zm-227.07-228c-43.66,0-84.93,5.93-121.57,16.49-39.12,11.27-72.95,27.81-98.73,48-27,21.15-45.17,46.33-51.4,73.69.17.74.35,1.49.53,2.23q.84,3.35,1.92,6.63c.24.73.48,1.46.74,2.19s.47,1.32.72,2l.12.32c.26.68.52,1.37.8,2s.53,1.31.81,2l.14.33c.28.65.56,1.29.86,1.94a.49.49,0,0,0,.06.13c.29.65.59,1.3.91,2l.09.21c.33.68.66,1.36,1,2s.72,1.41,1.09,2.11.7,1.29,1,1.94l.28.49c.33.58.66,1.17,1,1.75s.82,1.38,1.24,2.07c1.26,2.07,2.59,4.11,4,6.14.47.67.94,1.34,1.43,2s1,1.34,1.47,2l1.39,1.83.16.2c.5.65,1,1.29,1.53,1.93s.88,1.09,1.33,1.63l.46.56,1,1.19c.33.38.65.76,1,1.14l.59.67c.44.5.89,1,1.35,1.51s.88,1,1.34,1.45.83.9,1.26,1.35l.4.42c.52.54,1,1.08,1.57,1.61s1.24,1.25,1.87,1.87,1.26,1.24,1.91,1.85c1.28,1.24,2.6,2.45,3.94,3.66A199.92,199.92,0,0,0,884,917c22.61,16.26,50.61,29.89,82.44,40,38.89,12.3,83.47,19.29,130.86,19.29,86.18,0,163.07-23.11,213.31-59.25,1.36-1,2.71-2,4-3,.66-.49,1.31-1,2-1.49.95-.73,1.89-1.47,2.82-2.21l.48-.4c.75-.6,1.49-1.21,2.23-1.83.27-.21.53-.43.8-.67.65-.53,1.28-1.08,1.91-1.63q.35-.27.69-.6c.63-.53,1.25-1.09,1.87-1.64.39-.34.78-.7,1.17-1.06l1.33-1.22q.54-.5,1.08-1l1.38-1.31c.38-.36.75-.72,1.12-1.1.53-.51,1-1,1.57-1.56l.56-.57c.65-.66,1.29-1.32,1.91-2l.44-.46c.72-.77,1.43-1.54,2.13-2.32s1.21-1.34,1.78-2c.24-.25.46-.51.68-.76.62-.73,1.24-1.46,1.84-2.19l.16-.18c.69-.84,1.38-1.69,2.05-2.55s1.26-1.61,1.87-2.42l.39-.52c.46-.61.91-1.23,1.35-1.85a124.34,124.34,0,0,0,7-10.85c.21-.35.41-.71.62-1.07.56-1,1.1-2,1.62-3l.6-1.17q1.7-3.3,3.13-6.66c.19-.43.38-.87.56-1.31l.63-1.54c.15-.38.3-.77.44-1.15a102.33,102.33,0,0,0,3.31-10.18c.11-.43.23-.86.33-1.29q.29-1.12.54-2.25C1351.33,760,1236.44,699.77,1097.34,699.77Z"/><g class="cls-153"><path class="cls-154" d="M1324.41,927.78l-2.29,1.56-.62.42c-.75.5-1.51,1-2.27,1.5q-7.57,5-15.8,9.59l-1.63.91q-4.92,2.73-10.07,5.32l-1.58.79-2.51,1.24c-.87.43-1.76.85-2.64,1.27q-4.9,2.34-10,4.55c-1.24.55-2.5,1.09-3.76,1.61l-1.1.47c-2,.84-4,1.67-6.09,2.47q-4.46,1.77-9,3.43c-1.52.57-3.06,1.12-4.6,1.65s-3.09,1.08-4.65,1.6-3.12,1.05-4.7,1.55q-4.57,1.49-9.24,2.86l-.94.28c-1.41.41-2.82.82-4.25,1.22-3.06.87-6.16,1.7-9.28,2.51l-.87.22-4.12,1-3.46.83-2.67.62c-1.63.38-3.26.74-4.89,1.1-1.46.31-2.93.63-4.41.93q-5.61,1.17-11.31,2.19c-1.6.3-3.2.58-4.81.85h-.08q-4.56.78-9.18,1.47l-.33,0c-.81.13-1.63.25-2.45.36l-3.51.49-.74.1c-1.64.22-3.28.44-4.92.64-1.34.17-2.69.33-4,.48l-3,.34c-1.43.16-2.86.31-4.3.45s-2.88.28-4.33.41l-.6.06-2.49.22-2.43.2c-.86.08-1.74.14-2.61.21l-4.83.34c-1.61.11-3.23.2-4.85.3l-.8,0c-1.63.09-3.26.17-4.9.24h-.29c-1.82.09-3.65.16-5.48.22q-3.45.12-6.92.18c-1.09,0-2.19.05-3.28.06l-2.57,0-4.6,0-4.58,0-2.61,0c-1.08,0-2.16,0-3.23-.06q-3.5-.06-7-.18c-1.81-.06-3.61-.13-5.41-.21l-.46,0-4.63-.23-1-.06-4.79-.29c-1.57-.1-3.14-.21-4.7-.33l-2.85-.23-4.2-.35c-1.85-.17-3.7-.34-5.54-.53-1.53-.15-3-.31-4.56-.48l-1.65-.18q-5.12-.58-10.15-1.27h-.08c-1.79-.23-3.58-.49-5.36-.75s-3.58-.53-5.35-.82h0c-1.76-.28-3.51-.56-5.25-.87h0c-1.76-.3-3.52-.61-5.26-.93s-3.34-.61-5-.93l-.24,0c-1.66-.32-3.3-.65-4.94-1l-.62-.13c-1.6-.32-3.19-.66-4.77-1s-3.08-.68-4.61-1L987,977c-1.36-.31-2.72-.64-4.07-1q-2.52-.6-5-1.25-5-1.28-9.87-2.66-2.44-.68-4.86-1.4l-.31-.09c-1.51-.44-3-.9-4.5-1.37q-3.58-1.1-7.12-2.27t-7-2.38c-1.54-.53-3.08-1.08-4.6-1.65s-2.92-1.07-4.36-1.62l-.18-.07c-1.46-.55-2.9-1.11-4.34-1.69l-.38-.15c-.66-.25-1.32-.52-2-.79-1.34-.53-2.67-1.08-4-1.64-1.59-.66-3.16-1.33-4.73-2-.67-.28-1.34-.58-2-.87l-.33-.15-2-.88c-.71-.31-1.41-.63-2.11-1s-1.41-.65-2.1-1c-2.09-1-4.16-2-6.2-3-.69-.33-1.36-.67-2-1q-2-1-4-2.07c-.67-.34-1.33-.69-2-1s-1.31-.7-2-1.06l-2-1.07-1.93-1.08-2-1.16c-.93-.53-1.84-1.06-2.75-1.6-.54-.31-1.07-.63-1.6-1l-1.19-.71q-6.84-4.14-13.21-8.54c-19.39-13.41-35.33-28.55-47-45v294.27c0,88,122.71,159.28,274.08,159.28s274.09-71.31,274.09-159.28V882.81C1359.74,899.23,1343.8,914.38,1324.41,927.78Z"/></g><circle class="cls-155" cx="1227.11" cy="1003.12" r="22.63"/><circle class="cls-156" cx="1227.11" cy="1003.12" r="20.12"/><circle class="cls-157" cx="865.45" cy="987.55" r="15.76"/><circle class="cls-158" cx="865.45" cy="987.55" r="14.01"/><circle class="cls-159" cx="1333.81" cy="977.75" r="11.73"/><circle class="cls-160" cx="1333.81" cy="977.75" r="10.43"/><path class="cls-161" d="M1060.73,858.45l1-2.32A21.3,21.3,0,0,1,1060.73,858.45Z"/><path class="cls-162" d="M1063,848.19a24,24,0,0,1-1.34,7.94,35.48,35.48,0,0,1-4.4,3.12c-13.4,8.09-28,4.84-35.09,2.37a36.87,36.87,0,0,1-4.41-1.79A24.12,24.12,0,1,1,1063,848.19Z"/><path class="cls-163" d="M1057.28,859.25c-13.4,8.09-28,4.84-35.09,2.37a21.44,21.44,0,1,1,35.09-2.37Z"/><path class="cls-164" d="M1123.64,797.25c.15-.35.3-.72.45-1.09A10.4,10.4,0,0,1,1123.64,797.25Z"/><path class="cls-165" d="M1124.72,792.43a11.19,11.19,0,0,1-.63,3.73,17.11,17.11,0,0,1-2.07,1.47c-6.29,3.79-13.13,2.27-16.47,1.11a18.25,18.25,0,0,1-2.07-.84,11.32,11.32,0,1,1,21.24-5.47Z"/><path class="cls-166" d="M1122,797.63c-6.29,3.79-13.13,2.27-16.47,1.11a10.06,10.06,0,1,1,16.47-1.11Z"/><circle class="cls-167" cx="966.28" cy="1125.03" r="15.76"/><circle class="cls-168" cx="966.28" cy="1125.03" r="14.01"/><circle class="cls-169" cx="1190.95" cy="1048.55" r="12.83"/><circle class="cls-170" cx="1190.95" cy="1048.55" r="11.41"/><circle class="cls-171" cx="923.56" cy="1084.41" r="12.83"/><circle class="cls-172" cx="923.56" cy="1084.41" r="11.41"/><circle class="cls-173" cx="850.56" cy="1058.87" r="9.24"/><circle class="cls-174" cx="850.56" cy="1058.87" r="8.22"/><circle class="cls-175" cx="1013.19" cy="1108.92" r="12.83"/><circle class="cls-176" cx="1013.19" cy="1108.92" r="11.41"/><circle class="cls-177" cx="1238.24" cy="1128.58" r="9.13"/><circle class="cls-178" cx="1238.24" cy="1128.58" r="8.12"/><circle class="cls-179" cx="1301.5" cy="1057.68" r="9.13"/><circle class="cls-180" cx="1301.5" cy="1057.68" r="8.12"/><circle class="cls-181" cx="1338.17" cy="1059.69" r="12.83"/><circle class="cls-182" cx="1338.17" cy="1059.69" r="11.41"/><circle class="cls-183" cx="1190.26" cy="1121.3" r="7.92"/><circle class="cls-184" cx="1190.26" cy="1121.3" r="7.04"/><circle class="cls-185" cx="1159.62" cy="1081.3" r="9.71"/><circle class="cls-186" cx="1159.62" cy="1081.3" r="8.63"/><circle class="cls-187" cx="942.95" cy="1018.34" r="9.71"/><circle class="cls-188" cx="942.95" cy="1018.34" r="8.63"/><circle class="cls-189" cx="1064.94" cy="1136.48" r="9.71"/><circle class="cls-190" cx="1064.94" cy="1136.48" r="8.63"/><circle class="cls-191" cx="897.25" cy="1082.6" r="6.2"/><circle class="cls-192" cx="897.25" cy="1082.6" r="5.51"/><g class="cls-193"><circle class="cls-194" cx="1155.86" cy="926.69" r="23.26"/><circle class="cls-195" cx="1155.86" cy="926.69" r="20.67"/></g><g class="cls-193"><circle class="cls-196" cx="963" cy="923.01" r="12.06"/><circle class="cls-197" cx="963" cy="923.01" r="10.72"/></g><path class="cls-198" d="M1231.92,848.53a13.66,13.66,0,0,1-3.58,6.73c-5.42,5.91-16.13,9.93-28.45,9.93a51.54,51.54,0,0,1-15.39-2.27,38.11,38.11,0,0,1-6.72-2.83c-.85-.47-1.66-1-2.42-1.48a22.91,22.91,0,0,1-2.56-2,18.92,18.92,0,0,1-1.83-1.87l-.24-.29a15.54,15.54,0,0,1-1.33-1.9,12,12,0,0,1-1.72-5.34c0-.1,0-.2,0-.3a32.43,32.43,0,0,1,64.25,1.62Z"/><path class="cls-199" d="M1228.34,855.26c-5.42,5.91-16.13,9.93-28.45,9.93a51.54,51.54,0,0,1-15.39-2.27,38.11,38.11,0,0,1-6.72-2.83c-.85-.47-1.66-1-2.42-1.48a22.91,22.91,0,0,1-2.56-2,18.92,18.92,0,0,1-1.83-1.87,28.84,28.84,0,0,1,7.74-22.4,28.32,28.32,0,0,1,5.63-4.63,28.82,28.82,0,0,1,44,27.55Z"/><path class="cls-200" d="M1265.1,778a8.9,8.9,0,0,1-2.33,4.39c-3.54,3.85-10.53,6.48-18.57,6.48a33.6,33.6,0,0,1-10-1.48,24.64,24.64,0,0,1-4.38-1.85,18.43,18.43,0,0,1-1.58-1,14,14,0,0,1-1.67-1.3,12.51,12.51,0,0,1-1.2-1.22l-.15-.19a10.75,10.75,0,0,1-.87-1.24,7.8,7.8,0,0,1-1.12-3.48,1.41,1.41,0,0,1,0-.2A21.16,21.16,0,0,1,1265.1,778Z"/><path class="cls-201" d="M1262.77,782.41c-3.54,3.85-10.53,6.48-18.57,6.48a33.6,33.6,0,0,1-10-1.48,24.64,24.64,0,0,1-4.38-1.85,18.43,18.43,0,0,1-1.58-1,14,14,0,0,1-1.67-1.3,12.51,12.51,0,0,1-1.2-1.22,18.82,18.82,0,1,1,37.44.34Z"/><circle class="cls-202" cx="1265.1" cy="920.95" r="8.58"/><circle class="cls-203" cx="1265.1" cy="920.95" r="7.63"/><circle class="cls-204" cx="1184.62" cy="745.81" r="17.37"/><circle class="cls-205" cx="1184.62" cy="745.81" r="15.44"/><circle class="cls-206" cx="1007.32" cy="745.46" r="13.87"/><circle class="cls-207" cx="1007.32" cy="745.46" r="12.33"/><circle class="cls-208" cx="1093.73" cy="908.73" r="7.78"/><circle class="cls-209" cx="1093.73" cy="908.73" r="6.91"/><g class="cls-210"><path class="cls-211" d="M1124.72,988.55v360.12q-13.52.72-27.38.73-12.37,0-24.5-.58V988.7q12.12.57,24.5.58Q1111.19,989.28,1124.72,988.55Z"/><path class="cls-212" d="M1064.11,988.21v360.12q-12.88-.84-25.43-2.3V985.91Q1051.22,987.37,1064.11,988.21Z"/></g><polygon class="cls-2" points="1120.63 1019 1120.63 1014.88 1100.74 1014.88 1100.74 1019 1100.79 1019 1100.79 1334.9 1100.74 1334.9 1100.74 1339.02 1120.63 1339.02 1120.63 1334.9 1104.55 1334.9 1104.55 1179.01 1120.63 1179.01 1120.63 1174.89 1104.55 1174.89 1104.55 1019 1120.63 1019"/><text class="cls-213" transform="translate(1126.95 1183.54)">50</text><text class="cls-213" transform="translate(1126.58 1345.18)">0</text><text class="cls-213" transform="translate(1121.93 1025.99)">100</text><path class="cls-214" d="M1354.83,378c-69.25,64.16-40.63,226.44-4.28,272.54s-56.08,116.1-58.18,172.53c-16-29.11,3.43-82.87-15.62-141.26s-78-94.41-62-160.62S1354.83,378,1354.83,378Z"/><path class="cls-215" d="M1155.94,233.59c40.63,68.44,69.5,152.91,29.94,213.86s-62,93.58-29.94,146.24,27.8,82.6-1.07,135,5.34,88.28,5.34,88.28-104.14-55.46-74.61-128.91c36.55-90.89-95.78-141.77-46.92-208.52,111.91-152.91-12.65-355-12.65-355S1115.3,165.16,1155.94,233.59Z"/><path class="cls-216" d="M1032.4,746.86c52,39.56-7.09,69.36,29.35,112.2C1007.76,828.13,1056.43,788.56,1032.4,746.86Z"/><path class="cls-217" d="M1017.9,575.77c20.41,12.83,76.34,50.11,47,119.76-30.64,72.83,7.9,72.61,7.9,72.61s-28.45,5.45-34.16-38.39,18.88-42.52,18.88-79.26C1057.56,618.79,1017.9,575.77,1017.9,575.77Z"/><path class="cls-218" d="M1232.93,457.08c-19.25,42.77-53.86,104-4.82,151.84s41.24,61,22.6,71.64-49.5-52.39-57.16-104.79S1232.93,457.08,1232.93,457.08Z"/><path class="cls-219" d="M1045.45,876.38a27,27,0,0,1-1.54,9c-7.5,22.24-42.21,39-83.82,39-42.24,0-77.31-17.28-84.12-40a27.31,27.31,0,0,1-1.21-8,28.62,28.62,0,0,1,2.65-11.91c9.37-20.77,42.83-36.18,82.68-36.18,41.32,0,75.8,16.58,83.67,38.53A28.4,28.4,0,0,1,1045.45,876.38Z"/><path class="cls-220" d="M1033.8,876.38a23.26,23.26,0,0,1-1.34,7.8c-6.47,19.21-36.44,33.68-72.37,33.68-36.47,0-66.75-14.92-72.63-34.53a23.64,23.64,0,0,1-1-7,24.79,24.79,0,0,1,2.28-10.29c8.1-17.93,37-31.23,71.39-31.23,35.68,0,65.45,14.31,72.25,33.26A24.53,24.53,0,0,1,1033.8,876.38Z"/><path class="cls-221" d="M1047.08,876.38a27.48,27.48,0,0,1-1.58,9.21c-7.64,22.67-43,39.75-85.41,39.75-43.05,0-78.78-17.61-85.72-40.76a27.66,27.66,0,0,1-1.23-8.2,29.09,29.09,0,0,1,2.7-12.14c9.55-21.17,43.64-36.86,84.25-36.86,42.11,0,77.25,16.89,85.26,39.26A28.68,28.68,0,0,1,1047.08,876.38Z"/><path class="cls-222" d="M1017.47,876.37a18.2,18.2,0,0,1-1,6.08c-5,14.95-28.36,26.22-56.34,26.22-28.39,0-52-11.62-56.53-26.89a18.23,18.23,0,0,1-.81-5.41,19.25,19.25,0,0,1,1.77-8c6.31-14,28.79-24.32,55.57-24.32,27.78,0,50.95,11.15,56.24,25.9A19,19,0,0,1,1017.47,876.37Z"/><path class="cls-223" d="M1004,876.37a14,14,0,0,1-.79,4.66c-3.86,11.45-21.73,20.08-43.15,20.08-21.75,0-39.8-8.9-43.31-20.6a14.08,14.08,0,0,1-.62-4.14,14.75,14.75,0,0,1,1.36-6.13c4.83-10.7,22.05-18.63,42.57-18.63,21.27,0,39,8.54,43.07,19.84A14.49,14.49,0,0,1,1004,876.37Z"/><path class="cls-224" d="M1013.19,876.37a16.87,16.87,0,0,1-1,5.63c-4.67,13.83-26.25,24.25-52.13,24.25-26.27,0-48.09-10.74-52.32-24.87a16.89,16.89,0,0,1-.75-5,17.78,17.78,0,0,1,1.65-7.41c5.83-12.91,26.63-22.49,51.42-22.49,25.69,0,47.14,10.31,52,24A17.5,17.5,0,0,1,1013.19,876.37Z"/><path class="cls-225" d="M994.2,876.37a10.58,10.58,0,0,1-.62,3.61c-3,8.89-16.86,15.58-33.48,15.58-16.87,0-30.88-6.9-33.6-16a10.86,10.86,0,0,1-.49-3.21,11.46,11.46,0,0,1,1.06-4.76c3.75-8.3,17.11-14.45,33-14.45,16.51,0,30.28,6.62,33.43,15.39A11.3,11.3,0,0,1,994.2,876.37Z"/><path class="cls-226" d="M985.43,871.27c-1.74-4.78-4.64-11.29-4.64-11.29s0,5.31.1,14c0,1.35,0,2.79,0,4.31v.31c-1.87,5.53-10.49,9.69-20.83,9.69s-19.21-4.29-20.9-9.94l0-.32.33-4.63,3.67-52.07-5.36,7.38,6.48-47.31,31.86,2.85C974.16,793,987.17,853,985.43,871.27Z"/><path class="cls-227" d="M587.34,1258.5v19.61c0,7.55-10.86,13.67-24.26,13.67s-24.26-6.12-24.26-13.67V1258.5a8.38,8.38,0,0,0,1.17,4.2c3.14,5.49,12.29,9.47,23.09,9.47s19.95-4,23.09-9.47A8.38,8.38,0,0,0,587.34,1258.5Z"/><ellipse class="cls-228" cx="563.08" cy="1258.5" rx="24.26" ry="13.67"/><path class="cls-229" d="M979.66,777.79V785c0,6.5-9.35,11.77-20.89,11.77-9.61,0-17.7-3.65-20.14-8.62a7,7,0,0,1-.76-3.15v-7.23a7.14,7.14,0,0,0,1,3.61,7.46,7.46,0,0,0,.65,1c3.16,4.23,10.59,7.19,19.24,7.19,7.29,0,13.71-2.11,17.45-5.3a11,11,0,0,0,2.44-2.86A7.23,7.23,0,0,0,979.66,777.79Z"/><ellipse class="cls-230" cx="958.77" cy="777.79" rx="20.9" ry="11.77"/><path class="cls-231" d="M584,1118.85v137.87c0,6.5-9.36,11.77-20.9,11.77s-20.9-5.27-20.9-11.77V1118.85a7.24,7.24,0,0,0,1,3.61c2.71,4.74,10.59,8.16,19.89,8.16s17.18-3.42,19.89-8.16A7.24,7.24,0,0,0,584,1118.85Z"/><ellipse class="cls-232" cx="563.08" cy="1118.85" rx="20.9" ry="11.77"/><path class="cls-233" d="M497.9,1148.7v39h46.35c2.13,0,3.85-8.73,3.85-19.5s-1.72-19.5-3.85-19.5Z"/><ellipse class="cls-234" cx="497.9" cy="1168.2" rx="3.85" ry="19.5"/><path class="cls-235" d="M497.78,1166.66c.64,2.39,1.16,4.71,1.56,6.86l-2.67,13.56-33.49,8.45-10-37.75,35.89-9.06C491.1,1148.2,495,1156.23,497.78,1166.66Z"/><ellipse class="cls-236" cx="458.17" cy="1176.65" rx="3.84" ry="19.53" transform="translate(-287.14 157.36) rotate(-14.9)"/><path class="cls-237" d="M461.58,1119.92l8,37.5c.37,1.77-1.87,3.71-5,4.35s-6-.29-6.36-2.06l-7.95-37.5a2,2,0,0,0,.48.93c1,1.14,3.35,1.64,5.88,1.13s4.48-1.87,4.94-3.31A2,2,0,0,0,461.58,1119.92Z"/><ellipse class="cls-238" cx="455.9" cy="1121.07" rx="5.8" ry="3.27" transform="translate(-207.68 108.99) rotate(-11.12)"/><path class="cls-239" d="M976.2,768.33v9.46c0,5.43-7.8,9.82-17.43,9.82a29.27,29.27,0,0,1-5.23-.45c-6.42-1.14-11.23-4.3-12.07-8.15V768.33c0-103.36-81-187.46-180.51-187.46S580.45,665,580.45,768.33v349.38c-.44,3-3.35,5.7-7.6,7.32a24.54,24.54,0,0,1-4.49,1.22,28.81,28.81,0,0,1-5.28.47c-8.89,0-16.24-3.76-17.3-8.61,0-.12,0-.25-.06-.38V768.33c0-59.23,22.31-115,62.83-156.9,40.67-42.1,94.8-65.29,152.41-65.29s111.73,23.19,152.41,65.29C953.88,653.38,976.2,709.1,976.2,768.33Z"/><path class="cls-240" d="M953.54,787.16c-6.42-1.14-11.23-4.3-12.07-8.15V768.33c0-103.36-81-187.46-180.51-187.46S580.45,665,580.45,768.33v349.38c-.44,3-3.35,5.7-7.6,7.32L568.36,790.1c0-59.23,20-115,56.22-156.89C661,591.09,709.41,567.9,761,567.9s100,23.19,136.38,65.31C933,674.46,952.89,729,953.54,787.16Z"/><text class="cls-241" transform="translate(16.34 892.04)">Linear FLUX Flow</text><path class="cls-243" d="M561.78,864.93a13.09,13.09,0,0,0-13,12.11h-69.6a13.1,13.1,0,1,0,0,2h69.6a13.1,13.1,0,1,0,13-14.11Z"/><text class="cls-241" transform="translate(-120.79 1278.77)">DAM Powering Validators %<tspan class="cls-242" x="52" y="70" style="&#10;    fill: #bfbfc3;&#10;    font-size: 38.54;&#10;">(Regulates FLUX Flow)</tspan></text><g transform="translate(-80 -80)"><path xmlns="http://www.w3.org/2000/svg" class="cls-243" d="M561.78,1231.54a13.09,13.09,0,0,0-13,12.11h-69.6a13.1,13.1,0,1,0,0,2h69.6a13.1,13.1,0,1,0,13-14.11Z"/></g><text class="cls-241" transform="translate(1731.04 1234)">ETH Liquidity</text><text class="cls-241" transform="translate(1637.1 634.66)">Burned FLUX</text><text class="cls-241" transform="translate(1731.04 1043.68)">FLUX Liquidity</text><text class="cls-241" transform="translate(12.13 1568.56)">Controlled Burn %</text><path class="cls-243" d="M1596.29,602.9A13.11,13.11,0,0,0,1583.23,615H1312.05a13.11,13.11,0,1,0,0,2h271.18a13.1,13.1,0,1,0,13.06-14.11Z"/><path class="cls-243" d="M1596.29,1011.32a13.1,13.1,0,0,0-13.06,12.1H1312.05a13.11,13.11,0,1,0,0,2h271.18a13.1,13.1,0,1,0,13.06-14.1Z"/><path class="cls-243" d="M1596.29,1207.82a13.11,13.11,0,0,0-13.06,12.11H1312.05a13.11,13.11,0,1,0,0,2h271.18a13.1,13.1,0,1,0,13.06-14.11Z"/><path class="cls-243" d="M985.13,1537.16a13.11,13.11,0,0,0-13.06,12.11H479.13a13.1,13.1,0,1,0,0,2H972.07a13.1,13.1,0,1,0,13.06-14.11Z"/><polygon class="cls-244" points="1667.92 1238.03 1667.92 1259.53 1694.24 1222.47 1667.92 1238.03"/><polygon class="cls-245" points="1667.92 1238.03 1667.92 1259.53 1641.6 1222.47 1667.92 1238.03"/><polygon class="cls-246" points="1641.6 1218.86 1667.92 1206.93 1667.92 1175.33 1641.6 1218.86"/><polygon class="cls-245" points="1667.92 1234.42 1667.92 1206.93 1641.6 1218.86 1667.92 1234.42"/><polygon class="cls-245" points="1667.92 1175.33 1667.92 1206.93 1694.24 1218.86 1667.92 1175.33"/><polygon class="cls-244" points="1694.24 1218.86 1667.92 1206.93 1667.92 1234.42 1694.24 1218.86"/><path class="cls-212" d="M1661.56,1017.52l12.36,7.16.06-14.31Zm0-15.82,12.36,7.16.06-14.32Zm13.7,7.8,12.37,7.16,0-14.32Zm-1.34,33-12.36,7.16,12.42,7.16Z"/><path class="cls-247" d="M1661.49,1033.57l12.43,7.16v-14.31Zm13.77,8.48,12.43,7.16v-14.32Zm-27.46-16.14,12.43,7.16v-14.32Zm-13.31-8.09,12.43,7.16v-14.31Z"/><path class="cls-212" d="M1661.05,1034.44v14.31l12.44-7.15Zm0,16.12v14.32l12.44-7.16Zm12.37-41.06-12.37-7.16v14.32Zm13.94-8.1L1675,994.24v14.32Zm14,8.1-12.37-7.16v14.32Z"/><path class="cls-247" d="M1661.05,1018.39v14.32l12.37-7.16Zm13.57,8.35v14.32l12.36-7.16Zm13.94,8.15v14.32l12.36-7.16Zm-40.73-24.22V1025l12.37-7.16Z"/><g xmlns="http://www.w3.org/2000/svg" transform="translate(-120 -80)"><path class="cls-212" d="M364.15,1230.54l-11.39,6.59V1224Zm.06,14.78-11.45,6.6v-13.19Zm-.06,14.79-11.39,6.59v-13.18Zm.46-14v13.19l-11.45-6.59Zm0-29.57.07,13.19-11.46-6.59Zm0,14.79.07,13.19-11.46-6.6Zm0,29.57.07,13.19-11.46-6.6Zm1-31.17v-13.19l11.39,6.6Z"/><path class="cls-247" d="M365.61,1260.91,377,1267.5l-11.39,6.6Z"/><path xmlns="http://www.w3.org/2000/svg" class="cls-212" d="M366.08,1230.54l11.39-6.59v13.18Zm12.32,6.59V1224l11.39,6.59Zm0,1.6,11.39,6.59-11.39,6.6Zm0,14.79,11.39,6.59-11.39,6.59Zm.47-15.59,11.38-6.59v13.19Zm11.38,8.19v13.19l-11.38-6.59Zm12.1-21.67v13.18L391,1231Zm12.33,6.59-11.39,6.59-.05-13.18Zm-11.39,23,11.39,6.59-11.44,6.59Zm11.45-8.19-11.45,6.59v-13.19Zm.4.79v13.19l-11.45-6.59Zm0,14.86v13.18l-11.45-6.59Zm-11.39-37.83,11.39-6.6v13.19Zm11.39,8.19V1245l-11.39-6.6Z"/></g></g></g></svg>