<svg xmlns="http://www.w3.org/2000/svg" width="48" height="48"><path fill="#0FF" d="M35 9.252v34.687c0 1.69-.456 3.061-2.147 3.061H4.289C2.6 47 1 45.629 1 43.938V4.142C1 2.451 2.6 0 4.289 0H26.73L35 9.252z"/><path fill="#202336" d="M35 11h-5.209C27.771 11 24 9.696 24 7.203V0h2v7.203C26 7.959 28.196 9 29.791 9H35v2zM16.564 6H5.612c-.708 0-1.278-.794-1.278-1.5S4.904 3 5.612 3h10.952c.707 0 1.28.794 1.28 1.5S17.271 6 16.564 6zM16.564 11H5.612c-.708 0-1.278-.794-1.278-1.5S4.904 8 5.612 8h10.952c.707 0 1.28.794 1.28 1.5s-.573 1.5-1.28 1.5zM28.811 16H5.612c-.708 0-1.278-.795-1.278-1.5s.57-1.5 1.278-1.5H28.81c.707 0 1.279.795 1.279 1.5s-.571 1.5-1.278 1.5z"/><g fill="#202336"><path d="M17.68 31.126l-8.887 5.147v-10.29zM18.041 20.214l.053 10.289-8.941-5.145zM18.041 31.75l.053 10.29-8.941-5.144zM19.127 31.129l8.888-5.146v10.29zM18.764 42.04V31.75l8.939 5.146zM18.764 30.505l-.05-10.291 8.938 5.144z"/></g><path fill="#0FF" d="M36.8 46.5c-.508 0-.999-.201-1.363-.565l-5.144-5.143a1.93 1.93 0 012.728-2.728l3.32 3.32 6.48-11.881a1.93 1.93 0 013.386 1.848l-7.714 14.143a1.93 1.93 0 01-1.419.984 1.582 1.582 0 01-.274.022z"/><path fill="#202336" d="M36.8 47.5a2.91 2.91 0 01-2.07-.858l-5.144-5.143a2.933 2.933 0 01-.001-4.142c1.109-1.107 3.037-1.105 4.143 0l2.375 2.375 5.841-10.707a2.93 2.93 0 013.973-1.167 2.933 2.933 0 011.168 3.973l-7.714 14.143A2.944 2.944 0 0136.8 47.5zm-5.143-9A.93.93 0 0031 40.084l5.144 5.143a.908.908 0 00.771.265.943.943 0 00.701-.478l7.713-14.141a.93.93 0 00-.37-1.26.948.948 0 00-1.26.369l-7.12 13.054-4.266-4.266a.929.929 0 00-.656-.27z"/></svg>