<svg xmlns="http://www.w3.org/2000/svg" width="48" height="48"><path fill="#0FF" d="M22 15v22a2 2 0 01-2 2H2a2 2 0 01-2-2V11a2 2 0 012-2h14l6 6zM48 15v22a2 2 0 01-2 2H28a2 2 0 01-2-2V11a2 2 0 012-2h14l6 6z"/><path fill="#202336" d="M22 16h-4c-1.374 0-3-1.626-3-3V9h1v4c0 .822 1.178 2 2 2h4v1zM48 16h-4c-1.374 0-3-1.626-3-3V9h1v4c0 .822 1.178 2 2 2h4v1zM36.02 12h-7.156c-.462 0-.835-.539-.835-1s.373-1 .835-1h7.156c.461 0 .836.539.836 1s-.376 1-.836 1zM36.02 16h-7.156c-.462 0-.835-.539-.835-1s.373-1 .835-1h7.156c.461 0 .836.539.836 1s-.376 1-.836 1zM44.02 20H28.863c-.462 0-.835-.539-.835-1s.373-1 .835-1H44.02c.461 0 .836.539.836 1s-.376 1-.836 1z"/><g fill="#202336"><path d="M9.807 27.869L4 31.231v-6.722zM10.043 20.74l.033 6.722-5.84-3.36zM10.043 28.277L10.076 35l-5.84-3.361zM10.752 27.871l5.807-3.362v6.722zM10.516 35v-6.723l5.839 3.362zM10.516 27.463l-.034-6.723 5.84 3.362z"/></g><g fill="#202336"><path d="M37.248 27.869l-5.807 3.362v-6.722zM37.484 20.74l.034 6.722-5.84-3.36zM37.484 28.277L37.518 35l-5.84-3.361zM38.193 27.871L44 24.509v6.722zM37.957 35v-6.723l5.84 3.362zM37.957 27.463l-.033-6.723 5.84 3.362z"/></g><path fill="#0FF" d="M20 29h8v8h-8z"/><path fill="#202336" d="M30.121 32.88L26 28.98V31h-4v-2.02l-4.121 3.9L22 37.001V35h4v2.001z"/></svg>